<?xml version="1.0" encoding="utf-8"?>
<!-- Generator: Adobe Illustrator 19.1.0, SVG Export Plug-In . SVG Version: 6.00 Build 0)  -->
<svg version="1.1" id="Layer_1" xmlns="http://www.w3.org/2000/svg" xmlns:xlink="http://www.w3.org/1999/xlink" x="0px" y="0px"
	 viewBox="0 0 200 100" style="enable-background:new 0 0 200 100;" xml:space="preserve">
<style type="text/css">
	.st0{fill:#FFFFFF;}
</style>
<path d="M167.3,94.3H32.7c-2.3,0-4.2-1.9-4.2-4.2V9.7c0-2.3,1.9-4.2,4.2-4.2h134.6c2.3,0,4.2,1.9,4.2,4.2v80.4
	C171.5,92.4,169.6,94.3,167.3,94.3z"/>
<path d="M182.3,76.5H175V23.9h7.3c2.2,0,3.9,1.8,3.9,3.9v44.7C186.2,74.8,184.5,76.5,182.3,76.5z"/>
<path d="M195.6,68.1h-5.9V32.3h5.9c2.2,0,3.9,1.8,3.9,3.9v27.9C199.6,66.3,197.8,68.1,195.6,68.1z"/>
<path d="M17.7,23.9H25v52.6h-7.3c-2.2,0-3.9-1.8-3.9-3.9V27.8C13.8,25.7,15.5,23.9,17.7,23.9z"/>
<path d="M4.4,32.3h5.9v35.8H4.4c-2.2,0-3.9-1.8-3.9-3.9V36.3C0.4,34.1,2.2,32.3,4.4,32.3z"/>
<circle class="st0" cx="66" cy="43" r="18.2"/>
<circle class="st0" cx="134.3" cy="43" r="18.2"/>
</svg>
