<?xml version="1.0" encoding="UTF-8" standalone="no"?>
<!-- Generator: Adobe Illustrator 18.1.1, SVG Export Plug-In . SVG Version: 6.00 Build 0)  -->

<svg
   xmlns:dc="http://purl.org/dc/elements/1.1/"
   xmlns:cc="http://creativecommons.org/ns#"
   xmlns:rdf="http://www.w3.org/1999/02/22-rdf-syntax-ns#"
   xmlns:svg="http://www.w3.org/2000/svg"
   xmlns="http://www.w3.org/2000/svg"
   xmlns:sodipodi="http://sodipodi.sourceforge.net/DTD/sodipodi-0.dtd"
   xmlns:inkscape="http://www.inkscape.org/namespaces/inkscape"
   version="1.1"
   id="Layer_1"
   x="0px"
   y="0px"
   viewBox="0 90 612 612"
   enable-background="new 0 90 612 612"
   xml:space="preserve"
   inkscape:version="0.48.3.1 r9886"
   width="100%"
   height="100%"
   sodipodi:docname="Credentials-Capsule.svgz"><metadata
   id="metadata15"><rdf:RDF><cc:Work
       rdf:about=""><dc:format>image/svg+xml</dc:format><dc:type
         rdf:resource="http://purl.org/dc/dcmitype/StillImage" /><dc:title></dc:title></cc:Work></rdf:RDF></metadata><defs
   id="defs13" /><sodipodi:namedview
   pagecolor="#ffffff"
   bordercolor="#666666"
   borderopacity="1"
   objecttolerance="10"
   gridtolerance="10"
   guidetolerance="10"
   inkscape:pageopacity="0"
   inkscape:pageshadow="2"
   inkscape:window-width="640"
   inkscape:window-height="480"
   id="namedview11"
   showgrid="false"
   inkscape:zoom="0.38562092"
   inkscape:cx="306"
   inkscape:cy="306"
   inkscape:window-x="0"
   inkscape:window-y="24"
   inkscape:window-maximized="0"
   inkscape:current-layer="Layer_1" />
<g
   id="Layer_1_1_">
	<circle
   fill="#F85812"
   cx="305.4"
   cy="395.8"
   r="297.8"
   id="circle4" />
	<rect
   x="113.6"
   y="381.1"
   fill="#F85812"
   width="383.5"
   height="30"
   id="rect6" />
	<path
   fill="#FFFFFF"
   d="M495.5,369.7c-4.3-9.6-11.4-17.3-20.8-23.5c-0.8-0.8-1.6-1.6-2.7-2.2L275.4,222c-14.9-9.2-33-10.4-49-3.3   s-27.1,21.6-30,38.8l-38.4,228.3c-0.2,1.2-0.2,2.7,0,3.9c-1.6,11-0.4,21.4,3.9,30.8c11.2,24.7,40.4,38.4,82.2,38.4   c36.7,0,80.4-10.6,122.6-29.6c43-19.4,80-45.5,104.2-73.6C497.8,424.4,506.3,394,495.5,369.7z M224.2,262.4   c1.4-8.2,6.3-14.7,13.9-18c7.3-3.3,15.7-2.9,22.6,1.4l138.9,86.1c-33.7,2.2-71.6,12.4-108.7,29.2c-37.1,16.7-70,38.8-93.6,62.4   L224.2,262.4z M449.8,437.2c-21.6,25.1-55.3,48.8-94.7,66.5c-38.8,17.5-78.1,27.1-111,27.1c-29.8,0-50.4-8-56.7-21.8   c-5.3-11.6-0.6-28.4,13.1-46.9c20.6-27.9,57.7-55.5,101.8-75.5c38.8-17.5,78.1-27.1,111-27.1c29.8,0,50.4,8,56.7,21.8   C476.1,394.8,468.8,415.2,449.8,437.2z"
   id="path8" />
</g>
<g
   id="Layer_2">
</g>
</svg>