<?xml version="1.0" encoding="utf-8"?>
<!-- Generator: Adobe Illustrator 19.1.0, SVG Export Plug-In . SVG Version: 6.00 Build 0)  -->
<svg version="1.1" id="Layer_1" xmlns="http://www.w3.org/2000/svg" xmlns:xlink="http://www.w3.org/1999/xlink" x="0px" y="0px"
	 viewBox="0 0 60 60" style="enable-background:new 0 0 60 60;" xml:space="preserve">
<style type="text/css">
	.st0{fill:#231F20;}
	.st1{fill:#EC1C24;}
</style>
<g>
	<path class="st0" d="M35,25.9v16.9c1.7-2.3,4.1-4,6.8-5V26.1c0-7-4.4-11.9-11.8-11.9c-7.2,0-11.9,5.1-12,11.8
		c2.7,0.9,5.1,2.6,6.8,4.8v-4.9c0-3,2.2-5.1,5.2-5.1C34.5,20.8,35,24.4,35,25.9L35,25.9z"/>
	<path class="st0" d="M13,28.2c7.4,0,11.8,4.9,11.8,11.9v19.3H18V40c0-1.5-0.5-5.1-5-5.1c-3,0-5.2,2.1-5.2,5.1v19.5H1V40.1
		C1,33.3,5.8,28.2,13,28.2L13,28.2z"/>
	<path class="st0" d="M47.1,46.4c4.5,0,5,3.6,5,5.1v8H59v-7.8c0-7-4.4-11.9-11.8-11.9c-7.2,0-12,5.1-12,11.9v7.8H42v-8
		C42,48.5,44.1,46.4,47.1,46.4L47.1,46.4z"/>
</g>
<g>
	<path class="st0" d="M30,12.2c-0.4,0-0.8-0.3-0.8-0.8V2.4c0-0.4,0.3-0.8,0.8-0.8s0.8,0.3,0.8,0.8v9.1C30.8,11.9,30.5,12.2,30,12.2z
		"/>
</g>
<circle class="st0" cx="30" cy="3.3" r="2.6"/>
<g>
	<circle class="st1" cx="30" cy="26.2" r="2.5"/>
	<path class="st0" d="M30,24.4c1,0,1.7,0.8,1.7,1.7S31,27.9,30,27.9s-1.7-0.8-1.7-1.7S29.1,24.4,30,24.4 M30,22.9
		c-1.8,0-3.3,1.5-3.3,3.3s1.5,3.3,3.3,3.3s3.3-1.5,3.3-3.3S31.8,22.9,30,22.9L30,22.9z"/>
</g>
</svg>
