<?xml version="1.0" encoding="utf-8"?>
<!-- Generator: Adobe Illustrator 19.1.0, SVG Export Plug-In . SVG Version: 6.00 Build 0)  -->
<svg version="1.1" id="Layer_1" xmlns="http://www.w3.org/2000/svg" xmlns:xlink="http://www.w3.org/1999/xlink" x="0px" y="0px"
	 viewBox="574 -188.8 1692 600" style="enable-background:new 574 -188.8 1692 600;" xml:space="preserve">
<style type="text/css">
	.st0{fill:#FFFFFF;}
	.st1{fill:none;}
	.st2{font-family:'GTWalsheim';}
	.st3{font-size:23.9806px;}
	.st4{fill:#2D2A2B;}
	.st5{fill:none;stroke:#F0F1F1;stroke-width:2.4186;stroke-miterlimit:10;}
	.st6{fill:none;stroke:#A6A8AB;stroke-width:0.6237;stroke-miterlimit:10;}
	.st7{fill:none;stroke:#A6A8AB;stroke-width:0.3339;stroke-linecap:round;stroke-miterlimit:10;}
	.st8{fill:none;stroke:#A6A8AB;stroke-width:1.2138;stroke-linecap:round;stroke-miterlimit:10;}
	.st9{fill:#99BD67;}
	.st10{fill:none;stroke:#F0F1F1;stroke-width:2.4121;stroke-miterlimit:10;}
	.st11{fill:none;stroke:#99BD67;stroke-width:1.1062;stroke-miterlimit:10;}
	
		.st12{opacity:0.5;fill:none;stroke:#A6A8AB;stroke-width:1.2138;stroke-linecap:round;stroke-miterlimit:10;enable-background:new    ;}
	.st13{opacity:0.5;}
	.st14{fill:none;stroke:#A6A8AB;stroke-width:1.1062;stroke-miterlimit:10;}
	.st15{fill:none;stroke:#A6A8AB;stroke-width:0.6254;stroke-miterlimit:10;}
	.st16{fill:none;stroke:#A6A8AB;stroke-width:0.3348;stroke-linecap:round;stroke-miterlimit:10;}
	.st17{fill:none;stroke:#A6A8AB;stroke-width:1.2171;stroke-linecap:round;stroke-miterlimit:10;}
	.st18{fill:none;stroke:#A6A8AB;stroke-width:1.2171;stroke-miterlimit:10;}
	.st19{fill:none;stroke:#99BD67;stroke-linecap:round;stroke-miterlimit:10;}
</style>
<g>
	<g>
		<path class="st0" d="M1269.7-117.5h-14.5v16.7h-9.7v-42h9.7v17h14.5v-17h9.7v42h-9.7V-117.5z"/>
		<path class="st0" d="M1285.3-115.2c0-8.3,6.1-15.2,16.1-15.2s16,7,16,15.2s-6,15.2-16,15.2S1285.3-107,1285.3-115.2z
			 M1308.2-115.2c0-4-2.8-7.4-7-7.4c-4.1,0-6.8,3.4-6.8,7.4c0,4.1,2.7,7.4,6.8,7.4C1305.5-107.9,1308.2-111.2,1308.2-115.2z"/>
		<path class="st0" d="M1343-119.2l-5.9,18.4h-7.4l-10.8-28.9h9.5l5.3,17.2l5.1-17.2h8.5l5.1,17.2l5.3-17.2h9.5l-10.8,28.9h-7.4
			L1343-119.2z"/>
		<path class="st0" d="M1391.9-134.4h-9.5v-8.4h28.7v8.4h-9.5v33.6h-9.7V-134.4z"/>
		<path class="st0" d="M1409.2-115.2c0-8.3,6.1-15.2,16.1-15.2s16,7,16,15.2s-6,15.2-16,15.2S1409.2-107,1409.2-115.2z
			 M1432.2-115.2c0-4-2.8-7.4-7-7.4c-4.1,0-6.8,3.4-6.8,7.4c0,4.1,2.7,7.4,6.8,7.4C1429.4-107.9,1432.2-111.2,1432.2-115.2z"/>
		<path class="st0" d="M1461.8-142.8h17.6c9.3,0,15.3,7,15.3,15.2s-6,15.2-15.3,15.2h-7.9v11.6h-9.7L1461.8-142.8L1461.8-142.8z
			 M1484.9-127.6c0-3.9-2.6-7.3-6.7-7.3h-6.7v14.5h6.7C1482.2-120.3,1484.9-123.7,1484.9-127.6z"/>
		<path class="st0" d="M1499.7-142.8h9.2v42h-9.2V-142.8z"/>
		<path class="st0" d="M1547-129.7v28.9h-9.2v-4.1c-1.4,2.6-4.8,4.8-9.2,4.8c-7.7,0-13.7-6.5-13.7-15.2s6-15.2,13.7-15.2
			c4.3,0,7.7,2,9.2,4.9v-4.1C1537.8-129.7,1547-129.7,1547-129.7z M1537.8-115.2c0-4-2.8-7.4-6.9-7.4c-4.1,0-6.9,3.4-6.9,7.4
			s2.8,7.4,6.9,7.4C1535-107.8,1537.8-111.2,1537.8-115.2z"/>
		<path class="st0" d="M1554.4-98.6h9c0.1,2.8,1.7,4.9,5.7,4.9c3.8,0,5.7-1.9,5.7-6.8v-4.9c-1.6,3.1-5,4.9-9.5,4.9
			c-4,0-6.5-1.4-8-3.3c-1.8-2.2-2.2-5-2.2-9.2v-16.7h9.1v14.8c0,4.1,1.3,7,5.1,7c3.8,0,5.6-2.9,5.6-7.3v-14.5h9.2v28.7
			c0,9.8-4.6,14-14.6,14C1558.7-86.9,1554.4-91.7,1554.4-98.6z"/>
	</g>
</g>
<g>
	<rect x="695.4" y="62.8" class="st1" width="300.8" height="90.7"/>
	<text transform="matrix(1 0 0 1 719.4563 83.2281)" class="st0 st2 st3">The first player’s move </text>
	<text transform="matrix(1 0 0 1 725.0563 119.2281)" class="st0 st2 st3">can go on any board. </text>
</g>
<g>
	<g>
		<circle class="st0" cx="845.8" cy="12.1" r="24.4"/>
	</g>
	<g>
		<path class="st4" d="M840,5.3c3.8,0,4.6-1.1,4.6-3.4h4v19.6H844v-13h-4V5.3z"/>
	</g>
</g>
<g>
	<ellipse class="st0" cx="845.8" cy="260.3" rx="107.9" ry="107.6"/>
	<ellipse class="st5" cx="845.8" cy="260.3" rx="107.9" ry="107.6"/>
</g>
<g>
	<g>
		<line class="st6" x1="823.4" y1="193.1" x2="823.4" y2="327.5"/>
		<line class="st6" x1="868.3" y1="193.1" x2="868.3" y2="327.5"/>
		<line class="st6" x1="913.2" y1="237.9" x2="778.4" y2="237.9"/>
		<line class="st6" x1="913.2" y1="282.7" x2="778.4" y2="282.7"/>
	</g>
	<g>
		<line class="st7" x1="851.9" y1="242.3" x2="851.9" y2="278.3"/>
		<line class="st7" x1="839.8" y1="242.3" x2="839.8" y2="278.3"/>
		<line class="st7" x1="863.9" y1="266.3" x2="827.8" y2="266.3"/>
		<line class="st7" x1="863.9" y1="254.3" x2="827.8" y2="254.3"/>
	</g>
	<g>
		<line class="st7" x1="806.9" y1="242.3" x2="806.9" y2="278.3"/>
		<line class="st7" x1="794.9" y1="242.3" x2="794.9" y2="278.3"/>
		<line class="st7" x1="819" y1="266.3" x2="782.9" y2="266.3"/>
		<line class="st7" x1="819" y1="254.3" x2="782.9" y2="254.3"/>
	</g>
	<g>
		<line class="st7" x1="896.8" y1="242.3" x2="896.8" y2="278.3"/>
		<line class="st7" x1="884.8" y1="242.3" x2="884.8" y2="278.3"/>
		<line class="st7" x1="908.8" y1="266.3" x2="872.7" y2="266.3"/>
		<line class="st7" x1="908.8" y1="254.3" x2="872.7" y2="254.3"/>
	</g>
	<g>
		<line class="st7" x1="851.9" y1="197.5" x2="851.9" y2="233.5"/>
		<line class="st7" x1="839.8" y1="197.5" x2="839.8" y2="233.5"/>
		<line class="st7" x1="863.9" y1="221.5" x2="827.8" y2="221.5"/>
		<line class="st7" x1="863.9" y1="209.5" x2="827.8" y2="209.5"/>
	</g>
	<g>
		<line class="st7" x1="851.9" y1="287.1" x2="851.9" y2="323.1"/>
		<line class="st7" x1="839.8" y1="287.1" x2="839.8" y2="323.1"/>
		<line class="st7" x1="863.9" y1="311.1" x2="827.8" y2="311.1"/>
		<line class="st7" x1="863.9" y1="299.1" x2="827.8" y2="299.1"/>
	</g>
	<g>
		<line class="st7" x1="806.9" y1="197.5" x2="806.9" y2="233.5"/>
		<line class="st7" x1="794.9" y1="197.5" x2="794.9" y2="233.5"/>
		<line class="st7" x1="819" y1="221.5" x2="782.9" y2="221.5"/>
		<line class="st7" x1="819" y1="209.5" x2="782.9" y2="209.5"/>
	</g>
	<g>
		<line class="st7" x1="896.8" y1="287.1" x2="896.8" y2="323.1"/>
		<line class="st7" x1="884.8" y1="287.1" x2="884.8" y2="323.1"/>
		<line class="st7" x1="908.8" y1="311.1" x2="872.7" y2="311.1"/>
		<line class="st7" x1="908.8" y1="299.1" x2="872.7" y2="299.1"/>
	</g>
	<g>
		<line class="st7" x1="896.8" y1="197.5" x2="896.8" y2="233.5"/>
		<line class="st7" x1="884.8" y1="197.5" x2="884.8" y2="233.5"/>
		<line class="st7" x1="908.8" y1="221.5" x2="872.7" y2="221.5"/>
		<line class="st7" x1="908.8" y1="209.5" x2="872.7" y2="209.5"/>
	</g>
	<g>
		<line class="st7" x1="806.9" y1="287.1" x2="806.9" y2="323.1"/>
		<line class="st7" x1="794.9" y1="287.1" x2="794.9" y2="323.1"/>
		<line class="st7" x1="819" y1="311.1" x2="782.9" y2="311.1"/>
		<line class="st7" x1="819" y1="299.1" x2="782.9" y2="299.1"/>
	</g>
</g>
<ellipse class="st8" cx="800.9" cy="215.5" rx="3.5" ry="3.5"/>
<g>
	<path class="st9" d="M913.2,193.8v133.7h-134V193.8H913.2 M914.8,192.2h-1.6h-134h-1.6v1.6v133.7v1.6h1.6h134.1h1.6v-1.6V193.8
		v-1.6H914.8z"/>
</g>
<g>
	<rect x="1460" y="62.8" class="st1" width="298.5" height="90.7"/>
	<text transform="matrix(1 0 0 1 1477.7925 83.2281)" class="st0 st2 st3">Win a board by getting </text>
	<text transform="matrix(1 0 0 1 1528.6925 119.2281)" class="st0 st2 st3">three in a row.</text>
</g>
<g>
	<g>
		<circle class="st0" cx="1609.2" cy="12.1" r="24.4"/>
	</g>
	<g>
		<path class="st4" d="M1606.8,14.9c0,2.1,1.2,3.4,3,3.4c1.7,0,2.6-1.1,2.6-2.7c0-1.4-0.8-2.6-2.9-2.6h-1.8V9.5h1.8
			c2,0,2.6-1,2.6-2.3c0-1.6-0.9-2.3-2.3-2.3c-1.9,0-2.4,1.2-2.4,2.9h-4.5c0-3.3,2.1-6.3,6.8-6.3c3.7,0,6.9,1.8,6.9,5.4
			c0,2.3-1.3,3.8-2.9,4.4c1.8,0.6,3.2,2.2,3.2,4.7c0,3.7-3.2,5.9-7.2,5.9c-4.6,0-7.4-2.9-7.4-7L1606.8,14.9L1606.8,14.9z"/>
	</g>
</g>
<g>
	<ellipse class="st0" cx="1609.2" cy="260.3" rx="107.9" ry="107.6"/>
	<ellipse class="st10" cx="1609.2" cy="260.3" rx="107.9" ry="107.6"/>
</g>
<g>
	<g>
		<line class="st6" x1="1586.7" y1="193.1" x2="1586.7" y2="327.5"/>
		<line class="st6" x1="1631.7" y1="193.1" x2="1631.7" y2="327.5"/>
		<line class="st6" x1="1676.6" y1="237.9" x2="1541.8" y2="237.9"/>
		<line class="st6" x1="1676.6" y1="282.7" x2="1541.8" y2="282.7"/>
	</g>
	<g>
		<line class="st7" x1="1615.2" y1="242.3" x2="1615.2" y2="278.3"/>
		<line class="st7" x1="1603.2" y1="242.3" x2="1603.2" y2="278.3"/>
		<line class="st7" x1="1627.2" y1="266.3" x2="1591.2" y2="266.3"/>
		<line class="st7" x1="1627.2" y1="254.3" x2="1591.2" y2="254.3"/>
	</g>
	<g>
		<line class="st7" x1="1570.3" y1="242.3" x2="1570.3" y2="278.3"/>
		<line class="st7" x1="1558.3" y1="242.3" x2="1558.3" y2="278.3"/>
		<line class="st7" x1="1582.3" y1="266.3" x2="1546.2" y2="266.3"/>
		<line class="st7" x1="1582.3" y1="254.3" x2="1546.2" y2="254.3"/>
	</g>
	<g>
		<line class="st7" x1="1660.2" y1="242.3" x2="1660.2" y2="278.3"/>
		<line class="st7" x1="1648.1" y1="242.3" x2="1648.1" y2="278.3"/>
		<line class="st7" x1="1672.2" y1="266.3" x2="1636.1" y2="266.3"/>
		<line class="st7" x1="1672.2" y1="254.3" x2="1636.1" y2="254.3"/>
	</g>
	<g>
		<line class="st7" x1="1615.2" y1="197.5" x2="1615.2" y2="233.5"/>
		<line class="st7" x1="1603.2" y1="197.5" x2="1603.2" y2="233.5"/>
		<line class="st7" x1="1627.2" y1="221.5" x2="1591.2" y2="221.5"/>
		<line class="st7" x1="1627.2" y1="209.5" x2="1591.2" y2="209.5"/>
	</g>
	<g>
		<line class="st7" x1="1615.2" y1="287.1" x2="1615.2" y2="323.1"/>
		<line class="st7" x1="1603.2" y1="287.1" x2="1603.2" y2="323.1"/>
		<line class="st7" x1="1627.2" y1="311.1" x2="1591.2" y2="311.1"/>
		<line class="st7" x1="1627.2" y1="299.1" x2="1591.2" y2="299.1"/>
	</g>
	<g>
		<line class="st7" x1="1570.3" y1="197.5" x2="1570.3" y2="233.5"/>
		<line class="st7" x1="1558.3" y1="197.5" x2="1558.3" y2="233.5"/>
		<line class="st7" x1="1582.3" y1="221.5" x2="1546.2" y2="221.5"/>
		<line class="st7" x1="1582.3" y1="209.5" x2="1546.2" y2="209.5"/>
	</g>
	<g>
		<line class="st7" x1="1660.2" y1="287.1" x2="1660.2" y2="323.1"/>
		<line class="st7" x1="1648.1" y1="287.1" x2="1648.1" y2="323.1"/>
		<line class="st7" x1="1672.2" y1="311.1" x2="1636.1" y2="311.1"/>
		<line class="st7" x1="1672.2" y1="299.1" x2="1636.1" y2="299.1"/>
	</g>
	<g>
		<line class="st7" x1="1660.2" y1="197.5" x2="1660.2" y2="233.5"/>
		<line class="st7" x1="1648.1" y1="197.5" x2="1648.1" y2="233.5"/>
		<line class="st7" x1="1672.2" y1="221.5" x2="1636.1" y2="221.5"/>
		<line class="st7" x1="1672.2" y1="209.5" x2="1636.1" y2="209.5"/>
	</g>
	<g>
		<line class="st7" x1="1570.3" y1="287.1" x2="1570.3" y2="323.1"/>
		<line class="st7" x1="1558.3" y1="287.1" x2="1558.3" y2="323.1"/>
		<line class="st7" x1="1582.3" y1="311.1" x2="1546.2" y2="311.1"/>
		<line class="st7" x1="1582.3" y1="299.1" x2="1546.2" y2="299.1"/>
	</g>
</g>
<g>
	<line class="st11" x1="1613.7" y1="255.9" x2="1604.7" y2="264.7"/>
	<line class="st11" x1="1613.7" y1="264.7" x2="1604.7" y2="255.9"/>
</g>
<g>
	<line class="st11" x1="1627" y1="269.2" x2="1618.1" y2="278"/>
	<line class="st11" x1="1627" y1="278" x2="1618.1" y2="269.2"/>
</g>
<g>
	<line class="st11" x1="1601" y1="243.2" x2="1592" y2="252"/>
	<line class="st11" x1="1601" y1="252" x2="1592" y2="243.2"/>
</g>
<g>
	<ellipse class="st12" cx="1564.2" cy="215.5" rx="3.5" ry="3.5"/>
	<ellipse class="st12" cx="1666.7" cy="305.1" rx="3.5" ry="3.5"/>
	<ellipse class="st12" cx="1654.1" cy="247.6" rx="3.5" ry="3.5"/>
	<ellipse class="st12" cx="1621.8" cy="247.6" rx="3.5" ry="3.5"/>
	<ellipse class="st12" cx="1597.3" cy="273.3" rx="3.5" ry="3.5"/>
	<ellipse class="st12" cx="1654.1" cy="215.5" rx="3.5" ry="3.5"/>
	<g class="st13">
		<line class="st14" x1="1671.2" y1="211.1" x2="1662.2" y2="219.9"/>
		<line class="st14" x1="1671.2" y1="219.9" x2="1662.2" y2="211.1"/>
	</g>
	<g class="st13">
		<line class="st14" x1="1658.6" y1="300.7" x2="1649.7" y2="309.5"/>
		<line class="st14" x1="1658.6" y1="309.5" x2="1649.7" y2="300.7"/>
	</g>
	<g class="st13">
		<line class="st14" x1="1627.2" y1="197.7" x2="1618.3" y2="206.5"/>
		<line class="st14" x1="1627.2" y1="206.5" x2="1618.3" y2="197.7"/>
	</g>
</g>
<polygon class="st9" points="1629.2,276.9 1612.6,260.3 1629.1,243.8 1625.7,240.5 1609.2,256.9 1592.9,240.6 1589.5,244 
	1605.8,260.3 1589.3,276.8 1592.7,280.2 1609.2,263.7 1625.8,280.3 "/>
<g>
	<rect x="1846.7" y="62.8" class="st1" width="294.3" height="90.7"/>
	<text transform="matrix(1 0 0 1 1850.3 83.2281)" class="st0 st2 st3">Win the game by winning </text>
	<text transform="matrix(1 0 0 1 1859.8 119.2281)" class="st0 st2 st3">3 small boards in a row. </text>
</g>
<g>
	<g>
		<circle class="st0" cx="1993.9" cy="12.1" r="24.4"/>
	</g>
	<g>
		<path class="st4" d="M1995.2,16.1h-7.8V1.9h4.5v10.4h3.3V6.9h4.5v5.4h2.4v3.8h-2.4v5.4h-4.5V16.1z"/>
	</g>
</g>
<g>
	<ellipse class="st0" cx="1994.4" cy="260.3" rx="107.9" ry="107.6"/>
	<ellipse class="st10" cx="1994.4" cy="260.3" rx="107.9" ry="107.6"/>
</g>
<g>
	<g>
		<line class="st6" x1="1972" y1="193.1" x2="1972" y2="327.5"/>
		<line class="st6" x1="2016.9" y1="193.1" x2="2016.9" y2="327.5"/>
		<line class="st6" x1="2061.8" y1="237.9" x2="1927" y2="237.9"/>
		<line class="st6" x1="2061.8" y1="282.7" x2="1927" y2="282.7"/>
	</g>
	<g>
		<line class="st7" x1="2000.4" y1="242.3" x2="2000.4" y2="278.3"/>
		<line class="st7" x1="1988.4" y1="242.3" x2="1988.4" y2="278.3"/>
		<line class="st7" x1="2012.5" y1="266.3" x2="1976.4" y2="266.3"/>
		<line class="st7" x1="2012.5" y1="254.3" x2="1976.4" y2="254.3"/>
	</g>
	<g>
		<line class="st7" x1="1955.5" y1="242.3" x2="1955.5" y2="278.3"/>
		<line class="st7" x1="1943.5" y1="242.3" x2="1943.5" y2="278.3"/>
		<line class="st7" x1="1967.5" y1="266.3" x2="1931.4" y2="266.3"/>
		<line class="st7" x1="1967.5" y1="254.3" x2="1931.4" y2="254.3"/>
	</g>
	<g>
		<line class="st7" x1="2045.4" y1="242.3" x2="2045.4" y2="278.3"/>
		<line class="st7" x1="2033.3" y1="242.3" x2="2033.3" y2="278.3"/>
		<line class="st7" x1="2057.4" y1="266.3" x2="2021.3" y2="266.3"/>
		<line class="st7" x1="2057.4" y1="254.3" x2="2021.3" y2="254.3"/>
	</g>
	<g>
		<line class="st7" x1="2000.4" y1="197.5" x2="2000.4" y2="233.5"/>
		<line class="st7" x1="1988.4" y1="197.5" x2="1988.4" y2="233.5"/>
		<line class="st7" x1="2012.5" y1="221.5" x2="1976.4" y2="221.5"/>
		<line class="st7" x1="2012.5" y1="209.5" x2="1976.4" y2="209.5"/>
	</g>
	<g>
		<line class="st7" x1="2000.4" y1="287.1" x2="2000.4" y2="323.1"/>
		<line class="st7" x1="1988.4" y1="287.1" x2="1988.4" y2="323.1"/>
		<line class="st7" x1="2012.5" y1="311.1" x2="1976.4" y2="311.1"/>
		<line class="st7" x1="2012.5" y1="299.1" x2="1976.4" y2="299.1"/>
	</g>
	<g>
		<line class="st7" x1="1955.5" y1="197.5" x2="1955.5" y2="233.5"/>
		<line class="st7" x1="1943.5" y1="197.5" x2="1943.5" y2="233.5"/>
		<line class="st7" x1="1967.5" y1="221.5" x2="1931.4" y2="221.5"/>
		<line class="st7" x1="1967.5" y1="209.5" x2="1931.4" y2="209.5"/>
	</g>
	<g>
		<line class="st7" x1="2045.4" y1="287.1" x2="2045.4" y2="323.1"/>
		<line class="st7" x1="2033.3" y1="287.1" x2="2033.3" y2="323.1"/>
		<line class="st7" x1="2057.4" y1="311.1" x2="2021.3" y2="311.1"/>
		<line class="st7" x1="2057.4" y1="299.1" x2="2021.3" y2="299.1"/>
	</g>
	<g>
		<line class="st7" x1="2045.4" y1="197.5" x2="2045.4" y2="233.5"/>
		<line class="st7" x1="2033.3" y1="197.5" x2="2033.3" y2="233.5"/>
		<line class="st7" x1="2057.4" y1="221.5" x2="2021.3" y2="221.5"/>
		<line class="st7" x1="2057.4" y1="209.5" x2="2021.3" y2="209.5"/>
	</g>
	<g>
		<line class="st7" x1="1955.5" y1="287.1" x2="1955.5" y2="323.1"/>
		<line class="st7" x1="1943.5" y1="287.1" x2="1943.5" y2="323.1"/>
		<line class="st7" x1="1967.5" y1="311.1" x2="1931.4" y2="311.1"/>
		<line class="st7" x1="1967.5" y1="299.1" x2="1931.4" y2="299.1"/>
	</g>
</g>
<g>
	<line class="st11" x1="1998.9" y1="255.9" x2="1990" y2="264.7"/>
	<line class="st11" x1="1998.9" y1="264.7" x2="1990" y2="255.9"/>
</g>
<g>
	<line class="st11" x1="2012.2" y1="269.2" x2="2003.3" y2="278"/>
	<line class="st11" x1="2012.2" y1="278" x2="2003.3" y2="269.2"/>
</g>
<g>
	<line class="st11" x1="1986.2" y1="243.2" x2="1977.3" y2="252"/>
	<line class="st11" x1="1986.2" y1="252" x2="1977.3" y2="243.2"/>
</g>
<ellipse class="st12" cx="1949.4" cy="215.5" rx="3.5" ry="3.5"/>
<ellipse class="st12" cx="2051.9" cy="305.1" rx="3.5" ry="3.5"/>
<ellipse class="st12" cx="2039.4" cy="247.6" rx="3.5" ry="3.5"/>
<ellipse class="st12" cx="2007" cy="247.6" rx="3.5" ry="3.5"/>
<ellipse class="st12" cx="1982.5" cy="273.3" rx="3.5" ry="3.5"/>
<ellipse class="st12" cx="2039.4" cy="215.5" rx="3.5" ry="3.5"/>
<g class="st13">
	<line class="st14" x1="2056.4" y1="211.1" x2="2047.5" y2="219.9"/>
	<line class="st14" x1="2056.4" y1="219.9" x2="2047.5" y2="211.1"/>
</g>
<g class="st13">
	<line class="st14" x1="2012.5" y1="197.7" x2="2003.5" y2="206.5"/>
	<line class="st14" x1="2012.5" y1="206.5" x2="2003.5" y2="197.7"/>
</g>
<polygon class="st9" points="2014.4,276.9 1997.8,260.3 2014.3,243.8 2010.9,240.5 1994.4,256.9 1978.1,240.6 1974.7,244 
	1991,260.3 1974.6,276.8 1977.9,280.2 1994.4,263.7 2011,280.3 "/>
<polygon class="st9" points="1969.5,232 1952.9,215.4 1969.3,198.9 1966,195.5 1949.5,212 1933.1,195.6 1929.7,199 1946.1,215.4 
	1929.6,231.9 1933,235.2 1949.5,218.8 1966.1,235.4 "/>
<g>
	<line class="st11" x1="2043.8" y1="314" x2="2034.9" y2="322.8"/>
	<line class="st11" x1="2043.8" y1="322.8" x2="2034.9" y2="314"/>
</g>
<g>
	<line class="st11" x1="2043.8" y1="300.7" x2="2034.9" y2="309.5"/>
	<line class="st11" x1="2043.8" y1="309.5" x2="2034.9" y2="300.7"/>
</g>
<g>
	<line class="st11" x1="2043.8" y1="288" x2="2034.9" y2="296.8"/>
	<line class="st11" x1="2043.8" y1="296.8" x2="2034.9" y2="288"/>
</g>
<g>
	<line class="st11" x1="1966.9" y1="224.1" x2="1958" y2="232.9"/>
	<line class="st11" x1="1966.9" y1="232.9" x2="1958" y2="224.1"/>
</g>
<g>
	<line class="st11" x1="1966.9" y1="198.1" x2="1958" y2="206.9"/>
	<line class="st11" x1="1966.9" y1="206.9" x2="1958" y2="198.1"/>
</g>
<g>
	<line class="st11" x1="1966.9" y1="211.1" x2="1958" y2="219.9"/>
	<line class="st11" x1="1966.9" y1="219.9" x2="1958" y2="211.1"/>
</g>
<polygon class="st9" points="2059.2,321.7 2042.6,305.1 2059.1,288.6 2055.7,285.3 2039.2,301.7 2022.9,285.4 2019.5,288.8 
	2035.8,305.1 2019.4,321.6 2022.8,325 2039.2,308.5 2055.8,325.1 "/>
<g>
	<rect x="1027.1" y="62.8" class="st1" width="402.6" height="90.7"/>
	<text transform="matrix(1 0 0 1 1038.4275 83.2281)" class="st0 st2 st3">The following move is then played </text>
	<text transform="matrix(1 0 0 1 1071.6274 119.2281)" class="st0 st2 st3">in the corresponding board. </text>
</g>
<g>
	<g>
		<circle class="st0" cx="1228.4" cy="12.1" r="24.4"/>
	</g>
	<g>
		<path class="st4" d="M1227.4,11.3c2.3-1.4,4.1-2.2,4.1-4.3c0-1.5-1-2.2-2.2-2.2c-1.4,0-2.5,0.8-2.5,2.9h-4.5
			c0-3.6,2.5-6.3,6.9-6.3c3.7,0,6.8,1.9,6.8,5.7c0,3.4-2.5,5-5.1,6.7s-3.4,2.2-3.4,4h8.4v3.7h-13.6
			C1222.2,15.1,1224.3,13.2,1227.4,11.3z"/>
	</g>
</g>
<g>
	<ellipse class="st0" cx="1228.4" cy="260.3" rx="107.9" ry="107.6"/>
	<ellipse class="st5" cx="1228.4" cy="260.3" rx="107.9" ry="107.6"/>
</g>
<g>
	<g>
		<g>
			<line class="st15" x1="1205.9" y1="192.9" x2="1205.9" y2="327.7"/>
			<line class="st15" x1="1250.9" y1="192.9" x2="1250.9" y2="327.7"/>
			<line class="st15" x1="1296" y1="237.8" x2="1160.8" y2="237.8"/>
			<line class="st15" x1="1296" y1="282.8" x2="1160.8" y2="282.8"/>
		</g>
		<g>
			<line class="st16" x1="1234.4" y1="242.3" x2="1234.4" y2="278.4"/>
			<line class="st16" x1="1222.4" y1="242.3" x2="1222.4" y2="278.4"/>
			<line class="st16" x1="1246.5" y1="266.3" x2="1210.3" y2="266.3"/>
			<line class="st16" x1="1246.5" y1="254.3" x2="1210.3" y2="254.3"/>
		</g>
		<g>
			<line class="st16" x1="1189.4" y1="242.3" x2="1189.4" y2="278.4"/>
			<line class="st16" x1="1177.3" y1="242.3" x2="1177.3" y2="278.4"/>
			<line class="st16" x1="1201.4" y1="266.3" x2="1165.3" y2="266.3"/>
			<line class="st16" x1="1201.4" y1="254.3" x2="1165.3" y2="254.3"/>
		</g>
		<g>
			<line class="st16" x1="1279.5" y1="242.3" x2="1279.5" y2="278.4"/>
			<line class="st16" x1="1267.4" y1="242.3" x2="1267.4" y2="278.4"/>
			<line class="st16" x1="1291.5" y1="266.3" x2="1255.4" y2="266.3"/>
			<line class="st16" x1="1291.5" y1="254.3" x2="1255.4" y2="254.3"/>
		</g>
		<g>
			<line class="st16" x1="1234.4" y1="197.3" x2="1234.4" y2="233.4"/>
			<line class="st16" x1="1222.4" y1="197.3" x2="1222.4" y2="233.4"/>
			<line class="st16" x1="1246.5" y1="221.4" x2="1210.3" y2="221.4"/>
			<line class="st16" x1="1246.5" y1="209.4" x2="1210.3" y2="209.4"/>
		</g>
		<g>
			<line class="st16" x1="1234.4" y1="287.2" x2="1234.4" y2="323.3"/>
			<line class="st16" x1="1222.4" y1="287.2" x2="1222.4" y2="323.3"/>
			<line class="st16" x1="1246.5" y1="311.3" x2="1210.3" y2="311.3"/>
			<line class="st16" x1="1246.5" y1="299.2" x2="1210.3" y2="299.2"/>
		</g>
		<g>
			<line class="st16" x1="1189.4" y1="197.3" x2="1189.4" y2="233.4"/>
			<line class="st16" x1="1177.3" y1="197.3" x2="1177.3" y2="233.4"/>
			<line class="st16" x1="1201.4" y1="221.4" x2="1165.3" y2="221.4"/>
			<line class="st16" x1="1201.4" y1="209.4" x2="1165.3" y2="209.4"/>
		</g>
		<g>
			<line class="st16" x1="1279.5" y1="287.2" x2="1279.5" y2="323.3"/>
			<line class="st16" x1="1267.4" y1="287.2" x2="1267.4" y2="323.3"/>
			<line class="st16" x1="1291.5" y1="311.3" x2="1255.4" y2="311.3"/>
			<line class="st16" x1="1291.5" y1="299.2" x2="1255.4" y2="299.2"/>
		</g>
		<g>
			<line class="st16" x1="1279.5" y1="197.3" x2="1279.5" y2="233.4"/>
			<line class="st16" x1="1267.4" y1="197.3" x2="1267.4" y2="233.4"/>
			<line class="st16" x1="1291.5" y1="221.4" x2="1255.4" y2="221.4"/>
			<line class="st16" x1="1291.5" y1="209.4" x2="1255.4" y2="209.4"/>
		</g>
		<g>
			<line class="st16" x1="1189.4" y1="287.2" x2="1189.4" y2="323.3"/>
			<line class="st16" x1="1177.3" y1="287.2" x2="1177.3" y2="323.3"/>
			<line class="st16" x1="1201.4" y1="311.3" x2="1165.3" y2="311.3"/>
			<line class="st16" x1="1201.4" y1="299.2" x2="1165.3" y2="299.2"/>
		</g>
	</g>
	<ellipse class="st17" cx="1183.3" cy="215.3" rx="3.5" ry="3.5"/>
	<g>
		<line class="st18" x1="1245.5" y1="268.6" x2="1236.6" y2="277.5"/>
		<line class="st18" x1="1245.5" y1="277.5" x2="1236.6" y2="268.6"/>
	</g>
	<g>
		<path class="st9" d="M1250.1,238.6V282h-43.6v-43.4L1250.1,238.6 M1251.7,237h-1.6h-43.6h-1.6v1.6V282v1.6h1.6h43.6h1.6V282v-43.4
			V237L1251.7,237z"/>
	</g>
	<g>
		<path class="st9" d="M1189,209.7V221h-11.4v-11.3H1189 M1190.6,208.1h-1.6h-11.4h-1.6v1.6V221v1.6h1.6h11.4h1.6V221v-11.3V208.1
			L1190.6,208.1z"/>
	</g>
	<g>
		<line class="st19" x1="1190.8" y1="222.7" x2="1197.8" y2="229.8"/>
		<polyline class="st19" points="1200.5,225.2 1200.5,232.5 1193.3,232.5 		"/>
	</g>
</g>
</svg>
