<?xml version="1.0" encoding="utf-8"?>
<!-- Generator: Adobe Illustrator 19.1.0, SVG Export Plug-In . SVG Version: 6.00 Build 0)  -->
<svg version="1.1" id="Layer_1" xmlns="http://www.w3.org/2000/svg" xmlns:xlink="http://www.w3.org/1999/xlink" x="0px" y="0px"
	 viewBox="594 -120 1692 600" style="enable-background:new 594 -120 1692 600;" xml:space="preserve">
<style type="text/css">
	.st0{fill:#FFFFFF;}
</style>
<g>
	<g>
		<path class="st0" d="M1282.2,37h25.2v71.6c0,10,6.8,18.4,17.1,18.4c10.3,0,17.3-8.4,17.3-18.4V37h25.2v71.7
			c0,22.4-16.3,40-42.5,40c-26,0-42.3-17.6-42.3-40V37z"/>
		<path class="st0" d="M1385.8,37h23.8v108.9h-23.8V37z"/>
		<path class="st0" d="M1476.7,145.9c-3.6,0.6-8.7,1.2-16,1.2c-11,0-26.5-1.4-26.5-26.5V88.7h-11.8V70.9h11.8V48.7h23.7v22.3h17.1
			v17.7h-17.1v26.8c0,11.2,4.4,12.8,10.9,12.8c2,0,5.8-0.2,7.9-0.5V145.9z"/>
		<path class="st0" d="M1504.1,30.9c8.7,0,15.4,6.7,15.4,15.1c0,8.2-6.7,15.1-15.4,15.1c-8.6,0-15.2-6.8-15.2-15.1
			C1488.8,37.6,1495.5,30.9,1504.1,30.9z M1492.3,70.9h23.8v75h-23.8V70.9z"/>
		<path class="st0" d="M1633.4,145.9v-40.5c0-10.1-3.4-16.2-11.5-16.2c-7.2,0-12.6,4.5-12.6,19v37.7h-23v-40.6
			c0-10.1-3.3-16-11.4-16c-7.2,0-12.8,4.7-12.8,19.5v37.2h-23v-75h23v10.9c3.3-6.7,10.3-12.8,22.3-12.8c11.2,0,18.8,5.3,22.1,13.5
			c3.7-7.2,11-13.5,24.4-13.5c20.9,0,25.4,15.6,25.4,30.7v46.2H1633.4z"/>
		<path class="st0" d="M1754.3,70.9v75h-23.8v-10.6c-3.7,6.8-12.4,12.4-24,12.4c-19.9,0-35.5-17-35.5-39.4
			c0-22.4,15.6-39.4,35.5-39.4c11,0,19.9,5.3,24,12.6V70.9H1754.3z M1730.5,108.4c0-10.3-7.2-19.1-17.9-19.1s-17.9,8.9-17.9,19.1
			c0,10.4,7.2,19.1,17.9,19.1S1730.5,118.9,1730.5,108.4z"/>
		<path class="st0" d="M1821.4,145.9c-3.6,0.6-8.7,1.2-16,1.2c-11,0-26.5-1.4-26.5-26.5V88.7h-11.8V70.9h11.8V48.7h23.7v22.3h17.1
			v17.7h-17.1v26.8c0,11.2,4.4,12.8,10.9,12.8c2,0,5.8-0.2,7.9-0.5V145.9z"/>
		<path class="st0" d="M1851.7,114.2c0,9,4.2,16.7,16.2,16.7c8.4,0,12.3-3.7,14-8.6h23.3c-2.5,14.2-15.6,25.7-37,25.7
			c-26.3,0-40.5-17.4-40.5-39.5c0-21.9,14-39.5,39.4-39.5c24.1,0,39.1,15.9,39.1,36.7c0,3-0.2,4.5-0.8,8.6H1851.7z M1851.7,100.5
			h31.1c0-9-6.4-14.8-15.6-14.8C1858.4,85.7,1851.7,91,1851.7,100.5z"/>
		<path class="st0" d="M1300.4,219.3h-24.6v-21.8h74.5v21.8h-24.7v87.1h-25.2V219.3z"/>
		<path class="st0" d="M1377.4,191.4c8.7,0,15.4,6.7,15.4,15.1c0,8.2-6.7,15.1-15.4,15.1c-8.6,0-15.2-6.8-15.2-15.1
			C1362.2,198.1,1368.9,191.4,1377.4,191.4z M1365.6,231.4h23.8v75h-23.8V231.4z"/>
		<path class="st0" d="M1462.7,260.8c-0.8-6.4-5.3-11.2-14.2-11.2c-12.3,0-17.3,9-17.3,19.3c0,10.4,5.1,19.3,17.7,19.3
			c8.1,0,11.8-3.6,13.8-10h23.8c-2.2,16.8-15.4,30.2-38.4,30.2c-27.1,0-40.8-18.7-40.8-39.5c0-20.7,13.7-39.5,40.8-39.5
			c24.7,0,36.9,15.6,38.3,31.4H1462.7z"/>
		<path class="st0" d="M1556.5,219.3h-24.6v-21.8h74.5v21.8h-24.7v87.1h-25.2V219.3z"/>
		<path class="st0" d="M1686.3,231.4v75h-23.8v-10.6c-3.7,6.8-12.4,12.4-24,12.4c-19.9,0-35.5-17-35.5-39.4
			c0-22.4,15.6-39.4,35.5-39.4c11,0,19.9,5.3,24,12.6v-10.7H1686.3z M1662.5,268.9c0-10.3-7.2-19.1-17.9-19.1s-17.9,8.9-17.9,19.1
			c0,10.4,7.2,19.1,17.9,19.1S1662.5,279.3,1662.5,268.9z"/>
		<path class="st0" d="M1756.8,260.8c-0.8-6.4-5.3-11.2-14.2-11.2c-12.3,0-17.3,9-17.3,19.3c0,10.4,5.1,19.3,17.7,19.3
			c8.1,0,11.8-3.6,13.8-10h23.8c-2.2,16.8-15.4,30.2-38.4,30.2c-27.1,0-40.8-18.7-40.8-39.5c0-20.7,13.7-39.5,40.8-39.5
			c24.7,0,36.9,15.6,38.3,31.4H1756.8z"/>
		<path class="st0" d="M1850.6,219.3h-24.6v-21.8h74.5v21.8h-24.7v87.1h-25.2V219.3z"/>
		<path class="st0" d="M1895.5,268.9c0-21.5,15.7-39.5,41.7-39.5c26,0,41.5,18.1,41.5,39.5c0,21.5-15.6,39.5-41.5,39.5
			C1911.2,308.4,1895.5,290.4,1895.5,268.9z M1955.1,268.9c0-10.4-7.2-19.1-18.1-19.1c-10.7,0-17.7,8.7-17.7,19.1
			c0,10.6,7,19.1,17.7,19.1C1947.9,288.1,1955.1,279.5,1955.1,268.9z"/>
		<path class="st0" d="M2012.9,274.7c0,9,4.2,16.7,16.2,16.7c8.4,0,12.3-3.7,14-8.6h23.3c-2.5,14.2-15.6,25.7-37,25.7
			c-26.3,0-40.5-17.4-40.5-39.5c0-21.9,14-39.5,39.4-39.5c24.1,0,39.1,15.9,39.1,36.7c0,3-0.2,4.5-0.8,8.6H2012.9z M2012.9,261h31.1
			c0-9-6.4-14.8-15.6-14.8C2019.6,246.2,2012.9,251.5,2012.9,261z"/>
	</g>
	<g>
		<path class="st0" d="M812.9,210.3c0-16.3,11.3-29.1,29.1-29.1h11.6v14.4h-10.4c-9.4,0-15.4,6.4-15.4,14.7c0,8.3,6,14.7,15.4,14.7
			h10.4v14.5H842C824.2,239.5,812.9,226.6,812.9,210.3L812.9,210.3z"/>
		<path class="st0" d="M888.1,239.5c-16.3,0-28.5-13.1-28.5-29.4c0-16.5,12.3-30.3,30-30.3c17.5,0,29.9,13.8,29.9,30.8v29h-14.9v-29
			c0-8.9-6.7-16.3-14.9-16.3c-8.3,0-14.9,7.1-14.9,15.8c0,8.6,6.7,14.9,15.3,14.9h8.6v14.5H888.1L888.1,239.5z"/>
		<polygon class="st0" points="947.5,222.7 947.5,239.5 932.5,239.5 932.5,155.3 947.5,155.3 947.5,202.4 966.6,181.2 987.2,181.2 
			965.4,204 988.4,239.5 969.4,239.5 954.9,214.9 947.5,222.7 		"/>
		<path class="st0" d="M1046.1,215.3c0,14.6-10.1,25.6-25.7,25.6c-15.6,0-25.6-11-25.6-25.6v-48.7h14.9v14.7h26.5v14.4h-26.5v20.1
			c0,5.3,3.3,10.6,10.6,10.6c7.5,0,10.7-5.3,10.7-10.6v-5.3h14.9V215.3L1046.1,215.3z"/>
		<path class="st0" d="M1082,240.8c-16.3,0-25.9-10.7-25.9-26v-33.6h14.9v34c0,3.3,1.1,11.1,11,11.1c6.6,0,11.3-4.6,11.3-11.1v-34
			h14.9v33.6C1108.3,229.6,1097.9,240.8,1082,240.8L1082,240.8z"/>
		<path class="st0" d="M1145,240.8c-14.8,0-25.8-7.8-27.6-20.4h15.2c2,5,8,6.8,12.4,6.8c6,0,10.5-1.8,10.5-5.2c0-3.3-2-4.6-12.2-6.2
			c-10.4-1.6-24.3-4.4-24.3-17.4c0-9.2,8-18.7,24.9-18.7c13.3,0,23.3,7.2,25.2,18.2h-15.5c-0.9-2.7-4.2-4.9-9.7-4.9
			c-6.9,0-9.7,2.5-9.7,4.6c0,3.1,4.3,4.1,11.5,5.2c14.5,2.4,24.9,5.5,24.9,18.2C1170.6,232.7,1160,240.8,1145,240.8L1145,240.8z"/>
		<path class="st0" d="M1093.4,103v36c3.7-4.8,8.7-8.5,14.5-10.6v-25c0-14.8-9.3-25.2-25.1-25.2c-15.3,0-25.4,10.8-25.5,25
			c5.7,2,10.8,5.6,14.5,10.3V103c0-6.4,4.6-10.8,11-10.8C1092.3,92.2,1093.4,99.8,1093.4,103L1093.4,103z"/>
		<path class="st0" d="M1046.8,107.9c15.8,0,25.1,10.4,25.1,25.2v41.1h-14.5v-41.4c0-3.2-1.1-10.8-10.7-10.8c-6.4,0-11,4.4-11,10.8
			v41.4h-14.5v-41.1C1021.3,118.7,1031.4,107.9,1046.8,107.9L1046.8,107.9z"/>
		<path class="st0" d="M1119.2,146.4c9.5,0,10.6,7.6,10.6,10.8v18.7c4-1.5,8.7-2.4,14.1-2.4c0.1,0,0.3,0,0.4,0v-16
			c0-14.8-9.3-25.2-25.1-25.2c-15.4,0-25.5,10.9-25.5,25.2v16.7h14.5v-17C1108.2,150.8,1112.8,146.4,1119.2,146.4L1119.2,146.4z"/>
		<path class="st0" d="M1033.9,261h-4.4v-4.4h8.9v11.5h-1.4l-0.6-1.2c-1.7,1.1-3.7,1.7-5.7,1.7c-5.8,0-10.5-4.9-10.5-10.9
			c0-6,4.8-10.9,10.5-10.9c3.2,0,6.2,1.5,8,3.8l-2.2,2.8c-1.1-1.2-3.2-2.2-4.9-2.2c-3.6,0-6.5,2.8-6.5,6.4c0,3.6,2.9,6.4,6.5,6.4
			c0.8,0,1.6-0.2,2.4-0.5V261L1033.9,261z"/>
		<path class="st0" d="M1060.9,255.2c0-2-1.6-3.6-3.6-3.6c-0.6,0-5.8,0-5.8,0v7.1c0,0,4.8,0,5.8,0
			C1059.3,258.8,1060.9,257.2,1060.9,255.2L1060.9,255.2z M1067,268.1h-6.2l-4.9-4.9c-1.8,0-4.4,0-4.4,0v4.9h-4.4v-20.8
			c0,0,9.2,0,10.2,0c4.4,0,8,3.6,8,8c0,3-1.7,5.6-4.2,7L1067,268.1L1067,268.1z"/>
		<path class="st0" d="M1077.3,257.7c0,3.7,2.4,6.7,5.3,6.7c3,0,5.3-3,5.3-6.7c0-3.7-2.4-6.7-5.3-6.7
			C1079.7,251,1077.3,254,1077.3,257.7L1077.3,257.7z M1092.5,257.7c0,6-4.4,10.9-9.9,10.9c-5.5,0-9.9-4.8-9.9-10.9
			c0-6,4.5-10.9,9.9-10.9C1088.1,246.8,1092.5,251.6,1092.5,257.7L1092.5,257.7z"/>
		<path class="st0" d="M1104.7,247.3v12.4c0,2.4,2,4.4,4.4,4.4c2.4,0,4.4-2,4.4-4.4v-12.4h4.5v12.4c0,4.9-4,8.9-8.9,8.9
			c-4.9,0-8.9-4-8.9-8.9v-12.4H1104.7L1104.7,247.3z"/>
		<path class="st0" d="M1140.6,255.2c0-2-1.6-3.6-3.6-3.6c-0.6,0-5.8,0-5.8,0v7.1c0,0,4.8,0,5.8,0
			C1139,258.8,1140.6,257.2,1140.6,255.2L1140.6,255.2z M1145.1,255.2c0,4.4-3.6,8-8,8c-1.1,0-5.8,0-5.8,0v4.9h-4.4v-20.8
			c0,0,9.2,0,10.2,0C1141.5,247.3,1145.1,250.8,1145.1,255.2L1145.1,255.2z"/>
	</g>
	<g>
		<rect x="1222.2" y="36.6" class="st0" width="3" height="270"/>
	</g>
</g>
</svg>
