<?xml version="1.0" encoding="utf-8"?>
<!-- Generator: Adobe Illustrator 19.1.0, SVG Export Plug-In . SVG Version: 6.00 Build 0)  -->
<svg version="1.1" id="Layer_1" xmlns="http://www.w3.org/2000/svg" xmlns:xlink="http://www.w3.org/1999/xlink" x="0px" y="0px"
	 viewBox="574 -188.8 1692 600" style="enable-background:new 574 -188.8 1692 600;" xml:space="preserve">
<style type="text/css">
	.st0{fill:#FFFFFF;}
</style>
<g>
	<g>
		<path class="st0" d="M1373.6,15.7h17.8v50.5c0,7,4.8,13,12.1,13c7.2,0,12.2-5.9,12.2-13V15.7h17.8v50.6c0,15.8-11.5,28.2-30,28.2
			c-18.3,0-29.9-12.4-29.9-28.2L1373.6,15.7L1373.6,15.7z"/>
		<path class="st0" d="M1446.8,15.7h16.8v76.9h-16.8V15.7z"/>
		<path class="st0" d="M1510.9,92.6c-2.5,0.4-6.1,0.9-11.3,0.9c-7.8,0-18.7-1-18.7-18.7V52.2h-8.3V39.7h8.3V24h16.7v15.7h12.1v12.5
			h-12.1v18.9c0,7.9,3.1,9,7.7,9c1.4,0,4.1-0.1,5.6-0.3V92.6z"/>
		<path class="st0" d="M1530.2,11.4c6.1,0,10.9,4.7,10.9,10.7c0,5.8-4.7,10.7-10.9,10.7c-6,0-10.8-4.8-10.8-10.7
			S1524.2,11.4,1530.2,11.4z M1521.8,39.7h16.8v52.9h-16.8V39.7z"/>
		<path class="st0" d="M1621.4,92.6V64.1c0-7.1-2.4-11.4-8.1-11.4c-5.1,0-8.9,3.2-8.9,13.4v26.6h-16.3V64c0-7.1-2.3-11.3-8-11.3
			c-5.1,0-9,3.3-9,13.7v26.2h-16.3V39.7h16.3v7.7c2.3-4.7,7.2-9,15.7-9c7.9,0,13.3,3.7,15.6,9.6c2.6-5.1,7.8-9.6,17.2-9.6
			c14.7,0,17.9,11,17.9,21.6v32.6L1621.4,92.6L1621.4,92.6z"/>
		<path class="st0" d="M1706.7,39.7v52.9h-16.8v-7.5c-2.6,4.8-8.8,8.8-16.9,8.8c-14.1,0-25-12-25-27.8s11-27.8,25-27.8
			c7.8,0,14.1,3.7,16.9,8.9v-7.6h16.8V39.7z M1689.9,66.1c0-7.2-5.1-13.5-12.6-13.5s-12.6,6.3-12.6,13.5c0,7.4,5.1,13.5,12.6,13.5
			S1689.9,73.5,1689.9,66.1z"/>
		<path class="st0" d="M1754.1,92.6c-2.5,0.4-6.1,0.9-11.3,0.9c-7.8,0-18.7-1-18.7-18.7V52.2h-8.3V39.7h8.3V24h16.7v15.7h12.1v12.5
			h-12.1v18.9c0,7.9,3.1,9,7.7,9c1.4,0,4.1-0.1,5.6-0.3L1754.1,92.6L1754.1,92.6z"/>
		<path class="st0" d="M1775.5,70.2c0,6.4,3,11.7,11.4,11.7c5.9,0,8.7-2.6,9.9-6h16.5c-1.8,10-11,18.1-26.1,18.1
			c-18.6,0-28.5-12.3-28.5-27.9c0-15.5,9.9-27.9,27.8-27.9c17,0,27.6,11.2,27.6,25.9c0,2.1-0.1,3.2-0.5,6L1775.5,70.2L1775.5,70.2z
			 M1775.5,60.5h22c0-6.4-4.5-10.4-11-10.4C1780.2,50.1,1775.5,53.8,1775.5,60.5z"/>
		<path class="st0" d="M1386.5,144.3h-17.3v-15.4h52.6v15.4h-17.5v61.5h-17.8V144.3z"/>
		<path class="st0" d="M1440.8,124.7c6.1,0,10.9,4.7,10.9,10.7c0,5.8-4.7,10.7-10.9,10.7c-6,0-10.8-4.8-10.8-10.7
			C1430.1,129.4,1434.8,124.7,1440.8,124.7z M1432.5,152.9h16.8v52.9h-16.8V152.9z"/>
		<path class="st0" d="M1501,173.6c-0.5-4.5-3.7-7.9-10-7.9c-8.7,0-12.2,6.4-12.2,13.6c0,7.4,3.6,13.6,12.5,13.6
			c5.7,0,8.3-2.5,9.8-7h16.8c-1.5,11.9-10.9,21.3-27.1,21.3c-19.1,0-28.8-13.2-28.8-27.9c0-14.6,9.7-27.9,28.8-27.9
			c17.5,0,26,11,27,22.2L1501,173.6L1501,173.6z"/>
		<path class="st0" d="M1567.2,144.3h-17.3v-15.4h52.6v15.4H1585v61.5h-17.8V144.3z"/>
		<path class="st0" d="M1658.8,152.9v52.9H1642v-7.5c-2.6,4.8-8.8,8.8-16.9,8.8c-14.1,0-25-12-25-27.8s11-27.8,25-27.8
			c7.8,0,14.1,3.7,16.9,8.9v-7.6h16.8V152.9z M1642,179.3c0-7.2-5.1-13.5-12.6-13.5s-12.6,6.3-12.6,13.5c0,7.4,5.1,13.5,12.6,13.5
			S1642,186.7,1642,179.3z"/>
		<path class="st0" d="M1708.5,173.6c-0.5-4.5-3.7-7.9-10-7.9c-8.7,0-12.2,6.4-12.2,13.6c0,7.4,3.6,13.6,12.5,13.6
			c5.7,0,8.3-2.5,9.8-7h16.8c-1.5,11.9-10.9,21.3-27.1,21.3c-19.1,0-28.8-13.2-28.8-27.9c0-14.6,9.7-27.9,28.8-27.9
			c17.5,0,26,11,27,22.2L1708.5,173.6L1708.5,173.6z"/>
		<path class="st0" d="M1774.7,144.3h-17.3v-15.4h52.6v15.4h-17.5v61.5h-17.8L1774.7,144.3L1774.7,144.3z"/>
		<path class="st0" d="M1806.3,179.3c0-15.2,11.1-27.9,29.4-27.9s29.3,12.7,29.3,27.9c0,15.2-11,27.9-29.3,27.9
			S1806.3,194.5,1806.3,179.3z M1848.4,179.3c0-7.4-5.1-13.5-12.7-13.5s-12.5,6.1-12.5,13.5c0,7.5,4.9,13.5,12.5,13.5
			C1843.3,192.9,1848.4,186.8,1848.4,179.3z"/>
		<path class="st0" d="M1889.2,183.4c0,6.4,3,11.7,11.4,11.7c5.9,0,8.7-2.6,9.9-6h16.5c-1.8,10-11,18.1-26.1,18.1
			c-18.6,0-28.5-12.3-28.5-27.9c0-15.5,9.9-27.9,27.8-27.9c17,0,27.6,11.2,27.6,25.9c0,2.1-0.1,3.2-0.5,6L1889.2,183.4L1889.2,183.4
			z M1889.2,173.7h22c0-6.4-4.5-10.4-11-10.4C1893.9,163.3,1889.2,167,1889.2,173.7z"/>
	</g>
</g>
<g>
	<path class="st0" d="M906.9,148.2c0-16.3,11.3-29.1,29.1-29.1h11.6v14.4h-10.4c-9.4,0-15.4,6.4-15.4,14.7c0,8.3,6,14.7,15.4,14.7
		h10.4v14.5H936C918.2,177.4,906.9,164.5,906.9,148.2L906.9,148.2z"/>
	<path class="st0" d="M982.1,177.4c-16.3,0-28.5-13.1-28.5-29.4c0-16.5,12.3-30.3,30-30.3c17.5,0,29.9,13.8,29.9,30.8v29h-14.9v-29
		c0-8.9-6.7-16.3-14.9-16.3c-8.3,0-14.9,7.1-14.9,15.8c0,8.6,6.7,14.9,15.3,14.9h8.6v14.5H982.1L982.1,177.4z"/>
	<polygon class="st0" points="1041.5,160.6 1041.5,177.4 1026.5,177.4 1026.5,93.2 1041.5,93.2 1041.5,140.3 1060.6,119.1 
		1081.2,119.1 1059.4,141.9 1082.4,177.4 1063.4,177.4 1048.9,152.8 	"/>
	<path class="st0" d="M1140.1,153.2c0,14.6-10.1,25.6-25.7,25.6c-15.6,0-25.6-11-25.6-25.6v-48.8h14.9v14.7h26.5v14.4h-26.5v20.1
		c0,5.3,3.3,10.6,10.6,10.6c7.5,0,10.7-5.3,10.7-10.6v-5.3h14.9v4.9H1140.1z"/>
	<path class="st0" d="M1176,178.7c-16.3,0-25.9-10.7-25.9-26v-33.6h14.9v34c0,3.3,1.1,11.1,11,11.1c6.6,0,11.3-4.6,11.3-11.1v-34
		h14.9v33.6C1202.3,167.5,1191.9,178.7,1176,178.7L1176,178.7z"/>
	<path class="st0" d="M1239,178.7c-14.8,0-25.8-7.8-27.6-20.4h15.2c2,5,8,6.8,12.4,6.8c6,0,10.5-1.8,10.5-5.2c0-3.3-2-4.6-12.2-6.2
		c-10.4-1.6-24.3-4.4-24.3-17.4c0-9.2,8-18.7,24.9-18.7c13.3,0,23.3,7.2,25.2,18.2h-15.5c-0.9-2.7-4.2-4.9-9.7-4.9
		c-6.9,0-9.7,2.5-9.7,4.6c0,3.1,4.3,4.1,11.5,5.2c14.5,2.4,24.9,5.5,24.9,18.2C1264.6,170.6,1254,178.7,1239,178.7L1239,178.7z"/>
	<path class="st0" d="M1187.4,40.8v36c3.7-4.8,8.7-8.5,14.5-10.6v-25c0-14.8-9.3-25.2-25.1-25.2c-15.3,0-25.4,10.8-25.5,25
		c5.7,2,10.8,5.6,14.5,10.3V40.9c0-6.4,4.6-10.8,11-10.8C1186.3,30.1,1187.4,37.7,1187.4,40.8L1187.4,40.8z"/>
	<path class="st0" d="M1140.8,45.8c15.8,0,25.1,10.4,25.1,25.2v41.1h-14.5V70.7c0-3.2-1.1-10.8-10.7-10.8c-6.4,0-11,4.4-11,10.8
		v41.4h-14.5V71C1115.3,56.6,1125.4,45.8,1140.8,45.8L1140.8,45.8z"/>
	<path class="st0" d="M1213.2,84.3c9.5,0,10.6,7.6,10.6,10.8v18.7c4-1.5,8.7-2.4,14.1-2.4c0.1,0,0.3,0,0.4,0v-16
		c0-14.8-9.3-25.2-25.1-25.2c-15.4,0-25.5,10.9-25.5,25.2v16.7h14.5v-17C1202.2,88.7,1206.8,84.3,1213.2,84.3L1213.2,84.3z"/>
	<path class="st0" d="M1127.9,198.9h-4.4v-4.5h8.9v11.5h-1.4l-0.6-1.2c-1.7,1.1-3.7,1.7-5.7,1.7c-5.8,0-10.5-4.9-10.5-10.9
		s4.8-10.9,10.5-10.9c3.2,0,6.2,1.5,8,3.8l-2.2,2.8c-1.1-1.2-3.2-2.2-4.9-2.2c-3.6,0-6.5,2.8-6.5,6.4s2.9,6.4,6.5,6.4
		c0.8,0,1.6-0.2,2.4-0.5L1127.9,198.9L1127.9,198.9z"/>
	<path class="st0" d="M1154.9,193.1c0-2-1.6-3.6-3.6-3.6c-0.6,0-5.8,0-5.8,0v7.1c0,0,4.8,0,5.8,0
		C1153.3,196.7,1154.9,195.1,1154.9,193.1L1154.9,193.1z M1161,206h-6.2l-4.9-4.9c-1.8,0-4.4,0-4.4,0v4.9h-4.4v-20.8
		c0,0,9.2,0,10.2,0c4.4,0,8,3.6,8,8c0,3-1.7,5.6-4.2,7L1161,206L1161,206z"/>
	<path class="st0" d="M1171.3,195.6c0,3.7,2.4,6.7,5.3,6.7c3,0,5.3-3,5.3-6.7s-2.4-6.7-5.3-6.7S1171.3,191.9,1171.3,195.6
		L1171.3,195.6z M1186.5,195.6c0,6-4.4,10.9-9.9,10.9s-9.9-4.8-9.9-10.9c0-6,4.5-10.9,9.9-10.9
		C1182.1,184.7,1186.5,189.5,1186.5,195.6L1186.5,195.6z"/>
	<path class="st0" d="M1198.7,185.1v12.4c0,2.4,2,4.4,4.4,4.4c2.4,0,4.4-2,4.4-4.4v-12.4h4.5v12.4c0,4.9-4,8.9-8.9,8.9
		c-4.9,0-8.9-4-8.9-8.9v-12.4H1198.7L1198.7,185.1z"/>
	<path class="st0" d="M1234.6,193.1c0-2-1.6-3.6-3.6-3.6c-0.6,0-5.8,0-5.8,0v7.1c0,0,4.8,0,5.8,0
		C1233,196.7,1234.6,195.1,1234.6,193.1L1234.6,193.1z M1239.1,193.1c0,4.4-3.6,8-8,8c-1.1,0-5.8,0-5.8,0v4.9h-4.4v-20.8
		c0,0,9.2,0,10.2,0C1235.5,185.1,1239.1,188.7,1239.1,193.1L1239.1,193.1z"/>
</g>
<g>
	<rect x="1316.4" y="-1.8" class="st0" width="2.7" height="225.9"/>
</g>
</svg>
