<?xml version="1.0" encoding="utf-8"?>
<!-- Generator: Adobe Illustrator 19.1.0, SVG Export Plug-In . SVG Version: 6.00 Build 0)  -->
<svg version="1.1" id="Layer_1" xmlns="http://www.w3.org/2000/svg" xmlns:xlink="http://www.w3.org/1999/xlink" x="0px" y="0px"
	 viewBox="574 -188.8 1692 600" style="enable-background:new 574 -188.8 1692 600;" xml:space="preserve">
<style type="text/css">
	.st0{fill:#FFFFFF;}
</style>
<g>
	<path class="st0" d="M956.3,28.6h12.3v34.9c0,4.9,3.3,9,8.4,9c5,0,8.4-4.1,8.4-9V28.6h12.3v35c0,10.9-8,19.5-20.7,19.5
		s-20.7-8.6-20.7-19.5L956.3,28.6L956.3,28.6z"/>
	<path class="st0" d="M1037.8,71.1c0,8.6-7.6,11.7-16.3,11.7c-10.8,0-17.1-4.7-17.1-13.2h11.4c0,3.9,2.4,5.4,5.8,5.4
		c2.8,0,4.8-1,4.8-3.4c0-2.8-2.9-3.3-9.8-5.5c-6.3-2-11.3-3.9-11.3-10.6c0-7.7,6.5-11.2,15.7-11.2c11.3,0,16.3,5.4,16.3,12.4h-11.5
		c0-3-1.6-4.8-4.7-4.8c-2.4,0-4.4,1.1-4.4,3.2c0,2.7,3.2,3.2,9.3,5.2C1032.5,62.1,1037.8,63.9,1037.8,71.1z"/>
	<path class="st0" d="M1052.7,25.7c4.3,0,7.5,3.3,7.5,7.4c0,4-3.3,7.4-7.5,7.4c-4.2,0-7.4-3.3-7.4-7.4
		C1045.3,28.9,1048.5,25.7,1052.7,25.7z M1046.9,45.2h11.6v36.6h-11.6V45.2z"/>
	<path class="st0" d="M1069.8,45.2h11.6v5.3c2.1-3.9,6.3-6.2,12.1-6.2c5,0,8.2,1.7,10.2,4.2c2.3,2.8,2.9,6.4,2.9,11.6v21.7H1095V63
		c0-5.2-1.6-8.9-6.4-8.9s-7.1,3.6-7.1,9.3v18.4h-11.6L1069.8,45.2L1069.8,45.2z"/>
	<path class="st0" d="M1154.3,81.6c0,12.5-6.5,17.8-20,17.8c-15,0-19.9-6.6-20.3-14.7h11.6c0.4,3.3,2.8,6.2,8.3,6.2
		c5.1,0,8.7-2.5,8.7-8.5v-5.8c-1.9,3.1-5.8,5.7-11.6,5.7c-9.9,0-17.5-7.7-17.5-18.8c0-10.9,7.3-19.1,17.4-19.1
		c5.1,0,9.5,2.1,11.7,6.2v-5.2h11.6v36.2H1154.3z M1125.2,63.5c0,5.1,3.5,9.3,8.7,9.3s8.7-4.2,8.7-9.3c0-5-3.5-9.3-8.7-9.3
		C1128.6,54.2,1125.2,58.6,1125.2,63.5z"/>
	<path class="st0" d="M1202.1,28.6c17.6,0,27.6,13,27.6,26.6s-9.9,26.6-27.6,26.6h-19.5V28.6H1202.1z M1194.9,39.3v31.9h6.6
		c9.9,0,15.7-7.7,15.7-15.9s-5.8-15.9-15.7-15.9h-6.6V39.3z"/>
	<path class="st0" d="M1250.4,87.5c0,9.6-4.5,11.8-10,11.8c-2.6,0-6.2-0.5-7.6-0.9v-8.7c1.4,0.4,2.1,0.5,2.8,0.5
		c2.2,0,3.2-0.9,3.2-3.6V45.3h11.6V87.5z M1244.5,25.7c4.3,0,7.5,3.3,7.5,7.4c0,4-3.3,7.4-7.5,7.4s-7.4-3.3-7.4-7.4
		C1237.1,28.9,1240.3,25.7,1244.5,25.7z"/>
	<path class="st0" d="M1299.9,45.2v36.6h-11.6v-5.2c-1.8,3.3-6.1,6.1-11.7,6.1c-9.7,0-17.3-8.3-17.3-19.2c0-10.9,7.6-19.2,17.3-19.2
		c5.4,0,9.7,2.6,11.7,6.2v-5.2L1299.9,45.2L1299.9,45.2z M1288.3,63.5c0-5-3.5-9.3-8.7-9.3s-8.7,4.3-8.7,9.3c0,5.1,3.5,9.3,8.7,9.3
		S1288.3,68.6,1288.3,63.5z"/>
	<path class="st0" d="M1309.8,45.2h11.6v5.3c2.1-3.9,6.3-6.2,12.1-6.2c5,0,8.2,1.7,10.2,4.2c2.3,2.8,2.9,6.4,2.9,11.6v21.7H1335V63
		c0-5.2-1.6-8.9-6.4-8.9s-7.1,3.6-7.1,9.3v18.4h-11.6L1309.8,45.2L1309.8,45.2z"/>
	<path class="st0" d="M1394.3,81.6c0,12.5-6.5,17.8-20,17.8c-15,0-19.9-6.6-20.3-14.7h11.6c0.4,3.3,2.8,6.2,8.3,6.2
		c5.1,0,8.7-2.5,8.7-8.5v-5.8c-1.9,3.1-5.8,5.7-11.6,5.7c-9.9,0-17.5-7.7-17.5-18.8c0-10.9,7.3-19.1,17.4-19.1
		c5.1,0,9.5,2.1,11.7,6.2v-5.2h11.6v36.2H1394.3z M1365.2,63.5c0,5.1,3.5,9.3,8.7,9.3s8.7-4.2,8.7-9.3c0-5-3.5-9.3-8.7-9.3
		C1368.6,54.2,1365.2,58.6,1365.2,63.5z"/>
	<path class="st0" d="M1401.4,63.5c0-10.5,7.7-19.3,20.4-19.3s20.3,8.8,20.3,19.3s-7.6,19.3-20.3,19.3S1401.4,74,1401.4,63.5z
		 M1430.5,63.5c0-5.1-3.5-9.3-8.8-9.3c-5.2,0-8.7,4.3-8.7,9.3c0,5.2,3.4,9.3,8.7,9.3C1427,72.8,1430.5,68.7,1430.5,63.5z"/>
	<path class="st0" d="M1454.8,67.3c4.7,0,8.2,3.5,8.2,10.9c0,9.8-6,14.6-15.8,14.6v-4.7c3.3,0,5.5-0.8,6.9-2
		c1.1-0.9,2.1-2.5,2.3-4.3c-0.2,0.2-1,0.6-2.4,0.6c-4.1,0-7.2-3.4-7.2-7.5S1450,67.3,1454.8,67.3z"/>
	<path class="st0" d="M1521.7,81.8l-2-6.5h-18.9l-2,6.5h-13.1l19-53.2h11.3l19.2,53.2H1521.7z M1510.2,43.8l-6.5,21.9h12.9
		L1510.2,43.8z"/>
	<path class="st0" d="M1540.3,45.2h11.6v5.3c2.1-3.9,6.3-6.2,12.1-6.2c5,0,8.2,1.7,10.2,4.2c2.3,2.8,2.9,6.4,2.9,11.6v21.7h-11.6V63
		c0-5.2-1.6-8.9-6.4-8.9s-7.1,3.6-7.1,9.3v18.4h-11.6L1540.3,45.2L1540.3,45.2z"/>
	<path class="st0" d="M1624.8,81.6c0,12.5-6.5,17.8-20,17.8c-15,0-19.9-6.6-20.3-14.7h11.6c0.4,3.3,2.8,6.2,8.3,6.2
		c5.1,0,8.7-2.5,8.7-8.5v-5.8c-1.9,3.1-5.8,5.7-11.6,5.7c-9.9,0-17.5-7.7-17.5-18.8c0-10.9,7.3-19.1,17.4-19.1
		c5.1,0,9.5,2.1,11.7,6.2v-5.2h11.6v36.2H1624.8z M1595.7,63.5c0,5.1,3.5,9.3,8.7,9.3c5.2,0,8.7-4.2,8.7-9.3c0-5-3.5-9.3-8.7-9.3
		C1599.2,54.2,1595.7,58.6,1595.7,63.5z"/>
	<path class="st0" d="M1670.7,45.2v36.6h-11.6v-5.2c-2.1,3.9-6.3,6.2-12.1,6.2c-5,0-8.2-1.7-10.2-4.2c-2.3-2.8-2.8-6.4-2.8-11.6
		V45.3h11.5v18.8c0,5.2,1.6,8.9,6.5,8.9c4.8,0,7.1-3.6,7.1-9.3V45.3L1670.7,45.2L1670.7,45.2z"/>
	<path class="st0" d="M1680.6,28.6h11.6v53.2h-11.6V28.6z"/>
	<path class="st0" d="M1740.4,45.2v36.6h-11.6v-5.2c-1.8,3.3-6.1,6.1-11.7,6.1c-9.7,0-17.3-8.3-17.3-19.2c0-10.9,7.6-19.2,17.3-19.2
		c5.4,0,9.7,2.6,11.7,6.2v-5.2L1740.4,45.2L1740.4,45.2z M1728.8,63.5c0-5-3.5-9.3-8.7-9.3s-8.7,4.3-8.7,9.3c0,5.1,3.5,9.3,8.7,9.3
		S1728.8,68.6,1728.8,63.5z"/>
	<path class="st0" d="M1776.5,55.7c-1.6-0.4-2.6-0.5-3.9-0.5c-6.5,0-10.7,3.3-10.7,12.3v14.3h-11.6V45.2h11.6v5.9
		c1.7-3.4,6-6.5,11.3-6.5c1.2,0,2.3,0.2,3.3,0.6L1776.5,55.7L1776.5,55.7z"/>
	<path class="st0" d="M1835.2,63.5c0,12.6-7.4,19.6-19.2,19.6c-13.1,0-19.6-8.6-19.6-19.7h12.3c0,5.2,2.3,9.1,7.1,9.1
		c4.6,0,7.1-3.4,7.1-9V28.6h12.2L1835.2,63.5L1835.2,63.5z"/>
	<path class="st0" d="M1854.9,64.2c0,5.8,3.6,9.2,8.4,9.2c4.1,0,7.1-2.5,7.1-6.2c0-4.2-3.6-5.7-8.3-7.4c-9.4-3.5-18-6.7-18-17
		c0-10.6,9-15.4,18.8-15.4c12.5,0,18.8,7.9,18.8,16.9h-12.3c0-4.7-2.4-7.7-6.7-7.7c-3.4,0-6.4,1.9-6.4,5.4c0,3.4,2.8,5.4,7.6,7.1
		c9.4,3.3,18.7,6.6,18.7,17.5c0,10.3-8.3,16.7-19.7,16.7c-11.8,0-20.4-6.8-20.4-19h12.4V64.2z"/>
	<path class="st0" d="M805.3,189.7l-2.1-6.5h-18.9l-2,6.5h-13.1l19-53.2h11.3l19.2,53.2H805.3z M793.8,151.7l-6.5,21.9h12.9
		L793.8,151.7z"/>
	<path class="st0" d="M824.1,136.5h12.5v53.2h-12.5V136.5z"/>
	<path class="st0" d="M876.6,189.7H865v-53.2h11.6v21.8c1.8-3.3,6.1-6.2,11.8-6.2c9.7,0,17.3,8.2,17.3,19.2
		c0,10.9-7.5,19.2-17.4,19.2c-5.8,0-10-3-11.7-6.1V189.7L876.6,189.7z M894.1,171.4c0-4.9-3.4-9.3-8.7-9.3c-5.2,0-8.7,4.3-8.7,9.3
		c0,5.2,3.6,9.3,8.7,9.3C890.6,180.7,894.1,176.5,894.1,171.4z"/>
	<path class="st0" d="M949.6,153.1v36.6H938v-5.2c-2.1,3.9-6.3,6.2-12.1,6.2c-5,0-8.2-1.7-10.2-4.2c-2.3-2.8-2.8-6.4-2.8-11.6v-21.7
		h11.5V172c0,5.2,1.6,8.9,6.5,8.9c4.8,0,7.1-3.6,7.1-9.3v-18.4L949.6,153.1L949.6,153.1z"/>
	<path class="st0" d="M966.6,133.6c4.3,0,7.5,3.3,7.5,7.4c0,4-3.3,7.4-7.5,7.4c-4.2,0-7.4-3.3-7.4-7.4S962.4,133.6,966.6,133.6z
		 M960.8,153.1h11.6v36.6h-11.6V153.1z"/>
	<path class="st0" d="M983.7,136.5h11.6v53.2h-11.6V136.5z"/>
	<path class="st0" d="M1028,189.7c-1.7,0.3-4.3,0.6-7.8,0.6c-5.4,0-12.9-0.7-12.9-12.9v-15.6h-5.8v-8.7h5.8v-10.9h11.5v10.9h8.4v8.7
		h-8.4v13.1c0,5.5,2.1,6.2,5.3,6.2c1,0,2.8-0.1,3.9-0.2V189.7z"/>
	<path class="st0" d="M1078.3,166.4l-7.5,23.3h-9.4l-13.7-36.6h12l6.8,21.8l6.5-21.8h10.7l6.5,21.8l6.8-21.8h12l-13.7,36.6h-9.4
		L1078.3,166.4z"/>
	<path class="st0" d="M1135.9,128.6l10.9,4.6l-26.7,62l-10.9-4.6L1135.9,128.6z"/>
	<path class="st0" d="M1226,189.7h-12v-33l-11.5,33h-9.1l-11.8-33v33h-12v-53.2h14.2l14.2,37l14-37h14V189.7L1226,189.7z"/>
	<path class="st0" d="M1233.5,171.4c0-10.5,7.7-19.3,20.4-19.3s20.3,8.8,20.3,19.3s-7.6,19.3-20.3,19.3S1233.5,181.9,1233.5,171.4z
		 M1262.6,171.4c0-5.1-3.5-9.3-8.8-9.3c-5.2,0-8.7,4.3-8.7,9.3c0,5.2,3.4,9.3,8.7,9.3C1259.1,180.7,1262.6,176.6,1262.6,171.4z"/>
	<path class="st0" d="M1281.5,153.1h11.6v5.3c2.1-3.9,6.3-6.2,12.1-6.2c5,0,8.2,1.7,10.2,4.2c2.3,2.8,2.9,6.4,2.9,11.6v21.7h-11.6
		v-18.8c0-5.2-1.6-8.9-6.4-8.9s-7.1,3.6-7.1,9.3v18.4h-11.6v-36.6H1281.5z"/>
	<path class="st0" d="M1350.5,189.7c-1.7,0.3-4.3,0.6-7.8,0.6c-5.4,0-12.9-0.7-12.9-12.9v-15.6h-5.8v-8.7h5.8v-10.9h11.5v10.9h8.4
		v8.7h-8.4v13.1c0,5.5,2.1,6.2,5.3,6.2c1,0,2.8-0.1,3.9-0.2V189.7z"/>
	<path class="st0" d="M1365.3,174.2c0,4.4,2.1,8.1,7.9,8.1c4.1,0,6-1.8,6.8-4.2h11.4c-1.2,6.9-7.6,12.5-18.1,12.5
		c-12.8,0-19.7-8.5-19.7-19.3c0-10.7,6.8-19.3,19.2-19.3c11.8,0,19.1,7.7,19.1,17.9c0,1.4-0.1,2.2-0.4,4.2L1365.3,174.2
		L1365.3,174.2z M1365.3,167.5h15.2c0-4.4-3.1-7.2-7.6-7.2C1368.5,160.3,1365.3,162.9,1365.3,167.5z"/>
	<path class="st0" d="M1470.7,170.6c-2.1,11.2-11.7,20.4-26.6,20.4c-17.8,0-28.5-13.1-28.5-27.9c0-14.6,10.2-27.9,28.3-27.9
		c15.6,0,25.2,9.8,26.7,22h-12.8c-1.1-6.2-5.8-10.9-13.7-10.9c-10.2,0-15.9,8-15.9,16.9c0,9.3,6.5,16.9,16.1,16.9
		c7.1,0,11.8-4.1,13.4-9.3h13V170.6z"/>
	<path class="st0" d="M1516.4,153.1v36.6h-11.6v-5.2c-1.8,3.3-6.1,6.1-11.7,6.1c-9.7,0-17.3-8.3-17.3-19.2
		c0-10.9,7.6-19.2,17.3-19.2c5.4,0,9.7,2.6,11.7,6.2v-5.2L1516.4,153.1L1516.4,153.1z M1504.8,171.4c0-5-3.5-9.3-8.7-9.3
		s-8.7,4.3-8.7,9.3c0,5.1,3.5,9.3,8.7,9.3S1504.8,176.5,1504.8,171.4z"/>
	<path class="st0" d="M1552.5,163.7c-1.6-0.4-2.6-0.5-3.9-0.5c-6.5,0-10.7,3.3-10.7,12.3v14.3h-11.6v-36.6h11.6v5.9
		c1.7-3.4,6-6.5,11.3-6.5c1.2,0,2.3,0.2,3.3,0.6V163.7L1552.5,163.7z"/>
	<path class="st0" d="M1557.9,136.5h11.6v53.2h-11.6V136.5z"/>
	<path class="st0" d="M1576.9,171.4c0-10.5,7.7-19.3,20.4-19.3s20.3,8.8,20.3,19.3s-7.6,19.3-20.3,19.3
		C1584.6,190.7,1576.9,181.9,1576.9,171.4z M1606,171.4c0-5.1-3.5-9.3-8.8-9.3c-5.2,0-8.7,4.3-8.7,9.3c0,5.2,3.4,9.3,8.7,9.3
		C1602.5,180.7,1606,176.6,1606,171.4z"/>
	<path class="st0" d="M1651.6,147.2h-12v-10.6h36.4v10.6h-12.1v42.5h-12.3V147.2z"/>
	<path class="st0" d="M1704.3,163.7c-1.6-0.4-2.6-0.5-3.9-0.5c-6.5,0-10.7,3.3-10.7,12.3v14.3H1678v-36.6h11.6v5.9
		c1.7-3.4,6-6.5,11.3-6.5c1.2,0,2.3,0.2,3.3,0.6L1704.3,163.7L1704.3,163.7z"/>
	<path class="st0" d="M1718.4,174.2c0,4.4,2.1,8.1,7.9,8.1c4.1,0,6-1.8,6.8-4.2h11.4c-1.2,6.9-7.6,12.5-18.1,12.5
		c-12.8,0-19.7-8.5-19.7-19.3c0-10.7,6.8-19.3,19.2-19.3c11.8,0,19.1,7.7,19.1,17.9c0,1.4-0.1,2.2-0.4,4.2L1718.4,174.2
		L1718.4,174.2z M1718.4,167.5h15.2c0-4.4-3.1-7.2-7.6-7.2C1721.6,160.3,1718.4,162.9,1718.4,167.5z"/>
	<path class="st0" d="M1762.2,174.2c0,4.4,2.1,8.1,7.9,8.1c4.1,0,6-1.8,6.8-4.2h11.4c-1.2,6.9-7.6,12.5-18.1,12.5
		c-12.8,0-19.7-8.5-19.7-19.3c0-10.7,6.8-19.3,19.2-19.3c11.8,0,19.1,7.7,19.1,17.9c0,1.4-0.1,2.2-0.4,4.2L1762.2,174.2
		L1762.2,174.2z M1762.2,167.5h15.2c0-4.4-3.1-7.2-7.6-7.2C1765.5,160.3,1762.2,162.9,1762.2,167.5z"/>
	<path class="st0" d="M1825.4,172.1c0,5.8,3.6,9.2,8.4,9.2c4.1,0,7.1-2.5,7.1-6.2c0-4.2-3.6-5.7-8.3-7.4c-9.4-3.5-18-6.7-18-17
		c0-10.6,9-15.4,18.8-15.4c12.5,0,18.8,7.9,18.8,16.9h-12.3c0-4.7-2.4-7.7-6.7-7.7c-3.4,0-6.4,1.9-6.4,5.4c0,3.4,2.8,5.4,7.6,7.1
		c9.4,3.3,18.7,6.6,18.7,17.5c0,10.3-8.3,16.7-19.7,16.7c-11.8,0-20.4-6.8-20.4-19h12.4V172.1z"/>
	<path class="st0" d="M1870.5,174.2c0,4.4,2.1,8.1,7.9,8.1c4.1,0,6-1.8,6.8-4.2h11.4c-1.2,6.9-7.6,12.5-18.1,12.5
		c-12.8,0-19.7-8.5-19.7-19.3c0-10.7,6.8-19.3,19.2-19.3c11.8,0,19.1,7.7,19.1,17.9c0,1.4-0.1,2.2-0.4,4.2L1870.5,174.2
		L1870.5,174.2z M1870.5,167.5h15.2c0-4.4-3.1-7.2-7.6-7.2C1873.7,160.3,1870.5,162.9,1870.5,167.5z"/>
	<path class="st0" d="M1943.3,153.1v36.6h-11.6v-5.2c-1.8,3.3-6.1,6.1-11.7,6.1c-9.7,0-17.3-8.3-17.3-19.2
		c0-10.9,7.6-19.2,17.3-19.2c5.4,0,9.7,2.6,11.7,6.2v-5.2L1943.3,153.1L1943.3,153.1z M1931.7,171.4c0-5-3.5-9.3-8.7-9.3
		s-8.7,4.3-8.7,9.3c0,5.1,3.5,9.3,8.7,9.3S1931.7,176.5,1931.7,171.4z"/>
	<path class="st0" d="M1979.5,163.7c-1.6-0.4-2.6-0.5-3.9-0.5c-6.5,0-10.7,3.3-10.7,12.3v14.3h-11.6v-36.6h11.6v5.9
		c1.7-3.4,6-6.5,11.3-6.5c1.2,0,2.3,0.2,3.3,0.6L1979.5,163.7L1979.5,163.7z"/>
	<path class="st0" d="M2009.4,167.5c-0.4-3.1-2.6-5.5-6.9-5.5c-6,0-8.4,4.4-8.4,9.4c0,5.1,2.5,9.4,8.7,9.4c3.9,0,5.8-1.7,6.8-4.9
		h11.6c-1.1,8.2-7.5,14.7-18.8,14.7c-13.2,0-19.9-9.1-19.9-19.3c0-10.1,6.7-19.3,19.9-19.3c12.1,0,18,7.6,18.7,15.3h-11.7V167.5z"/>
	<path class="st0" d="M2028.5,136.5h11.2v21.9c2.1-3.8,6.2-6.2,11.9-6.2c4.7,0,7.8,1.6,9.9,4.2c2.3,2.8,3,6.5,3,11.7v21.6h-11.2
		v-18.8c0-5.2-1.6-8.9-6.4-8.9c-4.8,0-7.1,3.6-7.1,9.3v18.4h-11.2v-53.2H2028.5z"/>
</g>
</svg>
