<?xml version="1.0" encoding="utf-8"?>
<!-- Generator: Adobe Illustrator 19.1.0, SVG Export Plug-In . SVG Version: 6.00 Build 0)  -->
<svg version="1.1" id="Layer_1" xmlns="http://www.w3.org/2000/svg" xmlns:xlink="http://www.w3.org/1999/xlink" x="0px" y="0px"
	 viewBox="0 0 846 678.3" style="enable-background:new 0 0 846 678.3;" xml:space="preserve">
<style type="text/css">
	.st0{clip-path:url(#SVGID_2_);}
	.st1{fill:none;stroke:#FFFFFF;stroke-width:1.7887;stroke-linecap:round;stroke-linejoin:round;stroke-miterlimit:10;}
</style>
<g>
	<defs>
		<rect id="SVGID_1_" x="0" y="0" width="846" height="678.3"/>
	</defs>
	<clipPath id="SVGID_2_">
		<use xlink:href="#SVGID_1_"  style="overflow:visible;"/>
	</clipPath>
	<g class="st0">
		<g>
			<path class="st1" d="M629.4,127.6c-11.1,0-20.2-9-20.2-20.1"/>
			<path class="st1" d="M686.2,85.7v-98.7c0-11.1-9-20.1-20.2-20.1s-20.2,9-20.2,20.1v131.5"/>
			<path class="st1" d="M686.2,117.4h7.8c26.7,0,48.4-21.7,48.4-48.4l0-41.7c0-11.1-9-20.1-20.2-20.1s-20.2,9-20.2,20.1v41.9
				c0,4.4-3.6,7.9-7.9,7.9s-7.9-3.6-7.9-7.9"/>
			<path class="st1" d="M645.8,99.5c0,4.4-3.6,7.9-7.9,7.9s-7.9-3.6-7.9-7.9V59.2c0-11.1-9-20.1-20.2-20.1s-20.2,9-20.2,20.1v40.2
				c0,26.7,21.7,48.4,48.4,48.4h7.8"/>
			<path class="st1" d="M689.3,98.5h4.7c16.2,0,29.3-13.1,29.3-29.3V44"/>
			<line class="st1" x1="686.2" y1="111.2" x2="686.2" y2="182.2"/>
			<line class="st1" x1="645.8" y1="147.8" x2="645.8" y2="211"/>
			<line class="st1" x1="609.3" y1="60.8" x2="609.3" y2="94.2"/>
			<line class="st1" x1="660.7" y1="-7.7" x2="660.7" y2="68.1"/>
			<line class="st1" x1="672.9" y1="49.1" x2="672.9" y2="80.9"/>
			<line class="st1" x1="660.7" y1="129.2" x2="660.7" y2="188.1"/>
		</g>
		<g>
			<path class="st1" d="M101.3,136.8c-11.1,0-20.2-9-20.2-20.1"/>
			<path class="st1" d="M158.1,94.9V-3.7c0-11.1-9-20.1-20.2-20.1c-11.1,0-20.2,9-20.2,20.1v131.5"/>
			<path class="st1" d="M158.1,126.7h7.8c26.7,0,48.4-21.7,48.4-48.4l0-41.7c0-11.1-9-20.1-20.2-20.1c-11.1,0-20.2,9-20.2,20.1v41.9
				c0,4.4-3.6,7.9-7.9,7.9c-4.4,0-7.9-3.6-7.9-7.9"/>
			<path class="st1" d="M117.7,108.7c0,4.4-3.6,7.9-7.9,7.9s-7.9-3.6-7.9-7.9V68.5c0-11.1-9-20.1-20.2-20.1s-20.2,9-20.2,20.1
				l0,40.2c0,26.7,21.7,48.4,48.4,48.4h7.8"/>
			<path class="st1" d="M161.2,107.7h4.7c16.2,0,29.3-13.1,29.3-29.3V53.2"/>
			<line class="st1" x1="158.1" y1="120.4" x2="158.1" y2="214.7"/>
			<line class="st1" x1="117.7" y1="157.1" x2="117.7" y2="243.4"/>
			<line class="st1" x1="81.2" y1="70" x2="81.2" y2="103.4"/>
			<line class="st1" x1="132.6" y1="1.6" x2="132.6" y2="77.3"/>
			<line class="st1" x1="144.8" y1="58.3" x2="144.8" y2="90.1"/>
			<line class="st1" x1="132.6" y1="138.4" x2="132.6" y2="220.6"/>
		</g>
		<g>
			<path class="st1" d="M802,81c-12.5,0-22.7-10.1-22.7-22.6"/>
			<line class="st1" x1="820.5" y1="-27.2" x2="820.5" y2="49.4"/>
			<path class="st1" d="M865.8,5.3v-139.4c0-12.5-10.1-22.6-22.7-22.6c-12.5,0-22.7,10.1-22.7,22.6v74.8"/>
			<path class="st1" d="M865.8,40.9h8.8c30,0,54.3-24.3,54.3-54.3l0-46.8c0-12.5-10.1-22.6-22.7-22.6s-22.7,10.1-22.7,22.6v47.1
				c0,4.9-4,8.9-8.9,8.9s-8.9-4-8.9-8.9"/>
			<path class="st1" d="M820.4,49.4c0,4.9-4,8.9-8.9,8.9c-4.9,0-8.9-4-8.9-8.9V4.2c0-12.5-10.1-22.6-22.7-22.6
				c-12.5,0-22.7,10.1-22.7,22.6l0,45.2c0,30,24.3,54.3,54.3,54.3h8.8"/>
			<path class="st1" d="M869.3,19.6h5.3c18.2,0,32.9-14.7,32.9-32.9v-28.2"/>
			<path class="st1" d="M820.5-27.6h-5c-17.3,0-31.3-14-31.3-31.3l0-27c0-7.2,5.8-13,13-13c7.2,0,13,5.8,13,13v27.1
				c0,2.8,2.3,5.1,5.1,5.1s5.1-2.3,5.1-5.1"/>
			<path class="st1" d="M818.4-39.9h-3.1c-10.5,0-19-8.5-19-19v-16.3"/>
			<line class="st1" x1="865.8" y1="41" x2="865.8" y2="120.9"/>
			<line class="st1" x1="820.4" y1="82.2" x2="820.4" y2="162.1"/>
			<line class="st1" x1="779.3" y1="5.9" x2="779.3" y2="43.4"/>
			<line class="st1" x1="837.1" y1="-128.2" x2="837.1" y2="-7.4"/>
			<line class="st1" x1="850.8" y1="-28.7" x2="850.8" y2="7.1"/>
			<line class="st1" x1="837.1" y1="61.3" x2="837.1" y2="127.4"/>
		</g>
		<g>
			<path class="st1" d="M-44,81c-12.5,0-22.7-10.1-22.7-22.6"/>
			<line class="st1" x1="-25.5" y1="-27.2" x2="-25.5" y2="49.4"/>
			<path class="st1" d="M19.8,5.3v-139.4c0-12.5-10.1-22.6-22.7-22.6s-22.7,10.1-22.7,22.6v74.8"/>
			<path class="st1" d="M19.8,40.9h8.8c30,0,54.3-24.3,54.3-54.3l0-46.8c0-12.5-10.1-22.6-22.7-22.6S37.6-72.7,37.6-60.2v47.1
				c0,4.9-4,8.9-8.9,8.9s-8.9-4-8.9-8.9"/>
			<path class="st1" d="M-25.6,49.4c0,4.9-4,8.9-8.9,8.9s-8.9-4-8.9-8.9l0-45.2c0-12.5-10.1-22.6-22.7-22.6S-88.7-8.3-88.7,4.2v45.2
				c0,30,24.3,54.3,54.3,54.3h8.8"/>
			<path class="st1" d="M23.3,19.6h5.3c18.2,0,32.9-14.7,32.9-32.9v-28.2"/>
			<path class="st1" d="M-25.5-27.6h-5c-17.3,0-31.3-14-31.3-31.3l0-27c0-7.2,5.8-13,13-13s13,5.8,13,13v27.1c0,2.8,2.3,5.1,5.1,5.1
				s5.1-2.3,5.1-5.1"/>
			<path class="st1" d="M-27.6-39.9h-3.1c-10.5,0-19-8.5-19-19v-16.3"/>
			<line class="st1" x1="19.8" y1="41" x2="19.8" y2="120.9"/>
			<line class="st1" x1="-25.6" y1="82.2" x2="-25.6" y2="162.1"/>
			<line class="st1" x1="-66.7" y1="5.9" x2="-66.7" y2="43.4"/>
			<line class="st1" x1="-8.9" y1="-128.2" x2="-8.9" y2="-7.4"/>
			<line class="st1" x1="4.8" y1="-28.7" x2="4.8" y2="7.1"/>
			<line class="st1" x1="-8.9" y1="61.3" x2="-8.9" y2="127.4"/>
		</g>
		<g>
			<path class="st1" d="M687.9,576.3c12.5,0,22.7-10.1,22.7-22.6"/>
			<path class="st1" d="M624.1,529.3V347c0-12.5,10.1-22.6,22.7-22.6c12.5,0,22.7,10.1,22.7,22.6v219.2"/>
			<path class="st1" d="M624.1,564.9h-8.8c-30,0-54.3-24.3-54.3-54.3l0-68.3c0-12.5,10.1-22.6,22.7-22.6c12.5,0,22.7,10.1,22.7,22.6
				v68.5c0,4.9,4,8.9,8.9,8.9c4.9,0,8.9-4,8.9-8.9"/>
			<path class="st1" d="M669.4,544.7c0,4.9,4,8.9,8.9,8.9s8.9-4,8.9-8.9v-34.5c0-12.5,10.1-22.6,22.7-22.6s22.7,10.1,22.7,22.6v34.5
				c0,30-24.3,54.3-54.3,54.3h-8.8"/>
			<path class="st1" d="M620.6,543.6h-5.3c-18.2,0-32.9-14.7-32.9-32.9v-28.2"/>
			<line class="st1" x1="624.1" y1="557.9" x2="624.1" y2="643.1"/>
			<line class="st1" x1="669.4" y1="599.1" x2="669.4" y2="625.2"/>
			<line class="st1" x1="710.5" y1="512" x2="710.5" y2="538.8"/>
			<line class="st1" x1="652.7" y1="388.7" x2="652.7" y2="509.4"/>
			<line class="st1" x1="639" y1="470.3" x2="639" y2="523.9"/>
			<line class="st1" x1="652.7" y1="578.1" x2="652.7" y2="617.4"/>
		</g>
		<g>
			<path class="st1" d="M466.8,488.2c12.5,0,22.7-10.1,22.7-22.6"/>
			<path class="st1" d="M403.1,441.1V330.3c0-12.5,10.1-22.6,22.7-22.6c12.5,0,22.7,10.1,22.7,22.6V478"/>
			<path class="st1" d="M403.1,476.8h-8.8c-30,0-54.3-24.3-54.3-54.3l0-46.8c0-12.5,10.1-22.6,22.7-22.6s22.7,10.1,22.7,22.6v47.1
				c0,4.9,4,8.9,8.9,8.9c4.9,0,8.9-4,8.9-8.9"/>
			<path class="st1" d="M448.4,456.6c0,4.9,4,8.9,8.9,8.9c4.9,0,8.9-4,8.9-8.9v-45.2c0-12.5,10.1-22.6,22.7-22.6
				c12.5,0,22.7,10.1,22.7,22.6v45.2c0,30-24.3,54.3-54.3,54.3h-8.8"/>
			<path class="st1" d="M399.6,455.5h-5.3c-18.2,0-32.9-14.7-32.9-32.9v-28.2"/>
			<line class="st1" x1="403.1" y1="469.7" x2="403.1" y2="563.9"/>
			<line class="st1" x1="448.4" y1="510.9" x2="448.4" y2="546"/>
			<line class="st1" x1="489.5" y1="413.1" x2="489.5" y2="450.6"/>
			<line class="st1" x1="431.7" y1="336.3" x2="431.7" y2="421.3"/>
			<line class="st1" x1="418" y1="400" x2="418" y2="435.8"/>
			<line class="st1" x1="431.7" y1="490" x2="431.7" y2="538.2"/>
		</g>
		<g>
			<path class="st1" d="M855.2,293.7c-8.8,0-15.9-7.1-15.9-15.8"/>
			<path class="st1" d="M899.8,260.8v-77.6c0-8.7-7.1-15.8-15.9-15.8s-15.9,7.1-15.9,15.8v103.4"/>
			<path class="st1" d="M899.8,285.7h6.1c21,0,38-17,38-38l0-32.8c0-8.7-7.1-15.8-15.9-15.8s-15.9,7.1-15.9,15.8v33
				c0,3.4-2.8,6.2-6.2,6.2c-3.4,0-6.2-2.8-6.2-6.2"/>
			<path class="st1" d="M868.1,271.6c0,3.4-2.8,6.2-6.2,6.2c-3.4,0-6.2-2.8-6.2-6.2v-31.6c0-8.7-7.1-15.8-15.9-15.8
				c-8.8,0-15.9,7.1-15.9,15.8v31.6c0,21,17,38,38,38h6.1"/>
			<path class="st1" d="M902.3,270.8h3.7c12.7,0,23-10.3,23-23V228"/>
			<line class="st1" x1="899.8" y1="280.8" x2="899.8" y2="346.7"/>
			<line class="st1" x1="868.1" y1="309.6" x2="868.1" y2="334.2"/>
			<line class="st1" x1="839.3" y1="241.1" x2="839.3" y2="267.4"/>
			<line class="st1" x1="879.8" y1="187.3" x2="879.8" y2="246.9"/>
			<line class="st1" x1="889.4" y1="232" x2="889.4" y2="257"/>
			<line class="st1" x1="879.8" y1="294.9" x2="879.8" y2="328.7"/>
		</g>
		<g>
			<path class="st1" d="M730,206.7c-7.4,0-13.5-6-13.5-13.5"/>
			<path class="st1" d="M768,178.7v-66c0-7.4-6-13.5-13.5-13.5s-13.5,6-13.5,13.5v87.9"/>
			<path class="st1" d="M768,199.9h5.2c17.9,0,32.4-14.5,32.4-32.4l0-27.9c0-7.4-6-13.5-13.5-13.5c-7.4,0-13.5,6-13.5,13.5v28
				c0,2.9-2.4,5.3-5.3,5.3c-2.9,0-5.3-2.4-5.3-5.3"/>
			<path class="st1" d="M741,187.9c0,2.9-2.4,5.3-5.3,5.3s-5.3-2.4-5.3-5.3V161c0-7.4-6-13.5-13.5-13.5s-13.5,6-13.5,13.5v26.9
				c0,17.9,14.5,32.4,32.4,32.4h5.2"/>
			<path class="st1" d="M770.1,187.2h3.2c10.8,0,19.6-8.8,19.6-19.6v-16.8"/>
			<line class="st1" x1="768" y1="195.7" x2="768" y2="244.6"/>
			<line class="st1" x1="741" y1="220.2" x2="741" y2="234"/>
			<line class="st1" x1="716.5" y1="162" x2="716.5" y2="184.3"/>
			<line class="st1" x1="750.9" y1="116.2" x2="750.9" y2="166.9"/>
			<line class="st1" x1="759.1" y1="154.2" x2="759.1" y2="175.5"/>
			<line class="st1" x1="750.9" y1="207.8" x2="750.9" y2="229.4"/>
		</g>
		<g>
			<path class="st1" d="M138.3,540.2c9.9,0,18-8,18-17.9"/>
			<path class="st1" d="M87.6,502.8V379.1c0-9.9,8.1-17.9,18-17.9s18,8,18,17.9v153"/>
			<path class="st1" d="M87.6,531.1h-7c-23.8,0-43.1-19.3-43.1-43.1l0-37.2c0-9.9,8.1-17.9,18-17.9s18,8,18,17.9v37.4
				c0,3.9,3.2,7.1,7.1,7.1c3.9,0,7.1-3.2,7.1-7.1"/>
			<path class="st1" d="M123.6,515.1c0,3.9,3.2,7.1,7.1,7.1c3.9,0,7.1-3.2,7.1-7.1v-35.9c0-9.9,8.1-17.9,18-17.9c9.9,0,18,8,18,17.9
				v35.9c0,23.8-19.3,43.1-43.1,43.1h-7"/>
			<path class="st1" d="M84.8,514.2h-4.2c-14.4,0-26.1-11.7-26.1-26.1v-22.4"/>
			<line class="st1" x1="87.6" y1="525.5" x2="87.6" y2="586"/>
			<line class="st1" x1="123.6" y1="558.2" x2="123.6" y2="604"/>
			<line class="st1" x1="156.2" y1="480.6" x2="156.2" y2="510.4"/>
			<line class="st1" x1="110.4" y1="401.7" x2="110.4" y2="469.2"/>
			<line class="st1" x1="99.5" y1="452.3" x2="99.5" y2="480.7"/>
			<line class="st1" x1="110.4" y1="541.6" x2="110.4" y2="579.9"/>
		</g>
		<g>
			<path class="st1" d="M339.6,227.2c-12.5,0-22.7-10.1-22.7-22.6"/>
			<path class="st1" d="M403.4,180.2V69.4c0-12.5-10.1-22.6-22.7-22.6c-12.5,0-22.7,10.1-22.7,22.6v147.7"/>
			<path class="st1" d="M403.4,215.8h8.8c30,0,54.3-24.3,54.3-54.3l0-46.8c0-12.5-10.1-22.6-22.7-22.6c-12.5,0-22.7,10.1-22.7,22.6
				v47.1c0,4.9-4,8.9-8.9,8.9s-8.9-4-8.9-8.9"/>
			<path class="st1" d="M358.1,195.6c0,4.9-4,8.9-8.9,8.9c-4.9,0-8.9-4-8.9-8.9l0-45.2c0-12.5-10.1-22.6-22.7-22.6
				s-22.7,10.1-22.7,22.6v45.2c0,30,24.3,54.3,54.3,54.3h8.8"/>
			<path class="st1" d="M406.9,194.5h5.3c18.2,0,32.9-14.7,32.9-32.9v-28.2"/>
			<line class="st1" x1="403.4" y1="208.7" x2="403.4" y2="302.9"/>
			<line class="st1" x1="358.1" y1="250" x2="358.1" y2="285.1"/>
			<line class="st1" x1="317" y1="152.1" x2="317" y2="189.7"/>
			<line class="st1" x1="374.8" y1="75.3" x2="374.8" y2="160.3"/>
			<line class="st1" x1="388.5" y1="139" x2="388.5" y2="174.8"/>
			<line class="st1" x1="374.8" y1="229" x2="374.8" y2="277.3"/>
		</g>
		<g>
			<path class="st1" d="M477,65.7c-12.5,0-22.7-10.1-22.7-22.6"/>
			<line class="st1" x1="495.5" y1="-42.4" x2="495.5" y2="34.1"/>
			<path class="st1" d="M540.8-10v-139.4c0-12.5-10.1-22.6-22.7-22.6c-12.5,0-22.7,10.1-22.7,22.6v74.8"/>
			<path class="st1" d="M540.8,25.7h8.8c30,0,54.3-24.3,54.3-54.3l0-46.8c0-12.5-10.1-22.6-22.7-22.6S558.6-88,558.6-75.5v47.1
				c0,4.9-4,8.9-8.9,8.9s-8.9-4-8.9-8.9"/>
			<path class="st1" d="M495.4,34.1c0,4.9-4,8.9-8.9,8.9s-8.9-4-8.9-8.9v-45.2c0-12.5-10.1-22.6-22.7-22.6
				c-12.5,0-22.7,10.1-22.7,22.6v45.2c0,30,24.3,54.3,54.3,54.3h8.8"/>
			<path class="st1" d="M544.3,4.4h5.3c18.2,0,32.9-14.7,32.9-32.9v-28.2"/>
			<path class="st1" d="M495.5-42.9h-5c-17.3,0-31.3-14-31.3-31.3l0-27c0-7.2,5.8-13,13-13s13,5.8,13,13V-74c0,2.8,2.3,5.1,5.1,5.1
				c2.8,0,5.1-2.3,5.1-5.1"/>
			<path class="st1" d="M493.4-55.1h-3.1c-10.5,0-19-8.5-19-19"/>
			<line class="st1" x1="540.8" y1="25.8" x2="540.8" y2="105.6"/>
			<line class="st1" x1="495.4" y1="67" x2="495.4" y2="141.5"/>
			<line class="st1" x1="454.3" y1="-9.4" x2="454.3" y2="28.2"/>
			<line class="st1" x1="512.1" y1="-143.4" x2="512.1" y2="-22.6"/>
			<line class="st1" x1="525.8" y1="-43.9" x2="525.8" y2="-8.2"/>
			<line class="st1" x1="512.1" y1="46" x2="512.1" y2="112.2"/>
		</g>
		<g>
			<g>
				<path class="st1" d="M256.5,11.1c-12.5,0-22.7-10.1-22.7-22.6"/>
				<path class="st1" d="M320.3-35.9v-182.3c0-12.5-10.1-22.6-22.7-22.6c-12.5,0-22.7,10.1-22.7,22.6V1"/>
				<path class="st1" d="M320.3-0.3h8.8c30,0,54.3-24.3,54.3-54.3l0-46.8c0-12.5-10.1-22.6-22.7-22.6s-22.7,10.1-22.7,22.6v47.1
					c0,4.9-4,8.9-8.9,8.9c-4.9,0-8.9-4-8.9-8.9"/>
				<path class="st1" d="M211.8-52.6v32.1c0,30,24.3,54.3,54.3,54.3h8.8"/>
				<path class="st1" d="M275-20.5c0,4.9-4,8.9-8.9,8.9c-4.9,0-8.9-4-8.9-8.9v-98.9c0-12.5-10.1-22.6-22.7-22.6
					s-22.7,10.1-22.7,22.6v40.8"/>
				<path class="st1" d="M323.8-21.6h5.3c18.2,0,32.9-14.7,32.9-32.9v-28.2"/>
				<line class="st1" x1="320.3" y1="-7.3" x2="320.3" y2="72.5"/>
				<line class="st1" x1="275" y1="33.9" x2="275" y2="113.7"/>
				<line class="st1" x1="233.9" y1="-117.6" x2="233.9" y2="-26.4"/>
				<line class="st1" x1="291.7" y1="-176.6" x2="291.7" y2="-55.7"/>
				<line class="st1" x1="305.4" y1="-77" x2="305.4" y2="-41.3"/>
				<line class="st1" x1="305.4" y1="-202.9" x2="305.4" y2="-167.2"/>
				<line class="st1" x1="291.7" y1="12.9" x2="291.7" y2="79.1"/>
			</g>
			<path class="st1" d="M211.8-46.7h-5c-17.3,0-31.3-14-31.3-31.3l0-27c0-7.2,5.8-13,13-13s13,5.8,13,13v27.1c0,2.8,2.3,5.1,5.1,5.1
				s5.1-2.3,5.1-5.1"/>
			<path class="st1" d="M209.8-60.8h-3.1c-10.5,0-19-8.5-19-19V-96"/>
		</g>
		<g>
			<path class="st1" d="M629.4,805.8c-11.1,0-20.2-9-20.2-20.1"/>
			<path class="st1" d="M686.2,763.9v-98.7c0-11.1-9-20.1-20.2-20.1s-20.2,9-20.2,20.1v131.5"/>
			<path class="st1" d="M686.2,795.7h7.8c26.7,0,48.4-21.7,48.4-48.4l0-41.7c0-11.1-9-20.1-20.2-20.1s-20.2,9-20.2,20.1v41.9
				c0,4.4-3.6,7.9-7.9,7.9s-7.9-3.6-7.9-7.9"/>
			<path class="st1" d="M645.8,777.7c0,4.4-3.6,7.9-7.9,7.9s-7.9-3.6-7.9-7.9v-40.2c0-11.1-9-20.1-20.2-20.1s-20.2,9-20.2,20.1v40.2
				c0,26.7,21.7,48.4,48.4,48.4h7.8"/>
			<path class="st1" d="M689.3,776.7h4.7c16.2,0,29.3-13.1,29.3-29.3v-25.1"/>
			<line class="st1" x1="686.2" y1="789.4" x2="686.2" y2="860.5"/>
			<line class="st1" x1="645.8" y1="826.1" x2="645.8" y2="889.2"/>
			<line class="st1" x1="609.3" y1="739" x2="609.3" y2="772.4"/>
			<line class="st1" x1="660.7" y1="670.6" x2="660.7" y2="746.3"/>
			<line class="st1" x1="672.9" y1="727.3" x2="672.9" y2="759.2"/>
			<line class="st1" x1="660.7" y1="807.4" x2="660.7" y2="866.3"/>
		</g>
		<g>
			<path class="st1" d="M101.3,815.1c-11.1,0-20.2-9-20.2-20.1"/>
			<path class="st1" d="M158.1,773.2v-98.7c0-11.1-9-20.1-20.2-20.1c-11.1,0-20.2,9-20.2,20.1V806"/>
			<path class="st1" d="M158.1,804.9h7.8c26.7,0,48.4-21.7,48.4-48.4l0-41.7c0-11.1-9-20.1-20.2-20.1c-11.1,0-20.2,9-20.2,20.1v41.9
				c0,4.4-3.6,7.9-7.9,7.9c-4.4,0-7.9-3.6-7.9-7.9"/>
			<path class="st1" d="M117.7,786.9c0,4.4-3.6,7.9-7.9,7.9s-7.9-3.6-7.9-7.9v-40.2c0-11.1-9-20.1-20.2-20.1s-20.2,9-20.2,20.1
				l0,40.2c0,26.7,21.7,48.4,48.4,48.4h7.8"/>
			<path class="st1" d="M161.2,785.9h4.7c16.2,0,29.3-13.1,29.3-29.3v-25.1"/>
			<line class="st1" x1="158.1" y1="798.6" x2="158.1" y2="869.7"/>
			<line class="st1" x1="117.7" y1="835.3" x2="117.7" y2="898.4"/>
			<line class="st1" x1="81.2" y1="748.2" x2="81.2" y2="781.6"/>
			<line class="st1" x1="132.6" y1="679.8" x2="132.6" y2="755.5"/>
			<line class="st1" x1="144.8" y1="736.6" x2="144.8" y2="768.4"/>
			<line class="st1" x1="132.6" y1="816.7" x2="132.6" y2="875.6"/>
		</g>
		<g>
			<path class="st1" d="M802,759.2c-12.5,0-22.7-10.1-22.7-22.6"/>
			<line class="st1" x1="820.5" y1="651.1" x2="820.5" y2="727.6"/>
			<path class="st1" d="M865.8,683.5V544.1c0-12.5-10.1-22.6-22.7-22.6c-12.5,0-22.7,10.1-22.7,22.6v74.8"/>
			<path class="st1" d="M865.8,719.2h8.8c30,0,54.3-24.3,54.3-54.3l0-46.8c0-12.5-10.1-22.6-22.7-22.6s-22.7,10.1-22.7,22.6v47.1
				c0,4.9-4,8.9-8.9,8.9s-8.9-4-8.9-8.9"/>
			<path class="st1" d="M820.4,727.6c0,4.9-4,8.9-8.9,8.9c-4.9,0-8.9-4-8.9-8.9v-45.2c0-12.5-10.1-22.6-22.7-22.6
				c-12.5,0-22.7,10.1-22.7,22.6l0,45.2c0,30,24.3,54.3,54.3,54.3h8.8"/>
			<path class="st1" d="M869.3,697.9h5.3c18.2,0,32.9-14.7,32.9-32.9v-28.2"/>
			<path class="st1" d="M820.5,650.6h-5c-17.3,0-31.3-14-31.3-31.3l0-27c0-7.2,5.8-13,13-13c7.2,0,13,5.8,13,13v27.1
				c0,2.8,2.3,5.1,5.1,5.1s5.1-2.3,5.1-5.1"/>
			<path class="st1" d="M818.4,638.3h-3.1c-10.5,0-19-8.5-19-19v-16.3"/>
			<line class="st1" x1="865.8" y1="719.3" x2="865.8" y2="799.1"/>
			<line class="st1" x1="820.4" y1="760.5" x2="820.4" y2="840.3"/>
			<line class="st1" x1="779.3" y1="684.1" x2="779.3" y2="721.7"/>
			<line class="st1" x1="837.1" y1="550" x2="837.1" y2="670.9"/>
			<line class="st1" x1="850.8" y1="649.6" x2="850.8" y2="685.3"/>
			<line class="st1" x1="837.1" y1="739.5" x2="837.1" y2="805.7"/>
		</g>
		<g>
			<path class="st1" d="M-44,759.2c-12.5,0-22.7-10.1-22.7-22.6"/>
			<line class="st1" x1="-25.5" y1="651.1" x2="-25.5" y2="727.6"/>
			<path class="st1" d="M19.8,683.5V544.1c0-12.5-10.1-22.6-22.7-22.6s-22.7,10.1-22.7,22.6v74.8"/>
			<path class="st1" d="M19.8,719.2h8.8c30,0,54.3-24.3,54.3-54.3l0-46.8c0-12.5-10.1-22.6-22.7-22.6S37.6,605.5,37.6,618v47.1
				c0,4.9-4,8.9-8.9,8.9s-8.9-4-8.9-8.9"/>
			<path class="st1" d="M-25.6,727.6c0,4.9-4,8.9-8.9,8.9s-8.9-4-8.9-8.9l0-45.2c0-12.5-10.1-22.6-22.7-22.6s-22.7,10.1-22.7,22.6
				v45.2c0,30,24.3,54.3,54.3,54.3h8.8"/>
			<path class="st1" d="M23.3,697.9h5.3c18.2,0,32.9-14.7,32.9-32.9v-28.2"/>
			<path class="st1" d="M-25.5,650.6h-5c-17.3,0-31.3-14-31.3-31.3l0-27c0-7.2,5.8-13,13-13s13,5.8,13,13v27.1
				c0,2.8,2.3,5.1,5.1,5.1s5.1-2.3,5.1-5.1"/>
			<path class="st1" d="M-27.6,638.3h-3.1c-10.5,0-19-8.5-19-19v-16.3"/>
			<line class="st1" x1="19.8" y1="719.3" x2="19.8" y2="799.1"/>
			<line class="st1" x1="-25.6" y1="760.5" x2="-25.6" y2="840.3"/>
			<line class="st1" x1="-66.7" y1="684.1" x2="-66.7" y2="721.7"/>
			<line class="st1" x1="-8.9" y1="550" x2="-8.9" y2="670.9"/>
			<line class="st1" x1="4.8" y1="649.6" x2="4.8" y2="685.3"/>
			<line class="st1" x1="-8.9" y1="739.5" x2="-8.9" y2="805.7"/>
		</g>
		<g>
			<path class="st1" d="M339.6,905.4c-12.5,0-22.7-10.1-22.7-22.6"/>
			<path class="st1" d="M403.4,858.4V747.6c0-12.5-10.1-22.6-22.7-22.6c-12.5,0-22.7,10.1-22.7,22.6v147.7"/>
			<path class="st1" d="M403.4,894h8.8c30,0,54.3-24.3,54.3-54.3l0-46.8c0-12.5-10.1-22.6-22.7-22.6c-12.5,0-22.7,10.1-22.7,22.6
				v47.1c0,4.9-4,8.9-8.9,8.9s-8.9-4-8.9-8.9"/>
			<path class="st1" d="M358.1,873.8c0,4.9-4,8.9-8.9,8.9c-4.9,0-8.9-4-8.9-8.9l0-45.2c0-12.5-10.1-22.6-22.7-22.6
				s-22.7,10.1-22.7,22.6v45.2c0,30,24.3,54.3,54.3,54.3h8.8"/>
			<path class="st1" d="M406.9,872.7h5.3c18.2,0,32.9-14.7,32.9-32.9v-28.2"/>
			<line class="st1" x1="403.4" y1="887" x2="403.4" y2="981.1"/>
			<line class="st1" x1="358.1" y1="928.2" x2="358.1" y2="963.3"/>
			<line class="st1" x1="317" y1="830.4" x2="317" y2="867.9"/>
			<line class="st1" x1="374.8" y1="753.5" x2="374.8" y2="838.6"/>
			<line class="st1" x1="388.5" y1="817.3" x2="388.5" y2="853"/>
			<line class="st1" x1="374.8" y1="907.2" x2="374.8" y2="955.5"/>
		</g>
		<g>
			<path class="st1" d="M500.5,320c-12.5,0-22.7-10.1-22.7-22.6"/>
			<path class="st1" d="M564.3,272.9V162.1c0-12.5-10.1-22.6-22.7-22.6S519,149.6,519,162.1v147.7"/>
			<path class="st1" d="M564.3,308.5h8.8c30,0,54.3-24.3,54.3-54.3l0-46.8c0-12.5-10.1-22.6-22.7-22.6c-12.5,0-22.7,10.1-22.7,22.6
				v47.1c0,4.9-4,8.9-8.9,8.9s-8.9-4-8.9-8.9"/>
			<path class="st1" d="M518.9,288.4c0,4.9-4,8.9-8.9,8.9c-4.9,0-8.9-4-8.9-8.9v-45.2c0-12.5-10.1-22.6-22.7-22.6
				c-12.5,0-22.7,10.1-22.7,22.6v45.2c0,30,24.3,54.3,54.3,54.3h8.8"/>
			<path class="st1" d="M567.8,287.3h5.3c18.2,0,32.9-14.7,32.9-32.9v-28.2"/>
			<line class="st1" x1="564.3" y1="301.5" x2="564.3" y2="395.6"/>
			<line class="st1" x1="518.9" y1="342.7" x2="518.9" y2="377.8"/>
			<line class="st1" x1="477.8" y1="244.9" x2="477.8" y2="282.4"/>
			<line class="st1" x1="535.6" y1="168" x2="535.6" y2="253.1"/>
			<line class="st1" x1="549.3" y1="231.8" x2="549.3" y2="267.5"/>
			<line class="st1" x1="535.6" y1="321.8" x2="535.6" y2="370"/>
		</g>
		<g>
			<path class="st1" d="M477,743.9c-12.5,0-22.7-10.1-22.7-22.6"/>
			<line class="st1" x1="495.5" y1="635.8" x2="495.5" y2="712.3"/>
			<path class="st1" d="M540.8,668.3V528.9c0-12.5-10.1-22.6-22.7-22.6c-12.5,0-22.7,10.1-22.7,22.6v74.8"/>
			<path class="st1" d="M540.8,703.9h8.8c30,0,54.3-24.3,54.3-54.3l0-46.8c0-12.5-10.1-22.6-22.7-22.6s-22.7,10.1-22.7,22.6v47.1
				c0,4.9-4,8.9-8.9,8.9s-8.9-4-8.9-8.9"/>
			<path class="st1" d="M495.4,712.3c0,4.9-4,8.9-8.9,8.9s-8.9-4-8.9-8.9v-45.2c0-12.5-10.1-22.6-22.7-22.6
				c-12.5,0-22.7,10.1-22.7,22.6v45.2c0,30,24.3,54.3,54.3,54.3h8.8"/>
			<path class="st1" d="M544.3,682.6h5.3c18.2,0,32.9-14.7,32.9-32.9v-28.2"/>
			<path class="st1" d="M495.5,635.3h-5c-17.3,0-31.3-14-31.3-31.3l0-27c0-7.2,5.8-13,13-13s13,5.8,13,13v27.1
				c0,2.8,2.3,5.1,5.1,5.1c2.8,0,5.1-2.3,5.1-5.1"/>
			<path class="st1" d="M493.4,623.1h-3.1c-10.5,0-19-8.5-19-19"/>
			<line class="st1" x1="540.8" y1="704" x2="540.8" y2="783.8"/>
			<line class="st1" x1="495.4" y1="745.2" x2="495.4" y2="819.7"/>
			<line class="st1" x1="454.3" y1="668.9" x2="454.3" y2="706.4"/>
			<line class="st1" x1="512.1" y1="534.8" x2="512.1" y2="655.6"/>
			<line class="st1" x1="525.8" y1="634.3" x2="525.8" y2="670.1"/>
			<line class="st1" x1="512.1" y1="724.3" x2="512.1" y2="790.4"/>
		</g>
		<g>
			<g>
				<path class="st1" d="M256.5,689.4c-12.5,0-22.7-10.1-22.7-22.6"/>
				<path class="st1" d="M320.3,642.3V460c0-12.5-10.1-22.6-22.7-22.6c-12.5,0-22.7,10.1-22.7,22.6v219.3"/>
				<path class="st1" d="M320.3,677.9h8.8c30,0,54.3-24.3,54.3-54.3l0-46.8c0-12.5-10.1-22.6-22.7-22.6s-22.7,10.1-22.7,22.6v47.1
					c0,4.9-4,8.9-8.9,8.9c-4.9,0-8.9-4-8.9-8.9"/>
				<path class="st1" d="M211.8,625.6v32.1c0,30,24.3,54.3,54.3,54.3h8.8"/>
				<path class="st1" d="M275,657.8c0,4.9-4,8.9-8.9,8.9c-4.9,0-8.9-4-8.9-8.9v-98.9c0-12.5-10.1-22.6-22.7-22.6
					s-22.7,10.1-22.7,22.6v40.8"/>
				<path class="st1" d="M323.8,656.7h5.3c18.2,0,32.9-14.7,32.9-32.9v-28.2"/>
				<line class="st1" x1="320.3" y1="670.9" x2="320.3" y2="750.7"/>
				<line class="st1" x1="275" y1="712.1" x2="275" y2="791.9"/>
				<line class="st1" x1="233.9" y1="560.6" x2="233.9" y2="651.8"/>
				<line class="st1" x1="291.7" y1="501.7" x2="291.7" y2="622.5"/>
				<line class="st1" x1="305.4" y1="601.2" x2="305.4" y2="636.9"/>
				<line class="st1" x1="305.4" y1="475.3" x2="305.4" y2="511.1"/>
				<line class="st1" x1="291.7" y1="691.2" x2="291.7" y2="757.3"/>
			</g>
			<path class="st1" d="M211.8,631.5h-5c-17.3,0-31.3-14-31.3-31.3l0-27c0-7.2,5.8-13,13-13s13,5.8,13,13v27.1
				c0,2.8,2.3,5.1,5.1,5.1s5.1-2.3,5.1-5.1"/>
			<path class="st1" d="M209.8,617.5h-3.1c-10.5,0-19-8.5-19-19v-16.3"/>
		</g>
		<g>
			<g>
				<path class="st1" d="M816.3,484.7c12.5,0,22.7-10.1,22.7-22.6"/>
				<path class="st1" d="M752.5,302.6v-24.1c0-12.5,10.1-22.6,22.7-22.6c12.5,0,22.7,10.1,22.7,22.6v196"/>
				<line class="st1" x1="752.5" y1="437.6" x2="752.5" y2="328"/>
				<path class="st1" d="M752.5,473.2h-8.8c-30,0-54.3-24.3-54.3-54.3l0-46.8c0-12.5,10.1-22.6,22.7-22.6s22.7,10.1,22.7,22.6v47.1
					c0,4.9,4,8.9,8.9,8.9s8.9-4,8.9-8.9"/>
				<path class="st1" d="M861,420.9v32.1c0,30-24.3,54.3-54.3,54.3h-8.8"/>
				<path class="st1" d="M797.8,453.1c0,4.9,4,8.9,8.9,8.9c4.9,0,8.9-4,8.9-8.9v-98.9c0-12.5,10.1-22.6,22.7-22.6
					c12.5,0,22.7,10.1,22.7,22.6V395"/>
				<path class="st1" d="M749,451.9h-5.3c-18.2,0-32.9-14.7-32.9-32.9v-28.2"/>
				<line class="st1" x1="752.5" y1="466.2" x2="752.5" y2="546"/>
				<line class="st1" x1="797.8" y1="507.4" x2="797.8" y2="560.4"/>
				<line class="st1" x1="838.9" y1="355.9" x2="838.9" y2="447.1"/>
				<line class="st1" x1="781.2" y1="297" x2="781.2" y2="417.8"/>
				<line class="st1" x1="767.5" y1="396.5" x2="767.5" y2="432.2"/>
				<line class="st1" x1="767.5" y1="270.6" x2="767.5" y2="306.4"/>
				<line class="st1" x1="781.2" y1="486.4" x2="781.2" y2="552.6"/>
			</g>
			<path class="st1" d="M861,426.8h5c17.3,0,31.3-14,31.3-31.3l0-27c0-7.2-5.8-13-13-13c-7.2,0-13,5.8-13,13v27.1
				c0,2.8-2.3,5.1-5.1,5.1c-2.8,0-5.1-2.3-5.1-5.1"/>
			<path class="st1" d="M863,412.8h3.1c10.5,0,19-8.5,19-19v-16.3"/>
		</g>
		<path class="st1" d="M9.2,293.7c-8.8,0-15.9-7.1-15.9-15.8"/>
		<path class="st1" d="M53.8,260.8v-77.6c0-8.7-7.1-15.8-15.9-15.8s-15.9,7.1-15.9,15.8v103.4"/>
		<path class="st1" d="M53.8,285.7h6.1c21,0,38-17,38-38l0-32.8c0-8.7-7.1-15.8-15.9-15.8s-15.9,7.1-15.9,15.8v33
			c0,3.4-2.8,6.2-6.2,6.2s-6.2-2.8-6.2-6.2"/>
		<path class="st1" d="M22.1,271.6c0,3.4-2.8,6.2-6.2,6.2s-6.2-2.8-6.2-6.2l0-31.6c0-8.7-7.1-15.8-15.9-15.8s-15.9,7.1-15.9,15.8
			l0,31.6c0,21,17,38,38,38h6.1"/>
		<path class="st1" d="M56.3,270.8H60c12.7,0,23-10.3,23-23V228"/>
		<g>
			<path class="st1" d="M187.8,410.8c-12.5,0-22.7-10.1-22.7-22.6"/>
			<line class="st1" x1="206.3" y1="302.6" x2="206.3" y2="379.2"/>
			<path class="st1" d="M251.6,335.1V172.4c0-12.5-10.1-22.6-22.7-22.6c-12.5,0-22.7,10.1-22.7,22.6v98"/>
			<path class="st1" d="M251.6,370.7h8.8c30,0,54.3-24.3,54.3-54.3l0-46.8c0-12.5-10.1-22.6-22.7-22.6c-12.5,0-22.7,10.1-22.7,22.6
				v47.1c0,4.9-4,8.9-8.9,8.9c-4.9,0-8.9-4-8.9-8.9"/>
			<path class="st1" d="M206.3,379.2c0,4.9-4,8.9-8.9,8.9c-4.9,0-8.9-4-8.9-8.9V334c0-12.5-10.1-22.6-22.7-22.6
				s-22.7,10.1-22.7,22.6l0,45.2c0,30,24.3,54.3,54.3,54.3h8.8"/>
			<path class="st1" d="M255.1,349.4h5.3c18.2,0,32.9-14.7,32.9-32.9v-28.2"/>
			<path class="st1" d="M206.3,302.2h-5c-17.3,0-31.3-14-31.3-31.3l0-27c0-7.2,5.8-13,13-13s13,5.8,13,13V271c0,2.8,2.3,5.1,5.1,5.1
				s5.1-2.3,5.1-5.1"/>
			<path class="st1" d="M204.3,289.9h-3.1c-10.5,0-19-8.5-19-19"/>
			<line class="st1" x1="251.6" y1="370.8" x2="251.6" y2="468.5"/>
			<line class="st1" x1="206.3" y1="412" x2="206.3" y2="504.4"/>
			<line class="st1" x1="165.2" y1="335.7" x2="165.2" y2="373.2"/>
			<line class="st1" x1="223" y1="178.4" x2="223" y2="322.4"/>
			<line class="st1" x1="236.7" y1="301.1" x2="236.7" y2="336.9"/>
			<line class="st1" x1="223" y1="391.1" x2="223" y2="475.1"/>
			<path class="st1" d="M143.1,355h-4.2c-14.4,0-26.2-11.7-26.2-26.2l0-22.5c0-6,4.9-10.9,10.9-10.9s10.9,4.9,10.9,10.9V329
				c0,2.4,1.9,4.3,4.3,4.3s4.6-1.9,4.6-3.2"/>
			<path class="st1" d="M141.4,344.7h-2.6c-8.8,0-15.8-7.1-15.8-15.8v-13.6"/>
		</g>
		<line class="st1" x1="53.8" y1="280.8" x2="53.8" y2="346.7"/>
		<line class="st1" x1="22.1" y1="309.6" x2="22.1" y2="334.2"/>
		<line class="st1" x1="-6.7" y1="241.1" x2="-6.7" y2="267.4"/>
		<line class="st1" x1="33.8" y1="187.3" x2="33.8" y2="246.9"/>
		<line class="st1" x1="43.4" y1="232" x2="43.4" y2="257"/>
		<line class="st1" x1="33.8" y1="294.9" x2="33.8" y2="328.7"/>
		<g>
			<g>
				<path class="st1" d="M-29.7,484.7c12.5,0,22.7-10.1,22.7-22.6"/>
				<path class="st1" d="M-93.5,437.6V255.3c0-12.5,10.1-22.6,22.7-22.6s22.7,10.1,22.7,22.6v219.3"/>
				<path class="st1" d="M-93.5,473.2h-8.8c-30,0-54.3-24.3-54.3-54.3l0-46.8c0-12.5,10.1-22.6,22.7-22.6s22.7,10.1,22.7,22.6v47.1
					c0,4.9,4,8.9,8.9,8.9c4.9,0,8.9-4,8.9-8.9"/>
				<path class="st1" d="M15,420.9l0,32.1c0,30-24.3,54.3-54.3,54.3h-8.8"/>
				<path class="st1" d="M-48.2,453.1c0,4.9,4,8.9,8.9,8.9s8.9-4,8.9-8.9v-98.9c0-12.5,10.1-22.6,22.7-22.6S15,341.7,15,354.2
					l0,40.8"/>
				<path class="st1" d="M-97,451.9h-5.3c-18.2,0-32.9-14.7-32.9-32.9v-28.2"/>
				<line class="st1" x1="-93.5" y1="466.2" x2="-93.5" y2="546"/>
				<line class="st1" x1="-48.2" y1="507.4" x2="-48.2" y2="560.4"/>
				<line class="st1" x1="-7.1" y1="355.9" x2="-7.1" y2="447.1"/>
				<line class="st1" x1="-64.9" y1="297" x2="-64.9" y2="417.8"/>
				<line class="st1" x1="-78.6" y1="396.5" x2="-78.6" y2="432.2"/>
				<line class="st1" x1="-78.6" y1="270.6" x2="-78.6" y2="306.4"/>
				<line class="st1" x1="-64.9" y1="486.4" x2="-64.9" y2="552.6"/>
			</g>
			<path class="st1" d="M15,426.8h5c17.3,0,31.3-14,31.3-31.3l0-27c0-7.2-5.8-13-13-13s-13,5.8-13,13v27.1c0,2.8-2.3,5.1-5.1,5.1
				s-5.1-2.3-5.1-5.1"/>
			<path class="st1" d="M17,412.8h3.1c10.5,0,19-8.5,19-19v-16.3"/>
		</g>
		<path class="st1" d="M739.2,322.8c-8.8,0-15.9-7.1-15.9-15.8"/>
		<path class="st1" d="M752.5,302.5c0,3.4-3.2,6.2-6.6,6.2c-3.4,0-6.2-2.8-6.2-6.2v-31.6c0-8.7-7.1-15.8-15.9-15.8
			s-15.9,7.1-15.9,15.8v31.6c0,21,17,38,38,38h6.1"/>
		<line class="st1" x1="723.4" y1="270.3" x2="723.4" y2="296.5"/>
	</g>
</g>
</svg>
