<?xml version="1.0" encoding="utf-8"?>
<!-- Generator: Adobe Illustrator 19.1.0, SVG Export Plug-In . SVG Version: 6.00 Build 0)  -->
<svg version="1.1" id="Layer_1" xmlns="http://www.w3.org/2000/svg" xmlns:xlink="http://www.w3.org/1999/xlink" x="0px" y="0px"
	 viewBox="0 0 1692 719.6" style="enable-background:new 0 0 1692 719.6;" xml:space="preserve">
<style type="text/css">
	.st0{fill:#FFFFFF;}
	.st1{fill:none;}
	.st2{font-family:'GTWalsheim';}
	.st3{font-size:23.9806px;}
	.st4{fill:#2D2A2B;}
	.st5{fill:none;stroke:#F0F1F1;stroke-width:2.4186;stroke-miterlimit:10;}
	.st6{fill:none;stroke:#A6A8AB;stroke-width:0.6237;stroke-miterlimit:10;}
	.st7{fill:none;stroke:#A6A8AB;stroke-width:0.3339;stroke-linecap:round;stroke-miterlimit:10;}
	.st8{fill:none;stroke:#A6A8AB;stroke-width:1.2138;stroke-linecap:round;stroke-miterlimit:10;}
	.st9{fill:#99BD67;}
	.st10{fill:none;stroke:#F0F1F1;stroke-width:2.4121;stroke-miterlimit:10;}
	.st11{fill:none;stroke:#99BD67;stroke-width:1.1062;stroke-miterlimit:10;}
	.st12{opacity:0.5;fill:none;stroke:#A6A8AB;stroke-width:1.2138;stroke-linecap:round;stroke-miterlimit:10;}
	.st13{opacity:0.5;}
	.st14{fill:none;stroke:#A6A8AB;stroke-width:1.1062;stroke-miterlimit:10;}
	.st15{fill:none;stroke:#A6A8AB;stroke-width:0.6254;stroke-miterlimit:10;}
	.st16{fill:none;stroke:#A6A8AB;stroke-width:0.3348;stroke-linecap:round;stroke-miterlimit:10;}
	.st17{fill:none;stroke:#A6A8AB;stroke-width:1.2171;stroke-linecap:round;stroke-miterlimit:10;}
	.st18{fill:none;stroke:#A6A8AB;stroke-width:1.2171;stroke-miterlimit:10;}
	.st19{fill:none;stroke:#99BD67;stroke-linecap:round;stroke-miterlimit:10;}
</style>
<g>
	<g>
		<path class="st0" d="M695.7,131.1h-14.5v16.7h-9.7v-42h9.7v17h14.5v-17h9.7v42h-9.7V131.1z"/>
		<path class="st0" d="M711.3,133.4c0-8.3,6.1-15.2,16.1-15.2s16,7,16,15.2s-6,15.2-16,15.2S711.3,141.6,711.3,133.4z M734.2,133.4
			c0-4-2.8-7.4-7-7.4c-4.1,0-6.8,3.4-6.8,7.4c0,4.1,2.7,7.4,6.8,7.4C731.5,140.7,734.2,137.4,734.2,133.4z"/>
		<path class="st0" d="M769,129.4l-5.9,18.4h-7.4l-10.8-28.9h9.5l5.3,17.2l5.1-17.2h8.5l5.1,17.2l5.3-17.2h9.5l-10.8,28.9h-7.4
			L769,129.4z"/>
		<path class="st0" d="M817.9,114.2h-9.5v-8.4h28.7v8.4h-9.5v33.6h-9.7V114.2z"/>
		<path class="st0" d="M835.2,133.4c0-8.3,6.1-15.2,16.1-15.2s16,7,16,15.2s-6,15.2-16,15.2S835.2,141.6,835.2,133.4z M858.2,133.4
			c0-4-2.8-7.4-7-7.4c-4.1,0-6.8,3.4-6.8,7.4c0,4.1,2.7,7.4,6.8,7.4C855.4,140.7,858.2,137.4,858.2,133.4z"/>
		<path class="st0" d="M887.8,105.8h17.6c9.3,0,15.3,7,15.3,15.2c0,8.2-6,15.2-15.3,15.2h-7.9v11.6h-9.7V105.8z M910.9,121
			c0-3.9-2.6-7.3-6.7-7.3h-6.7v14.5h6.7C908.2,128.3,910.9,124.9,910.9,121z"/>
		<path class="st0" d="M925.7,105.8h9.2v42h-9.2V105.8z"/>
		<path class="st0" d="M973,118.9v28.9h-9.2v-4.1c-1.4,2.6-4.8,4.8-9.2,4.8c-7.7,0-13.7-6.5-13.7-15.2s6-15.2,13.7-15.2
			c4.3,0,7.7,2,9.2,4.9v-4.1H973z M963.8,133.4c0-4-2.8-7.4-6.9-7.4s-6.9,3.4-6.9,7.4c0,4,2.8,7.4,6.9,7.4S963.8,137.4,963.8,133.4z
			"/>
		<path class="st0" d="M980.4,150h9c0.1,2.8,1.7,4.9,5.7,4.9c3.8,0,5.7-1.9,5.7-6.8v-4.9c-1.6,3.1-5,4.9-9.5,4.9c-4,0-6.5-1.4-8-3.3
			c-1.8-2.2-2.2-5-2.2-9.2v-16.7h9.1v14.8c0,4.1,1.3,7,5.1,7c3.8,0,5.6-2.9,5.6-7.3v-14.5h9.2v28.7c0,9.8-4.6,14-14.6,14
			C984.7,161.7,980.4,156.9,980.4,150z"/>
	</g>
</g>
<g>
	<rect x="121.4" y="311.4" class="st1" width="300.8" height="90.7"/>
	<text transform="matrix(1 0 0 1 145.4563 331.8281)"><tspan x="0" y="0" class="st0 st2 st3">The first player’s move </tspan><tspan x="5.6" y="36" class="st0 st2 st3">can go on any board. </tspan></text>
</g>
<g>
	<g>
		<circle class="st0" cx="271.8" cy="260.7" r="24.4"/>
	</g>
	<g>
		<path class="st4" d="M266,253.9c3.8,0,4.6-1.1,4.6-3.4h4v19.6H270v-13h-4V253.9z"/>
	</g>
</g>
<g>
	<ellipse class="st0" cx="271.8" cy="508.9" rx="107.9" ry="107.6"/>
	<ellipse class="st5" cx="271.8" cy="508.9" rx="107.9" ry="107.6"/>
</g>
<g>
	<g>
		<line class="st6" x1="249.4" y1="441.7" x2="249.4" y2="576.1"/>
		<line class="st6" x1="294.3" y1="441.7" x2="294.3" y2="576.1"/>
		<line class="st6" x1="339.2" y1="486.5" x2="204.4" y2="486.5"/>
		<line class="st6" x1="339.2" y1="531.3" x2="204.4" y2="531.3"/>
	</g>
	<g>
		<line class="st7" x1="277.9" y1="490.9" x2="277.9" y2="526.9"/>
		<line class="st7" x1="265.8" y1="490.9" x2="265.8" y2="526.9"/>
		<line class="st7" x1="289.9" y1="514.9" x2="253.8" y2="514.9"/>
		<line class="st7" x1="289.9" y1="502.9" x2="253.8" y2="502.9"/>
	</g>
	<g>
		<line class="st7" x1="232.9" y1="490.9" x2="232.9" y2="526.9"/>
		<line class="st7" x1="220.9" y1="490.9" x2="220.9" y2="526.9"/>
		<line class="st7" x1="245" y1="514.9" x2="208.9" y2="514.9"/>
		<line class="st7" x1="245" y1="502.9" x2="208.9" y2="502.9"/>
	</g>
	<g>
		<line class="st7" x1="322.8" y1="490.9" x2="322.8" y2="526.9"/>
		<line class="st7" x1="310.8" y1="490.9" x2="310.8" y2="526.9"/>
		<line class="st7" x1="334.8" y1="514.9" x2="298.7" y2="514.9"/>
		<line class="st7" x1="334.8" y1="502.9" x2="298.7" y2="502.9"/>
	</g>
	<g>
		<line class="st7" x1="277.9" y1="446.1" x2="277.9" y2="482.1"/>
		<line class="st7" x1="265.8" y1="446.1" x2="265.8" y2="482.1"/>
		<line class="st7" x1="289.9" y1="470.1" x2="253.8" y2="470.1"/>
		<line class="st7" x1="289.9" y1="458.1" x2="253.8" y2="458.1"/>
	</g>
	<g>
		<line class="st7" x1="277.9" y1="535.7" x2="277.9" y2="571.7"/>
		<line class="st7" x1="265.8" y1="535.7" x2="265.8" y2="571.7"/>
		<line class="st7" x1="289.9" y1="559.7" x2="253.8" y2="559.7"/>
		<line class="st7" x1="289.9" y1="547.7" x2="253.8" y2="547.7"/>
	</g>
	<g>
		<line class="st7" x1="232.9" y1="446.1" x2="232.9" y2="482.1"/>
		<line class="st7" x1="220.9" y1="446.1" x2="220.9" y2="482.1"/>
		<line class="st7" x1="245" y1="470.1" x2="208.9" y2="470.1"/>
		<line class="st7" x1="245" y1="458.1" x2="208.9" y2="458.1"/>
	</g>
	<g>
		<line class="st7" x1="322.8" y1="535.7" x2="322.8" y2="571.7"/>
		<line class="st7" x1="310.8" y1="535.7" x2="310.8" y2="571.7"/>
		<line class="st7" x1="334.8" y1="559.7" x2="298.7" y2="559.7"/>
		<line class="st7" x1="334.8" y1="547.7" x2="298.7" y2="547.7"/>
	</g>
	<g>
		<line class="st7" x1="322.8" y1="446.1" x2="322.8" y2="482.1"/>
		<line class="st7" x1="310.8" y1="446.1" x2="310.8" y2="482.1"/>
		<line class="st7" x1="334.8" y1="470.1" x2="298.7" y2="470.1"/>
		<line class="st7" x1="334.8" y1="458.1" x2="298.7" y2="458.1"/>
	</g>
	<g>
		<line class="st7" x1="232.9" y1="535.7" x2="232.9" y2="571.7"/>
		<line class="st7" x1="220.9" y1="535.7" x2="220.9" y2="571.7"/>
		<line class="st7" x1="245" y1="559.7" x2="208.9" y2="559.7"/>
		<line class="st7" x1="245" y1="547.7" x2="208.9" y2="547.7"/>
	</g>
</g>
<ellipse class="st8" cx="226.9" cy="464.1" rx="3.5" ry="3.5"/>
<g>
	<path class="st9" d="M339.2,442.4v133.7H205.2V442.4H339.2 M340.8,440.8h-1.6H205.2h-1.6v1.6v133.7v1.6h1.6h134.1h1.6v-1.6V442.4
		V440.8L340.8,440.8z"/>
</g>
<g>
	<rect x="886" y="311.4" class="st1" width="298.5" height="90.7"/>
	<text transform="matrix(1 0 0 1 903.7925 331.8281)"><tspan x="0" y="0" class="st0 st2 st3">Win a board by getting </tspan><tspan x="50.9" y="36" class="st0 st2 st3">three in a row.</tspan></text>
</g>
<g>
	<g>
		<circle class="st0" cx="1035.2" cy="260.7" r="24.4"/>
	</g>
	<g>
		<path class="st4" d="M1032.8,263.5c0,2.1,1.2,3.4,3,3.4c1.7,0,2.6-1.1,2.6-2.7c0-1.4-0.8-2.6-2.9-2.6h-1.8v-3.5h1.8
			c2,0,2.6-1,2.6-2.3c0-1.6-0.9-2.3-2.3-2.3c-1.9,0-2.4,1.2-2.4,2.9h-4.5c0-3.3,2.1-6.3,6.8-6.3c3.7,0,6.9,1.8,6.9,5.4
			c0,2.3-1.3,3.8-2.9,4.4c1.8,0.6,3.2,2.2,3.2,4.7c0,3.7-3.2,5.9-7.2,5.9c-4.6,0-7.4-2.9-7.4-7H1032.8z"/>
	</g>
</g>
<g>
	<ellipse class="st0" cx="1035.2" cy="508.9" rx="107.9" ry="107.6"/>
	<ellipse class="st10" cx="1035.2" cy="508.9" rx="107.9" ry="107.6"/>
</g>
<g>
	<g>
		<line class="st6" x1="1012.7" y1="441.7" x2="1012.7" y2="576.1"/>
		<line class="st6" x1="1057.7" y1="441.7" x2="1057.7" y2="576.1"/>
		<line class="st6" x1="1102.6" y1="486.5" x2="967.8" y2="486.5"/>
		<line class="st6" x1="1102.6" y1="531.3" x2="967.8" y2="531.3"/>
	</g>
	<g>
		<line class="st7" x1="1041.2" y1="490.9" x2="1041.2" y2="526.9"/>
		<line class="st7" x1="1029.2" y1="490.9" x2="1029.2" y2="526.9"/>
		<line class="st7" x1="1053.2" y1="514.9" x2="1017.2" y2="514.9"/>
		<line class="st7" x1="1053.2" y1="502.9" x2="1017.2" y2="502.9"/>
	</g>
	<g>
		<line class="st7" x1="996.3" y1="490.9" x2="996.3" y2="526.9"/>
		<line class="st7" x1="984.3" y1="490.9" x2="984.3" y2="526.9"/>
		<line class="st7" x1="1008.3" y1="514.9" x2="972.2" y2="514.9"/>
		<line class="st7" x1="1008.3" y1="502.9" x2="972.2" y2="502.9"/>
	</g>
	<g>
		<line class="st7" x1="1086.2" y1="490.9" x2="1086.2" y2="526.9"/>
		<line class="st7" x1="1074.1" y1="490.9" x2="1074.1" y2="526.9"/>
		<line class="st7" x1="1098.2" y1="514.9" x2="1062.1" y2="514.9"/>
		<line class="st7" x1="1098.2" y1="502.9" x2="1062.1" y2="502.9"/>
	</g>
	<g>
		<line class="st7" x1="1041.2" y1="446.1" x2="1041.2" y2="482.1"/>
		<line class="st7" x1="1029.2" y1="446.1" x2="1029.2" y2="482.1"/>
		<line class="st7" x1="1053.2" y1="470.1" x2="1017.2" y2="470.1"/>
		<line class="st7" x1="1053.2" y1="458.1" x2="1017.2" y2="458.1"/>
	</g>
	<g>
		<line class="st7" x1="1041.2" y1="535.7" x2="1041.2" y2="571.7"/>
		<line class="st7" x1="1029.2" y1="535.7" x2="1029.2" y2="571.7"/>
		<line class="st7" x1="1053.2" y1="559.7" x2="1017.2" y2="559.7"/>
		<line class="st7" x1="1053.2" y1="547.7" x2="1017.2" y2="547.7"/>
	</g>
	<g>
		<line class="st7" x1="996.3" y1="446.1" x2="996.3" y2="482.1"/>
		<line class="st7" x1="984.3" y1="446.1" x2="984.3" y2="482.1"/>
		<line class="st7" x1="1008.3" y1="470.1" x2="972.2" y2="470.1"/>
		<line class="st7" x1="1008.3" y1="458.1" x2="972.2" y2="458.1"/>
	</g>
	<g>
		<line class="st7" x1="1086.2" y1="535.7" x2="1086.2" y2="571.7"/>
		<line class="st7" x1="1074.1" y1="535.7" x2="1074.1" y2="571.7"/>
		<line class="st7" x1="1098.2" y1="559.7" x2="1062.1" y2="559.7"/>
		<line class="st7" x1="1098.2" y1="547.7" x2="1062.1" y2="547.7"/>
	</g>
	<g>
		<line class="st7" x1="1086.2" y1="446.1" x2="1086.2" y2="482.1"/>
		<line class="st7" x1="1074.1" y1="446.1" x2="1074.1" y2="482.1"/>
		<line class="st7" x1="1098.2" y1="470.1" x2="1062.1" y2="470.1"/>
		<line class="st7" x1="1098.2" y1="458.1" x2="1062.1" y2="458.1"/>
	</g>
	<g>
		<line class="st7" x1="996.3" y1="535.7" x2="996.3" y2="571.7"/>
		<line class="st7" x1="984.3" y1="535.7" x2="984.3" y2="571.7"/>
		<line class="st7" x1="1008.3" y1="559.7" x2="972.2" y2="559.7"/>
		<line class="st7" x1="1008.3" y1="547.7" x2="972.2" y2="547.7"/>
	</g>
</g>
<g>
	<line class="st11" x1="1039.7" y1="504.5" x2="1030.7" y2="513.3"/>
	<line class="st11" x1="1039.7" y1="513.3" x2="1030.7" y2="504.5"/>
</g>
<g>
	<line class="st11" x1="1053" y1="517.8" x2="1044.1" y2="526.6"/>
	<line class="st11" x1="1053" y1="526.6" x2="1044.1" y2="517.8"/>
</g>
<g>
	<line class="st11" x1="1027" y1="491.8" x2="1018" y2="500.6"/>
	<line class="st11" x1="1027" y1="500.6" x2="1018" y2="491.8"/>
</g>
<g>
	<ellipse class="st12" cx="990.2" cy="464.1" rx="3.5" ry="3.5"/>
	<ellipse class="st12" cx="1092.7" cy="553.7" rx="3.5" ry="3.5"/>
	<ellipse class="st12" cx="1080.1" cy="496.2" rx="3.5" ry="3.5"/>
	<ellipse class="st12" cx="1047.8" cy="496.2" rx="3.5" ry="3.5"/>
	<ellipse class="st12" cx="1023.3" cy="521.9" rx="3.5" ry="3.5"/>
	<ellipse class="st12" cx="1080.1" cy="464.1" rx="3.5" ry="3.5"/>
	<g class="st13">
		<line class="st14" x1="1097.2" y1="459.7" x2="1088.2" y2="468.5"/>
		<line class="st14" x1="1097.2" y1="468.5" x2="1088.2" y2="459.7"/>
	</g>
	<g class="st13">
		<line class="st14" x1="1084.6" y1="549.3" x2="1075.7" y2="558.1"/>
		<line class="st14" x1="1084.6" y1="558.1" x2="1075.7" y2="549.3"/>
	</g>
	<g class="st13">
		<line class="st14" x1="1053.2" y1="446.3" x2="1044.3" y2="455.1"/>
		<line class="st14" x1="1053.2" y1="455.1" x2="1044.3" y2="446.3"/>
	</g>
</g>
<polygon class="st9" points="1055.2,525.5 1038.6,508.9 1055.1,492.4 1051.7,489.1 1035.2,505.5 1018.9,489.2 1015.5,492.6 
	1031.8,508.9 1015.3,525.4 1018.7,528.8 1035.2,512.3 1051.8,528.9 "/>
<g>
	<rect x="1272.7" y="311.4" class="st1" width="294.3" height="90.7"/>
	<text transform="matrix(1 0 0 1 1276.3 331.8281)"><tspan x="0" y="0" class="st0 st2 st3">Win the game by winning </tspan><tspan x="9.5" y="36" class="st0 st2 st3">3 small boards in a row. </tspan></text>
</g>
<g>
	<g>
		<circle class="st0" cx="1419.9" cy="260.7" r="24.4"/>
	</g>
	<g>
		<path class="st4" d="M1421.2,264.7h-7.8v-14.2h4.5v10.4h3.3v-5.4h4.5v5.4h2.4v3.8h-2.4v5.4h-4.5V264.7z"/>
	</g>
</g>
<g>
	<ellipse class="st0" cx="1420.4" cy="508.9" rx="107.9" ry="107.6"/>
	<ellipse class="st10" cx="1420.4" cy="508.9" rx="107.9" ry="107.6"/>
</g>
<g>
	<g>
		<line class="st6" x1="1398" y1="441.7" x2="1398" y2="576.1"/>
		<line class="st6" x1="1442.9" y1="441.7" x2="1442.9" y2="576.1"/>
		<line class="st6" x1="1487.8" y1="486.5" x2="1353" y2="486.5"/>
		<line class="st6" x1="1487.8" y1="531.3" x2="1353" y2="531.3"/>
	</g>
	<g>
		<line class="st7" x1="1426.4" y1="490.9" x2="1426.4" y2="526.9"/>
		<line class="st7" x1="1414.4" y1="490.9" x2="1414.4" y2="526.9"/>
		<line class="st7" x1="1438.5" y1="514.9" x2="1402.4" y2="514.9"/>
		<line class="st7" x1="1438.5" y1="502.9" x2="1402.4" y2="502.9"/>
	</g>
	<g>
		<line class="st7" x1="1381.5" y1="490.9" x2="1381.5" y2="526.9"/>
		<line class="st7" x1="1369.5" y1="490.9" x2="1369.5" y2="526.9"/>
		<line class="st7" x1="1393.5" y1="514.9" x2="1357.4" y2="514.9"/>
		<line class="st7" x1="1393.5" y1="502.9" x2="1357.4" y2="502.9"/>
	</g>
	<g>
		<line class="st7" x1="1471.4" y1="490.9" x2="1471.4" y2="526.9"/>
		<line class="st7" x1="1459.3" y1="490.9" x2="1459.3" y2="526.9"/>
		<line class="st7" x1="1483.4" y1="514.9" x2="1447.3" y2="514.9"/>
		<line class="st7" x1="1483.4" y1="502.9" x2="1447.3" y2="502.9"/>
	</g>
	<g>
		<line class="st7" x1="1426.4" y1="446.1" x2="1426.4" y2="482.1"/>
		<line class="st7" x1="1414.4" y1="446.1" x2="1414.4" y2="482.1"/>
		<line class="st7" x1="1438.5" y1="470.1" x2="1402.4" y2="470.1"/>
		<line class="st7" x1="1438.5" y1="458.1" x2="1402.4" y2="458.1"/>
	</g>
	<g>
		<line class="st7" x1="1426.4" y1="535.7" x2="1426.4" y2="571.7"/>
		<line class="st7" x1="1414.4" y1="535.7" x2="1414.4" y2="571.7"/>
		<line class="st7" x1="1438.5" y1="559.7" x2="1402.4" y2="559.7"/>
		<line class="st7" x1="1438.5" y1="547.7" x2="1402.4" y2="547.7"/>
	</g>
	<g>
		<line class="st7" x1="1381.5" y1="446.1" x2="1381.5" y2="482.1"/>
		<line class="st7" x1="1369.5" y1="446.1" x2="1369.5" y2="482.1"/>
		<line class="st7" x1="1393.5" y1="470.1" x2="1357.4" y2="470.1"/>
		<line class="st7" x1="1393.5" y1="458.1" x2="1357.4" y2="458.1"/>
	</g>
	<g>
		<line class="st7" x1="1471.4" y1="535.7" x2="1471.4" y2="571.7"/>
		<line class="st7" x1="1459.3" y1="535.7" x2="1459.3" y2="571.7"/>
		<line class="st7" x1="1483.4" y1="559.7" x2="1447.3" y2="559.7"/>
		<line class="st7" x1="1483.4" y1="547.7" x2="1447.3" y2="547.7"/>
	</g>
	<g>
		<line class="st7" x1="1471.4" y1="446.1" x2="1471.4" y2="482.1"/>
		<line class="st7" x1="1459.3" y1="446.1" x2="1459.3" y2="482.1"/>
		<line class="st7" x1="1483.4" y1="470.1" x2="1447.3" y2="470.1"/>
		<line class="st7" x1="1483.4" y1="458.1" x2="1447.3" y2="458.1"/>
	</g>
	<g>
		<line class="st7" x1="1381.5" y1="535.7" x2="1381.5" y2="571.7"/>
		<line class="st7" x1="1369.5" y1="535.7" x2="1369.5" y2="571.7"/>
		<line class="st7" x1="1393.5" y1="559.7" x2="1357.4" y2="559.7"/>
		<line class="st7" x1="1393.5" y1="547.7" x2="1357.4" y2="547.7"/>
	</g>
</g>
<g>
	<line class="st11" x1="1424.9" y1="504.5" x2="1416" y2="513.3"/>
	<line class="st11" x1="1424.9" y1="513.3" x2="1416" y2="504.5"/>
</g>
<g>
	<line class="st11" x1="1438.2" y1="517.8" x2="1429.3" y2="526.6"/>
	<line class="st11" x1="1438.2" y1="526.6" x2="1429.3" y2="517.8"/>
</g>
<g>
	<line class="st11" x1="1412.2" y1="491.8" x2="1403.3" y2="500.6"/>
	<line class="st11" x1="1412.2" y1="500.6" x2="1403.3" y2="491.8"/>
</g>
<ellipse class="st12" cx="1375.4" cy="464.1" rx="3.5" ry="3.5"/>
<ellipse class="st12" cx="1477.9" cy="553.7" rx="3.5" ry="3.5"/>
<ellipse class="st12" cx="1465.4" cy="496.2" rx="3.5" ry="3.5"/>
<ellipse class="st12" cx="1433" cy="496.2" rx="3.5" ry="3.5"/>
<ellipse class="st12" cx="1408.5" cy="521.9" rx="3.5" ry="3.5"/>
<ellipse class="st12" cx="1465.4" cy="464.1" rx="3.5" ry="3.5"/>
<g class="st13">
	<line class="st14" x1="1482.4" y1="459.7" x2="1473.5" y2="468.5"/>
	<line class="st14" x1="1482.4" y1="468.5" x2="1473.5" y2="459.7"/>
</g>
<g class="st13">
	<line class="st14" x1="1438.5" y1="446.3" x2="1429.5" y2="455.1"/>
	<line class="st14" x1="1438.5" y1="455.1" x2="1429.5" y2="446.3"/>
</g>
<polygon class="st9" points="1440.4,525.5 1423.8,508.9 1440.3,492.4 1436.9,489.1 1420.4,505.5 1404.1,489.2 1400.7,492.6 
	1417,508.9 1400.6,525.4 1403.9,528.8 1420.4,512.3 1437,528.9 "/>
<polygon class="st9" points="1395.5,480.6 1378.9,464 1395.3,447.5 1392,444.1 1375.5,460.6 1359.1,444.2 1355.7,447.6 1372.1,464 
	1355.6,480.5 1359,483.8 1375.5,467.4 1392.1,484 "/>
<g>
	<line class="st11" x1="1469.8" y1="562.6" x2="1460.9" y2="571.4"/>
	<line class="st11" x1="1469.8" y1="571.4" x2="1460.9" y2="562.6"/>
</g>
<g>
	<line class="st11" x1="1469.8" y1="549.3" x2="1460.9" y2="558.1"/>
	<line class="st11" x1="1469.8" y1="558.1" x2="1460.9" y2="549.3"/>
</g>
<g>
	<line class="st11" x1="1469.8" y1="536.6" x2="1460.9" y2="545.4"/>
	<line class="st11" x1="1469.8" y1="545.4" x2="1460.9" y2="536.6"/>
</g>
<g>
	<line class="st11" x1="1392.9" y1="472.7" x2="1384" y2="481.5"/>
	<line class="st11" x1="1392.9" y1="481.5" x2="1384" y2="472.7"/>
</g>
<g>
	<line class="st11" x1="1392.9" y1="446.7" x2="1384" y2="455.5"/>
	<line class="st11" x1="1392.9" y1="455.5" x2="1384" y2="446.7"/>
</g>
<g>
	<line class="st11" x1="1392.9" y1="459.7" x2="1384" y2="468.5"/>
	<line class="st11" x1="1392.9" y1="468.5" x2="1384" y2="459.7"/>
</g>
<polygon class="st9" points="1485.2,570.3 1468.6,553.7 1485.1,537.2 1481.7,533.9 1465.2,550.3 1448.9,534 1445.5,537.4 
	1461.8,553.7 1445.4,570.2 1448.8,573.6 1465.2,557.1 1481.8,573.7 "/>
<g>
	<rect x="453.1" y="311.4" class="st1" width="402.6" height="90.7"/>
	<text transform="matrix(1 0 0 1 464.4275 331.8281)"><tspan x="0" y="0" class="st0 st2 st3">The following move is then played </tspan><tspan x="33.2" y="36" class="st0 st2 st3">in the corresponding board. </tspan></text>
</g>
<g>
	<g>
		<circle class="st0" cx="654.4" cy="260.7" r="24.4"/>
	</g>
	<g>
		<path class="st4" d="M653.4,259.9c2.3-1.4,4.1-2.2,4.1-4.3c0-1.5-1-2.2-2.2-2.2c-1.4,0-2.5,0.8-2.5,2.9h-4.5
			c0-3.6,2.5-6.3,6.9-6.3c3.7,0,6.8,1.9,6.8,5.7c0,3.4-2.5,5-5.1,6.7c-2.6,1.7-3.4,2.2-3.4,4h8.4v3.7h-13.6
			C648.2,263.7,650.3,261.8,653.4,259.9z"/>
	</g>
</g>
<g>
	<ellipse class="st0" cx="654.4" cy="508.9" rx="107.9" ry="107.6"/>
	<ellipse class="st5" cx="654.4" cy="508.9" rx="107.9" ry="107.6"/>
</g>
<g>
	<g>
		<g>
			<line class="st15" x1="631.9" y1="441.5" x2="631.9" y2="576.3"/>
			<line class="st15" x1="676.9" y1="441.5" x2="676.9" y2="576.3"/>
			<line class="st15" x1="722" y1="486.4" x2="586.8" y2="486.4"/>
			<line class="st15" x1="722" y1="531.4" x2="586.8" y2="531.4"/>
		</g>
		<g>
			<line class="st16" x1="660.4" y1="490.9" x2="660.4" y2="527"/>
			<line class="st16" x1="648.4" y1="490.9" x2="648.4" y2="527"/>
			<line class="st16" x1="672.5" y1="514.9" x2="636.3" y2="514.9"/>
			<line class="st16" x1="672.5" y1="502.9" x2="636.3" y2="502.9"/>
		</g>
		<g>
			<line class="st16" x1="615.4" y1="490.9" x2="615.4" y2="527"/>
			<line class="st16" x1="603.3" y1="490.9" x2="603.3" y2="527"/>
			<line class="st16" x1="627.4" y1="514.9" x2="591.3" y2="514.9"/>
			<line class="st16" x1="627.4" y1="502.9" x2="591.3" y2="502.9"/>
		</g>
		<g>
			<line class="st16" x1="705.5" y1="490.9" x2="705.5" y2="527"/>
			<line class="st16" x1="693.4" y1="490.9" x2="693.4" y2="527"/>
			<line class="st16" x1="717.5" y1="514.9" x2="681.4" y2="514.9"/>
			<line class="st16" x1="717.5" y1="502.9" x2="681.4" y2="502.9"/>
		</g>
		<g>
			<line class="st16" x1="660.4" y1="445.9" x2="660.4" y2="482"/>
			<line class="st16" x1="648.4" y1="445.9" x2="648.4" y2="482"/>
			<line class="st16" x1="672.5" y1="470" x2="636.3" y2="470"/>
			<line class="st16" x1="672.5" y1="458" x2="636.3" y2="458"/>
		</g>
		<g>
			<line class="st16" x1="660.4" y1="535.8" x2="660.4" y2="571.9"/>
			<line class="st16" x1="648.4" y1="535.8" x2="648.4" y2="571.9"/>
			<line class="st16" x1="672.5" y1="559.9" x2="636.3" y2="559.9"/>
			<line class="st16" x1="672.5" y1="547.8" x2="636.3" y2="547.8"/>
		</g>
		<g>
			<line class="st16" x1="615.4" y1="445.9" x2="615.4" y2="482"/>
			<line class="st16" x1="603.3" y1="445.9" x2="603.3" y2="482"/>
			<line class="st16" x1="627.4" y1="470" x2="591.3" y2="470"/>
			<line class="st16" x1="627.4" y1="458" x2="591.3" y2="458"/>
		</g>
		<g>
			<line class="st16" x1="705.5" y1="535.8" x2="705.5" y2="571.9"/>
			<line class="st16" x1="693.4" y1="535.8" x2="693.4" y2="571.9"/>
			<line class="st16" x1="717.5" y1="559.9" x2="681.4" y2="559.9"/>
			<line class="st16" x1="717.5" y1="547.8" x2="681.4" y2="547.8"/>
		</g>
		<g>
			<line class="st16" x1="705.5" y1="445.9" x2="705.5" y2="482"/>
			<line class="st16" x1="693.4" y1="445.9" x2="693.4" y2="482"/>
			<line class="st16" x1="717.5" y1="470" x2="681.4" y2="470"/>
			<line class="st16" x1="717.5" y1="458" x2="681.4" y2="458"/>
		</g>
		<g>
			<line class="st16" x1="615.4" y1="535.8" x2="615.4" y2="571.9"/>
			<line class="st16" x1="603.3" y1="535.8" x2="603.3" y2="571.9"/>
			<line class="st16" x1="627.4" y1="559.9" x2="591.3" y2="559.9"/>
			<line class="st16" x1="627.4" y1="547.8" x2="591.3" y2="547.8"/>
		</g>
	</g>
	<ellipse class="st17" cx="609.3" cy="463.9" rx="3.5" ry="3.5"/>
	<g>
		<line class="st18" x1="671.5" y1="517.2" x2="662.6" y2="526.1"/>
		<line class="st18" x1="671.5" y1="526.1" x2="662.6" y2="517.2"/>
	</g>
	<g>
		<path class="st9" d="M676.1,487.2v43.4h-43.6v-43.4H676.1 M677.7,485.6h-1.6h-43.6h-1.6v1.6v43.4v1.6h1.6h43.6h1.6v-1.6v-43.4
			V485.6L677.7,485.6z"/>
	</g>
	<g>
		<path class="st9" d="M615,458.3v11.3h-11.4v-11.3H615 M616.6,456.7H615h-11.4h-1.6v1.6v11.3v1.6h1.6H615h1.6v-1.6v-11.3V456.7
			L616.6,456.7z"/>
	</g>
	<g>
		<line class="st19" x1="616.8" y1="471.3" x2="623.8" y2="478.4"/>
		<polyline class="st19" points="626.5,473.8 626.5,481.1 619.3,481.1 		"/>
	</g>
</g>
</svg>
