<?xml version="1.0" encoding="utf-8"?>
<!-- Generator: Adobe Illustrator 19.1.0, SVG Export Plug-In . SVG Version: 6.00 Build 0)  -->
<svg version="1.1" id="Layer_1" xmlns="http://www.w3.org/2000/svg" xmlns:xlink="http://www.w3.org/1999/xlink" x="0px" y="0px"
	 viewBox="0 0 1692 719.6" style="enable-background:new 0 0 1692 719.6;" xml:space="preserve">
<style type="text/css">
	.st0{fill:#FFFFFF;}
</style>
<g>
	<g>
		<path class="st0" d="M799.6,264.3h17.8v50.5c0,7,4.8,13,12.1,13c7.2,0,12.2-5.9,12.2-13v-50.5h17.8v50.6c0,15.8-11.5,28.2-30,28.2
			c-18.3,0-29.9-12.4-29.9-28.2V264.3z"/>
		<path class="st0" d="M872.8,264.3h16.8v76.9h-16.8V264.3z"/>
		<path class="st0" d="M936.9,341.2c-2.5,0.4-6.1,0.9-11.3,0.9c-7.8,0-18.7-1-18.7-18.7v-22.6h-8.3v-12.5h8.3v-15.7h16.7v15.7h12.1
			v12.5h-12.1v18.9c0,7.9,3.1,9,7.7,9c1.4,0,4.1-0.1,5.6-0.3V341.2z"/>
		<path class="st0" d="M956.2,260c6.1,0,10.9,4.7,10.9,10.7c0,5.8-4.7,10.7-10.9,10.7c-6,0-10.8-4.8-10.8-10.7
			C945.4,264.8,950.2,260,956.2,260z M947.8,288.3h16.8v52.9h-16.8V288.3z"/>
		<path class="st0" d="M1047.4,341.2v-28.5c0-7.1-2.4-11.4-8.1-11.4c-5.1,0-8.9,3.2-8.9,13.4v26.6h-16.3v-28.7
			c0-7.1-2.3-11.3-8-11.3c-5.1,0-9,3.3-9,13.7v26.2h-16.3v-52.9h16.3v7.7c2.3-4.7,7.2-9,15.7-9c7.9,0,13.3,3.7,15.6,9.6
			c2.6-5.1,7.8-9.6,17.2-9.6c14.7,0,17.9,11,17.9,21.6v32.6H1047.4z"/>
		<path class="st0" d="M1132.7,288.3v52.9h-16.8v-7.5c-2.6,4.8-8.8,8.8-16.9,8.8c-14.1,0-25-12-25-27.8s11-27.8,25-27.8
			c7.8,0,14.1,3.7,16.9,8.9v-7.6H1132.7z M1115.9,314.7c0-7.2-5.1-13.5-12.6-13.5s-12.6,6.3-12.6,13.5c0,7.4,5.1,13.5,12.6,13.5
			S1115.9,322.1,1115.9,314.7z"/>
		<path class="st0" d="M1180.1,341.2c-2.5,0.4-6.1,0.9-11.3,0.9c-7.8,0-18.7-1-18.7-18.7v-22.6h-8.3v-12.5h8.3v-15.7h16.7v15.7h12.1
			v12.5h-12.1v18.9c0,7.9,3.1,9,7.7,9c1.4,0,4.1-0.1,5.6-0.3V341.2z"/>
		<path class="st0" d="M1201.5,318.8c0,6.4,3,11.7,11.4,11.7c5.9,0,8.7-2.6,9.9-6h16.5c-1.8,10-11,18.1-26.1,18.1
			c-18.6,0-28.5-12.3-28.5-27.9c0-15.5,9.9-27.9,27.8-27.9c17,0,27.6,11.2,27.6,25.9c0,2.1-0.1,3.2-0.5,6H1201.5z M1201.5,309.1h22
			c0-6.4-4.5-10.4-11-10.4C1206.2,298.7,1201.5,302.4,1201.5,309.1z"/>
		<path class="st0" d="M812.5,392.9h-17.3v-15.4h52.6v15.4h-17.5v61.5h-17.8V392.9z"/>
		<path class="st0" d="M866.8,373.3c6.1,0,10.9,4.7,10.9,10.7c0,5.8-4.7,10.7-10.9,10.7c-6,0-10.8-4.8-10.8-10.7
			C856.1,378,860.8,373.3,866.8,373.3z M858.5,401.5h16.8v52.9h-16.8V401.5z"/>
		<path class="st0" d="M927,422.2c-0.5-4.5-3.7-7.9-10-7.9c-8.7,0-12.2,6.4-12.2,13.6c0,7.4,3.6,13.6,12.5,13.6c5.7,0,8.3-2.5,9.8-7
			h16.8c-1.5,11.9-10.9,21.3-27.1,21.3c-19.1,0-28.8-13.2-28.8-27.9c0-14.6,9.7-27.9,28.8-27.9c17.5,0,26,11,27,22.2H927z"/>
		<path class="st0" d="M993.2,392.9h-17.3v-15.4h52.6v15.4H1011v61.5h-17.8V392.9z"/>
		<path class="st0" d="M1084.8,401.5v52.9H1068v-7.5c-2.6,4.8-8.8,8.8-16.9,8.8c-14.1,0-25-12-25-27.8s11-27.8,25-27.8
			c7.8,0,14.1,3.7,16.9,8.9v-7.6H1084.8z M1068,427.9c0-7.2-5.1-13.5-12.6-13.5s-12.6,6.3-12.6,13.5c0,7.4,5.1,13.5,12.6,13.5
			S1068,435.3,1068,427.9z"/>
		<path class="st0" d="M1134.5,422.2c-0.5-4.5-3.7-7.9-10-7.9c-8.7,0-12.2,6.4-12.2,13.6c0,7.4,3.6,13.6,12.5,13.6
			c5.7,0,8.3-2.5,9.8-7h16.8c-1.5,11.9-10.9,21.3-27.1,21.3c-19.1,0-28.8-13.2-28.8-27.9c0-14.6,9.7-27.9,28.8-27.9
			c17.5,0,26,11,27,22.2H1134.5z"/>
		<path class="st0" d="M1200.7,392.9h-17.3v-15.4h52.6v15.4h-17.5v61.5h-17.8V392.9z"/>
		<path class="st0" d="M1232.3,427.9c0-15.2,11.1-27.9,29.4-27.9s29.3,12.7,29.3,27.9c0,15.2-11,27.9-29.3,27.9
			S1232.3,443.1,1232.3,427.9z M1274.4,427.9c0-7.4-5.1-13.5-12.7-13.5c-7.6,0-12.5,6.1-12.5,13.5c0,7.5,4.9,13.5,12.5,13.5
			C1269.3,441.5,1274.4,435.4,1274.4,427.9z"/>
		<path class="st0" d="M1315.2,432c0,6.4,3,11.7,11.4,11.7c5.9,0,8.7-2.6,9.9-6h16.5c-1.8,10-11,18.1-26.1,18.1
			c-18.6,0-28.5-12.3-28.5-27.9c0-15.5,9.9-27.9,27.8-27.9c17,0,27.6,11.2,27.6,25.9c0,2.1-0.1,3.2-0.5,6H1315.2z M1315.2,422.3h22
			c0-6.4-4.5-10.4-11-10.4C1319.9,411.9,1315.2,415.6,1315.2,422.3z"/>
	</g>
</g>
<g>
	<path class="st0" d="M332.9,396.8c0-16.3,11.3-29.1,29.1-29.1h11.6v14.4h-10.4c-9.4,0-15.4,6.4-15.4,14.7c0,8.3,6,14.7,15.4,14.7
		h10.4V426H362C344.2,426,332.9,413.1,332.9,396.8L332.9,396.8z"/>
	<path class="st0" d="M408.1,426c-16.3,0-28.5-13.1-28.5-29.4c0-16.5,12.3-30.3,30-30.3c17.5,0,29.9,13.8,29.9,30.8v29h-14.9v-29
		c0-8.9-6.7-16.3-14.9-16.3c-8.3,0-14.9,7.1-14.9,15.8c0,8.6,6.7,14.9,15.3,14.9h8.6V426H408.1L408.1,426z"/>
	<polygon class="st0" points="467.5,409.2 467.5,426 452.5,426 452.5,341.8 467.5,341.8 467.5,388.9 486.6,367.7 507.2,367.7 
		485.4,390.5 508.4,426 489.4,426 474.9,401.4 467.5,409.2 	"/>
	<path class="st0" d="M566.1,401.8c0,14.6-10.1,25.6-25.7,25.6c-15.6,0-25.6-11-25.6-25.6V353h14.9v14.7h26.5v14.4h-26.5v20.1
		c0,5.3,3.3,10.6,10.6,10.6c7.5,0,10.7-5.3,10.7-10.6v-5.3h14.9V401.8L566.1,401.8z"/>
	<path class="st0" d="M602,427.3c-16.3,0-25.9-10.7-25.9-26v-33.6h14.9v34c0,3.3,1.1,11.1,11,11.1c6.6,0,11.3-4.6,11.3-11.1v-34
		h14.9v33.6C628.3,416.1,617.9,427.3,602,427.3L602,427.3z"/>
	<path class="st0" d="M665,427.3c-14.8,0-25.8-7.8-27.6-20.4h15.2c2,5,8,6.8,12.4,6.8c6,0,10.5-1.8,10.5-5.2c0-3.3-2-4.6-12.2-6.2
		c-10.4-1.6-24.3-4.4-24.3-17.4c0-9.2,8-18.7,24.9-18.7c13.3,0,23.3,7.2,25.2,18.2h-15.5c-0.9-2.7-4.2-4.9-9.7-4.9
		c-6.9,0-9.7,2.5-9.7,4.6c0,3.1,4.3,4.1,11.5,5.2c14.5,2.4,24.9,5.5,24.9,18.2C690.6,419.2,680,427.3,665,427.3L665,427.3z"/>
	<path class="st0" d="M613.4,289.4v36c3.7-4.8,8.7-8.5,14.5-10.6v-25c0-14.8-9.3-25.2-25.1-25.2c-15.3,0-25.4,10.8-25.5,25
		c5.7,2,10.8,5.6,14.5,10.3v-10.4c0-6.4,4.6-10.8,11-10.8C612.3,278.7,613.4,286.3,613.4,289.4L613.4,289.4z"/>
	<path class="st0" d="M566.8,294.4c15.8,0,25.1,10.4,25.1,25.2v41.1h-14.5v-41.4c0-3.2-1.1-10.8-10.7-10.8c-6.4,0-11,4.4-11,10.8
		v41.4h-14.5v-41.1C541.3,305.2,551.4,294.4,566.8,294.4L566.8,294.4z"/>
	<path class="st0" d="M639.2,332.9c9.5,0,10.6,7.6,10.6,10.8v18.7c4-1.5,8.7-2.4,14.1-2.4c0.1,0,0.3,0,0.4,0v-16
		c0-14.8-9.3-25.2-25.1-25.2c-15.4,0-25.5,10.9-25.5,25.2v16.7h14.5v-17C628.2,337.3,632.8,332.9,639.2,332.9L639.2,332.9z"/>
	<path class="st0" d="M553.9,447.5h-4.4V443h8.9v11.5H557l-0.6-1.2c-1.7,1.1-3.7,1.7-5.7,1.7c-5.8,0-10.5-4.9-10.5-10.9
		c0-6,4.8-10.9,10.5-10.9c3.2,0,6.2,1.5,8,3.8l-2.2,2.8c-1.1-1.2-3.2-2.2-4.9-2.2c-3.6,0-6.5,2.8-6.5,6.4c0,3.6,2.9,6.4,6.5,6.4
		c0.8,0,1.6-0.2,2.4-0.5V447.5L553.9,447.5z"/>
	<path class="st0" d="M580.9,441.7c0-2-1.6-3.6-3.6-3.6c-0.6,0-5.8,0-5.8,0v7.1c0,0,4.8,0,5.8,0
		C579.3,445.3,580.9,443.7,580.9,441.7L580.9,441.7z M587,454.6h-6.2l-4.9-4.9c-1.8,0-4.4,0-4.4,0v4.9h-4.4v-20.8c0,0,9.2,0,10.2,0
		c4.4,0,8,3.6,8,8c0,3-1.7,5.6-4.2,7L587,454.6L587,454.6z"/>
	<path class="st0" d="M597.3,444.2c0,3.7,2.4,6.7,5.3,6.7c3,0,5.3-3,5.3-6.7c0-3.7-2.4-6.7-5.3-6.7
		C599.7,437.5,597.3,440.5,597.3,444.2L597.3,444.2z M612.5,444.2c0,6-4.4,10.9-9.9,10.9c-5.5,0-9.9-4.8-9.9-10.9
		c0-6,4.5-10.9,9.9-10.9C608.1,433.3,612.5,438.1,612.5,444.2L612.5,444.2z"/>
	<path class="st0" d="M624.7,433.7v12.4c0,2.4,2,4.4,4.4,4.4c2.4,0,4.4-2,4.4-4.4v-12.4h4.5v12.4c0,4.9-4,8.9-8.9,8.9
		c-4.9,0-8.9-4-8.9-8.9v-12.4H624.7L624.7,433.7z"/>
	<path class="st0" d="M660.6,441.7c0-2-1.6-3.6-3.6-3.6c-0.6,0-5.8,0-5.8,0v7.1c0,0,4.8,0,5.8,0C659,445.3,660.6,443.7,660.6,441.7
		L660.6,441.7z M665.1,441.7c0,4.4-3.6,8-8,8c-1.1,0-5.8,0-5.8,0v4.9h-4.4v-20.8c0,0,9.2,0,10.2,0
		C661.5,433.7,665.1,437.3,665.1,441.7L665.1,441.7z"/>
</g>
<g>
	<rect x="742.4" y="246.8" class="st0" width="2.7" height="225.9"/>
</g>
</svg>
