<?xml version="1.0" encoding="utf-8"?>
<!-- Generator: Adobe Illustrator 19.1.0, SVG Export Plug-In . SVG Version: 6.00 Build 0)  -->
<svg version="1.1" id="Layer_1" xmlns="http://www.w3.org/2000/svg" xmlns:xlink="http://www.w3.org/1999/xlink" x="0px" y="0px"
	 viewBox="0 0 1692 719.6" style="enable-background:new 0 0 1692 719.6;" xml:space="preserve">
<style type="text/css">
	.st0{fill:#FFFFFF;}
</style>
<g>
	<path class="st0" d="M382.3,277.2h12.3v34.9c0,4.9,3.3,9,8.4,9c5,0,8.4-4.1,8.4-9v-34.9h12.3v35c0,10.9-8,19.5-20.7,19.5
		c-12.7,0-20.7-8.6-20.7-19.5V277.2z"/>
	<path class="st0" d="M463.8,319.7c0,8.6-7.6,11.7-16.3,11.7c-10.8,0-17.1-4.7-17.1-13.2h11.4c0,3.9,2.4,5.4,5.8,5.4
		c2.8,0,4.8-1,4.8-3.4c0-2.8-2.9-3.3-9.8-5.5c-6.3-2-11.3-3.9-11.3-10.6c0-7.7,6.5-11.2,15.7-11.2c11.3,0,16.3,5.4,16.3,12.4h-11.5
		c0-3-1.6-4.8-4.7-4.8c-2.4,0-4.4,1.1-4.4,3.2c0,2.7,3.2,3.2,9.3,5.2C458.5,310.7,463.8,312.5,463.8,319.7z"/>
	<path class="st0" d="M478.7,274.3c4.3,0,7.5,3.3,7.5,7.4c0,4-3.3,7.4-7.5,7.4c-4.2,0-7.4-3.3-7.4-7.4
		C471.3,277.5,474.5,274.3,478.7,274.3z M472.9,293.8h11.6v36.6h-11.6V293.8z"/>
	<path class="st0" d="M495.8,293.8h11.6v5.3c2.1-3.9,6.3-6.2,12.1-6.2c5,0,8.2,1.7,10.2,4.2c2.3,2.8,2.9,6.4,2.9,11.6v21.7h-11.6
		v-18.8c0-5.2-1.6-8.9-6.4-8.9s-7.1,3.6-7.1,9.3v18.4h-11.6V293.8z"/>
	<path class="st0" d="M580.3,330.2c0,12.5-6.5,17.8-20,17.8c-15,0-19.9-6.6-20.3-14.7h11.6c0.4,3.3,2.8,6.2,8.3,6.2
		c5.1,0,8.7-2.5,8.7-8.5v-5.8c-1.9,3.1-5.8,5.7-11.6,5.7c-9.9,0-17.5-7.7-17.5-18.8c0-10.9,7.3-19.1,17.4-19.1
		c5.1,0,9.5,2.1,11.7,6.2v-5.2h11.6V330.2z M551.2,312.1c0,5.1,3.5,9.3,8.7,9.3c5.2,0,8.7-4.2,8.7-9.3c0-5-3.5-9.3-8.7-9.3
		C554.6,302.8,551.2,307.2,551.2,312.1z"/>
	<path class="st0" d="M628.1,277.2c17.6,0,27.6,13,27.6,26.6s-9.9,26.6-27.6,26.6h-19.5v-53.2H628.1z M620.9,287.9v31.9h6.6
		c9.9,0,15.7-7.7,15.7-15.9s-5.8-15.9-15.7-15.9H620.9z"/>
	<path class="st0" d="M676.4,336.1c0,9.6-4.5,11.8-10,11.8c-2.6,0-6.2-0.5-7.6-0.9v-8.7c1.4,0.4,2.1,0.5,2.8,0.5
		c2.2,0,3.2-0.9,3.2-3.6v-41.3h11.6V336.1z M670.5,274.3c4.3,0,7.5,3.3,7.5,7.4c0,4-3.3,7.4-7.5,7.4c-4.2,0-7.4-3.3-7.4-7.4
		C663.1,277.5,666.3,274.3,670.5,274.3z"/>
	<path class="st0" d="M725.9,293.8v36.6h-11.6v-5.2c-1.8,3.3-6.1,6.1-11.7,6.1c-9.7,0-17.3-8.3-17.3-19.2c0-10.9,7.6-19.2,17.3-19.2
		c5.4,0,9.7,2.6,11.7,6.2v-5.2H725.9z M714.3,312.1c0-5-3.5-9.3-8.7-9.3s-8.7,4.3-8.7,9.3c0,5.1,3.5,9.3,8.7,9.3
		S714.3,317.2,714.3,312.1z"/>
	<path class="st0" d="M735.8,293.8h11.6v5.3c2.1-3.9,6.3-6.2,12.1-6.2c5,0,8.2,1.7,10.2,4.2c2.3,2.8,2.9,6.4,2.9,11.6v21.7h-11.6
		v-18.8c0-5.2-1.6-8.9-6.4-8.9s-7.1,3.6-7.1,9.3v18.4h-11.6V293.8z"/>
	<path class="st0" d="M820.3,330.2c0,12.5-6.5,17.8-20,17.8c-15,0-19.9-6.6-20.3-14.7h11.6c0.4,3.3,2.8,6.2,8.3,6.2
		c5.1,0,8.7-2.5,8.7-8.5v-5.8c-1.9,3.1-5.8,5.7-11.6,5.7c-9.9,0-17.5-7.7-17.5-18.8c0-10.9,7.3-19.1,17.4-19.1
		c5.1,0,9.5,2.1,11.7,6.2v-5.2h11.6V330.2z M791.2,312.1c0,5.1,3.5,9.3,8.7,9.3c5.2,0,8.7-4.2,8.7-9.3c0-5-3.5-9.3-8.7-9.3
		C794.6,302.8,791.2,307.2,791.2,312.1z"/>
	<path class="st0" d="M827.4,312.1c0-10.5,7.7-19.3,20.4-19.3s20.3,8.8,20.3,19.3c0,10.5-7.6,19.3-20.3,19.3
		S827.4,322.6,827.4,312.1z M856.5,312.1c0-5.1-3.5-9.3-8.8-9.3c-5.2,0-8.7,4.3-8.7,9.3c0,5.2,3.4,9.3,8.7,9.3
		C853,321.4,856.5,317.3,856.5,312.1z"/>
	<path class="st0" d="M880.8,315.9c4.7,0,8.2,3.5,8.2,10.9c0,9.8-6,14.6-15.8,14.6v-4.7c3.3,0,5.5-0.8,6.9-2
		c1.1-0.9,2.1-2.5,2.3-4.3c-0.2,0.2-1,0.6-2.4,0.6c-4.1,0-7.2-3.4-7.2-7.5C872.8,319.4,876,315.9,880.8,315.9z"/>
	<path class="st0" d="M947.7,330.4l-2-6.5h-18.9l-2,6.5h-13.1l19-53.2h11.3l19.2,53.2H947.7z M936.2,292.4l-6.5,21.9h12.9
		L936.2,292.4z"/>
	<path class="st0" d="M966.3,293.8h11.6v5.3c2.1-3.9,6.3-6.2,12.1-6.2c5,0,8.2,1.7,10.2,4.2c2.3,2.8,2.9,6.4,2.9,11.6v21.7h-11.6
		v-18.8c0-5.2-1.6-8.9-6.4-8.9s-7.1,3.6-7.1,9.3v18.4h-11.6V293.8z"/>
	<path class="st0" d="M1050.8,330.2c0,12.5-6.5,17.8-20,17.8c-15,0-19.9-6.6-20.3-14.7h11.6c0.4,3.3,2.8,6.2,8.3,6.2
		c5.1,0,8.7-2.5,8.7-8.5v-5.8c-1.9,3.1-5.8,5.7-11.6,5.7c-9.9,0-17.5-7.7-17.5-18.8c0-10.9,7.3-19.1,17.4-19.1
		c5.1,0,9.5,2.1,11.7,6.2v-5.2h11.6V330.2z M1021.7,312.1c0,5.1,3.5,9.3,8.7,9.3c5.2,0,8.7-4.2,8.7-9.3c0-5-3.5-9.3-8.7-9.3
		C1025.2,302.8,1021.7,307.2,1021.7,312.1z"/>
	<path class="st0" d="M1096.7,293.8v36.6h-11.6v-5.2c-2.1,3.9-6.3,6.2-12.1,6.2c-5,0-8.2-1.7-10.2-4.2c-2.3-2.8-2.8-6.4-2.8-11.6
		v-21.7h11.5v18.8c0,5.2,1.6,8.9,6.5,8.9c4.8,0,7.1-3.6,7.1-9.3v-18.4H1096.7z"/>
	<path class="st0" d="M1106.6,277.2h11.6v53.2h-11.6V277.2z"/>
	<path class="st0" d="M1166.4,293.8v36.6h-11.6v-5.2c-1.8,3.3-6.1,6.1-11.7,6.1c-9.7,0-17.3-8.3-17.3-19.2
		c0-10.9,7.6-19.2,17.3-19.2c5.4,0,9.7,2.6,11.7,6.2v-5.2H1166.4z M1154.8,312.1c0-5-3.5-9.3-8.7-9.3s-8.7,4.3-8.7,9.3
		c0,5.1,3.5,9.3,8.7,9.3S1154.8,317.2,1154.8,312.1z"/>
	<path class="st0" d="M1202.5,304.3c-1.6-0.4-2.6-0.5-3.9-0.5c-6.5,0-10.7,3.3-10.7,12.3v14.3h-11.6v-36.6h11.6v5.9
		c1.7-3.4,6-6.5,11.3-6.5c1.2,0,2.3,0.2,3.3,0.6V304.3z"/>
	<path class="st0" d="M1261.2,312.1c0,12.6-7.4,19.6-19.2,19.6c-13.1,0-19.6-8.6-19.6-19.7h12.3c0,5.2,2.3,9.1,7.1,9.1
		c4.6,0,7.1-3.4,7.1-9v-34.9h12.2V312.1z"/>
	<path class="st0" d="M1280.9,312.8c0,5.8,3.6,9.2,8.4,9.2c4.1,0,7.1-2.5,7.1-6.2c0-4.2-3.6-5.7-8.3-7.4c-9.4-3.5-18-6.7-18-17
		c0-10.6,9-15.4,18.8-15.4c12.5,0,18.8,7.9,18.8,16.9h-12.3c0-4.7-2.4-7.7-6.7-7.7c-3.4,0-6.4,1.9-6.4,5.4c0,3.4,2.8,5.4,7.6,7.1
		c9.4,3.3,18.7,6.6,18.7,17.5c0,10.3-8.3,16.7-19.7,16.7c-11.8,0-20.4-6.8-20.4-19H1280.9z"/>
	<path class="st0" d="M231.3,438.3l-2.1-6.5h-18.9l-2,6.5h-13.1l19-53.2h11.3l19.2,53.2H231.3z M219.8,400.3l-6.5,21.9h12.9
		L219.8,400.3z"/>
	<path class="st0" d="M250.1,385.1h12.5v53.2h-12.5V385.1z"/>
	<path class="st0" d="M302.6,438.3H291v-53.2h11.6v21.8c1.8-3.3,6.1-6.2,11.8-6.2c9.7,0,17.3,8.2,17.3,19.2
		c0,10.9-7.5,19.2-17.4,19.2c-5.8,0-10-3-11.7-6.1V438.3z M320.1,420c0-4.9-3.4-9.3-8.7-9.3c-5.2,0-8.7,4.3-8.7,9.3
		c0,5.2,3.6,9.3,8.7,9.3C316.6,429.3,320.1,425.1,320.1,420z"/>
	<path class="st0" d="M375.6,401.7v36.6H364v-5.2c-2.1,3.9-6.3,6.2-12.1,6.2c-5,0-8.2-1.7-10.2-4.2c-2.3-2.8-2.8-6.4-2.8-11.6v-21.7
		h11.5v18.8c0,5.2,1.6,8.9,6.5,8.9c4.8,0,7.1-3.6,7.1-9.3v-18.4H375.6z"/>
	<path class="st0" d="M392.6,382.2c4.3,0,7.5,3.3,7.5,7.4c0,4-3.3,7.4-7.5,7.4c-4.2,0-7.4-3.3-7.4-7.4
		C385.2,385.5,388.4,382.2,392.6,382.2z M386.8,401.7h11.6v36.6h-11.6V401.7z"/>
	<path class="st0" d="M409.7,385.1h11.6v53.2h-11.6V385.1z"/>
	<path class="st0" d="M454,438.3c-1.7,0.3-4.3,0.6-7.8,0.6c-5.4,0-12.9-0.7-12.9-12.9v-15.6h-5.8v-8.7h5.8v-10.9h11.5v10.9h8.4v8.7
		h-8.4v13.1c0,5.5,2.1,6.2,5.3,6.2c1,0,2.8-0.1,3.9-0.2V438.3z"/>
	<path class="st0" d="M504.3,415l-7.5,23.3h-9.4l-13.7-36.6h12l6.8,21.8l6.5-21.8h10.7l6.5,21.8l6.8-21.8h12l-13.7,36.6h-9.4
		L504.3,415z"/>
	<path class="st0" d="M561.9,377.2l10.9,4.6l-26.7,62l-10.9-4.6L561.9,377.2z"/>
	<path class="st0" d="M652,438.3h-12v-33l-11.5,33h-9.1l-11.8-33v33h-12v-53.2h14.2l14.2,37l14-37h14V438.3z"/>
	<path class="st0" d="M659.5,420c0-10.5,7.7-19.3,20.4-19.3s20.3,8.8,20.3,19.3c0,10.5-7.6,19.3-20.3,19.3S659.5,430.5,659.5,420z
		 M688.6,420c0-5.1-3.5-9.3-8.8-9.3c-5.2,0-8.7,4.3-8.7,9.3c0,5.2,3.4,9.3,8.7,9.3C685.1,429.3,688.6,425.2,688.6,420z"/>
	<path class="st0" d="M707.5,401.7h11.6v5.3c2.1-3.9,6.3-6.2,12.1-6.2c5,0,8.2,1.7,10.2,4.2c2.3,2.8,2.9,6.4,2.9,11.6v21.7h-11.6
		v-18.8c0-5.2-1.6-8.9-6.4-8.9s-7.1,3.6-7.1,9.3v18.4h-11.6V401.7z"/>
	<path class="st0" d="M776.5,438.3c-1.7,0.3-4.3,0.6-7.8,0.6c-5.4,0-12.9-0.7-12.9-12.9v-15.6H750v-8.7h5.8v-10.9h11.5v10.9h8.4v8.7
		h-8.4v13.1c0,5.5,2.1,6.2,5.3,6.2c1,0,2.8-0.1,3.9-0.2V438.3z"/>
	<path class="st0" d="M791.3,422.8c0,4.4,2.1,8.1,7.9,8.1c4.1,0,6-1.8,6.8-4.2h11.4c-1.2,6.9-7.6,12.5-18.1,12.5
		c-12.8,0-19.7-8.5-19.7-19.3c0-10.7,6.8-19.3,19.2-19.3c11.8,0,19.1,7.7,19.1,17.9c0,1.4-0.1,2.2-0.4,4.2H791.3z M791.3,416.1h15.2
		c0-4.4-3.1-7.2-7.6-7.2C794.5,408.9,791.3,411.5,791.3,416.1z"/>
	<path class="st0" d="M896.7,419.2c-2.1,11.2-11.7,20.4-26.6,20.4c-17.8,0-28.5-13.1-28.5-27.9c0-14.6,10.2-27.9,28.3-27.9
		c15.6,0,25.2,9.8,26.7,22h-12.8c-1.1-6.2-5.8-10.9-13.7-10.9c-10.2,0-15.9,8-15.9,16.9c0,9.3,6.5,16.9,16.1,16.9
		c7.1,0,11.8-4.1,13.4-9.3H896.7z"/>
	<path class="st0" d="M942.4,401.7v36.6h-11.6v-5.2c-1.8,3.3-6.1,6.1-11.7,6.1c-9.7,0-17.3-8.3-17.3-19.2c0-10.9,7.6-19.2,17.3-19.2
		c5.4,0,9.7,2.6,11.7,6.2v-5.2H942.4z M930.8,420c0-5-3.5-9.3-8.7-9.3s-8.7,4.3-8.7,9.3c0,5.1,3.5,9.3,8.7,9.3
		S930.8,425.1,930.8,420z"/>
	<path class="st0" d="M978.5,412.3c-1.6-0.4-2.6-0.5-3.9-0.5c-6.5,0-10.7,3.3-10.7,12.3v14.3h-11.6v-36.6h11.6v5.9
		c1.7-3.4,6-6.5,11.3-6.5c1.2,0,2.3,0.2,3.3,0.6V412.3z"/>
	<path class="st0" d="M983.9,385.1h11.6v53.2h-11.6V385.1z"/>
	<path class="st0" d="M1002.9,420c0-10.5,7.7-19.3,20.4-19.3s20.3,8.8,20.3,19.3c0,10.5-7.6,19.3-20.3,19.3S1002.9,430.5,1002.9,420
		z M1032,420c0-5.1-3.5-9.3-8.8-9.3c-5.2,0-8.7,4.3-8.7,9.3c0,5.2,3.4,9.3,8.7,9.3C1028.5,429.3,1032,425.2,1032,420z"/>
	<path class="st0" d="M1077.6,395.8h-12v-10.6h36.4v10.6h-12.1v42.5h-12.3V395.8z"/>
	<path class="st0" d="M1130.3,412.3c-1.6-0.4-2.6-0.5-3.9-0.5c-6.5,0-10.7,3.3-10.7,12.3v14.3H1104v-36.6h11.6v5.9
		c1.7-3.4,6-6.5,11.3-6.5c1.2,0,2.3,0.2,3.3,0.6V412.3z"/>
	<path class="st0" d="M1144.4,422.8c0,4.4,2.1,8.1,7.9,8.1c4.1,0,6-1.8,6.8-4.2h11.4c-1.2,6.9-7.6,12.5-18.1,12.5
		c-12.8,0-19.7-8.5-19.7-19.3c0-10.7,6.8-19.3,19.2-19.3c11.8,0,19.1,7.7,19.1,17.9c0,1.4-0.1,2.2-0.4,4.2H1144.4z M1144.4,416.1
		h15.2c0-4.4-3.1-7.2-7.6-7.2C1147.6,408.9,1144.4,411.5,1144.4,416.1z"/>
	<path class="st0" d="M1188.2,422.8c0,4.4,2.1,8.1,7.9,8.1c4.1,0,6-1.8,6.8-4.2h11.4c-1.2,6.9-7.6,12.5-18.1,12.5
		c-12.8,0-19.7-8.5-19.7-19.3c0-10.7,6.8-19.3,19.2-19.3c11.8,0,19.1,7.7,19.1,17.9c0,1.4-0.1,2.2-0.4,4.2H1188.2z M1188.2,416.1
		h15.2c0-4.4-3.1-7.2-7.6-7.2C1191.5,408.9,1188.2,411.5,1188.2,416.1z"/>
	<path class="st0" d="M1251.4,420.7c0,5.8,3.6,9.2,8.4,9.2c4.1,0,7.1-2.5,7.1-6.2c0-4.2-3.6-5.7-8.3-7.4c-9.4-3.5-18-6.7-18-17
		c0-10.6,9-15.4,18.8-15.4c12.5,0,18.8,7.9,18.8,16.9h-12.3c0-4.7-2.4-7.7-6.7-7.7c-3.4,0-6.4,1.9-6.4,5.4c0,3.4,2.8,5.4,7.6,7.1
		c9.4,3.3,18.7,6.6,18.7,17.5c0,10.3-8.3,16.7-19.7,16.7c-11.8,0-20.4-6.8-20.4-19H1251.4z"/>
	<path class="st0" d="M1296.5,422.8c0,4.4,2.1,8.1,7.9,8.1c4.1,0,6-1.8,6.8-4.2h11.4c-1.2,6.9-7.6,12.5-18.1,12.5
		c-12.8,0-19.7-8.5-19.7-19.3c0-10.7,6.8-19.3,19.2-19.3c11.8,0,19.1,7.7,19.1,17.9c0,1.4-0.1,2.2-0.4,4.2H1296.5z M1296.5,416.1
		h15.2c0-4.4-3.1-7.2-7.6-7.2C1299.7,408.9,1296.5,411.5,1296.5,416.1z"/>
	<path class="st0" d="M1369.3,401.7v36.6h-11.6v-5.2c-1.8,3.3-6.1,6.1-11.7,6.1c-9.7,0-17.3-8.3-17.3-19.2
		c0-10.9,7.6-19.2,17.3-19.2c5.4,0,9.7,2.6,11.7,6.2v-5.2H1369.3z M1357.7,420c0-5-3.5-9.3-8.7-9.3s-8.7,4.3-8.7,9.3
		c0,5.1,3.5,9.3,8.7,9.3S1357.7,425.1,1357.7,420z"/>
	<path class="st0" d="M1405.5,412.3c-1.6-0.4-2.6-0.5-3.9-0.5c-6.5,0-10.7,3.3-10.7,12.3v14.3h-11.6v-36.6h11.6v5.9
		c1.7-3.4,6-6.5,11.3-6.5c1.2,0,2.3,0.2,3.3,0.6V412.3z"/>
	<path class="st0" d="M1435.4,416.1c-0.4-3.1-2.6-5.5-6.9-5.5c-6,0-8.4,4.4-8.4,9.4c0,5.1,2.5,9.4,8.7,9.4c3.9,0,5.8-1.7,6.8-4.9
		h11.6c-1.1,8.2-7.5,14.7-18.8,14.7c-13.2,0-19.9-9.1-19.9-19.3c0-10.1,6.7-19.3,19.9-19.3c12.1,0,18,7.6,18.7,15.3H1435.4z"/>
	<path class="st0" d="M1454.5,385.1h11.2V407c2.1-3.8,6.2-6.2,11.9-6.2c4.7,0,7.8,1.6,9.9,4.2c2.3,2.8,3,6.5,3,11.7v21.6h-11.2
		v-18.8c0-5.2-1.6-8.9-6.4-8.9s-7.1,3.6-7.1,9.3v18.4h-11.2V385.1z"/>
</g>
</svg>
