<?xml version="1.0" encoding="utf-8"?>
<!-- Generator: Adobe Illustrator 19.1.0, SVG Export Plug-In . SVG Version: 6.00 Build 0)  -->
<svg version="1.1" id="Layer_1" xmlns="http://www.w3.org/2000/svg" xmlns:xlink="http://www.w3.org/1999/xlink" x="0px" y="0px"
	 viewBox="0 0 162 162" style="enable-background:new 0 0 162 162;" xml:space="preserve">
<style type="text/css">
	.st0{fill:#137F87;}
	.st1{fill:#FFFFFF;}
</style>
<g>
	<g>
		<circle class="st0" cx="81" cy="81" r="81"/>
	</g>
	<path class="st1" d="M86.5,81l32.9-31.7c1.5-1.5,1.6-3.9,0.1-5.4c-1.5-1.5-3.9-1.6-5.4-0.1L81,75.7L47.9,43.8
		c-1.5-1.5-4-1.4-5.4,0.1c-1.5,1.5-1.4,4,0.1,5.4L75.5,81l-32.9,31.7c-1.5,1.5-1.6,3.9-0.1,5.4c0.8,0.8,1.8,1.2,2.8,1.2
		c1,0,1.9-0.4,2.7-1.1L81,86.3l33.1,31.9c0.7,0.7,1.7,1.1,2.7,1.1c1,0,2-0.4,2.8-1.2c1.5-1.5,1.4-4-0.1-5.4L86.5,81z"/>
</g>
</svg>
