<?xml version="1.0" encoding="UTF-8" standalone="no"?>
<!-- Generator: Adobe Illustrator 18.1.1, SVG Export Plug-In . SVG Version: 6.00 Build 0)  -->

<svg
   xmlns:dc="http://purl.org/dc/elements/1.1/"
   xmlns:cc="http://creativecommons.org/ns#"
   xmlns:rdf="http://www.w3.org/1999/02/22-rdf-syntax-ns#"
   xmlns:svg="http://www.w3.org/2000/svg"
   xmlns="http://www.w3.org/2000/svg"
   xmlns:sodipodi="http://sodipodi.sourceforge.net/DTD/sodipodi-0.dtd"
   xmlns:inkscape="http://www.inkscape.org/namespaces/inkscape"
   version="1.1"
   id="Layer_1"
   x="0px"
   y="0px"
   viewBox="0 90 612 612"
   enable-background="new 0 90 612 612"
   xml:space="preserve"
   inkscape:version="0.91 r13725"
   width="100%"
   height="100%"
   sodipodi:docname="caktus.svg"><metadata
     id="metadata25"><rdf:RDF><cc:Work
         rdf:about=""><dc:format>image/svg+xml</dc:format><dc:type
           rdf:resource="http://purl.org/dc/dcmitype/StillImage" /><dc:title /></cc:Work></rdf:RDF></metadata><defs
     id="defs23" /><sodipodi:namedview
     pagecolor="#ffffff"
     bordercolor="#666666"
     borderopacity="1"
     objecttolerance="10"
     gridtolerance="10"
     guidetolerance="10"
     inkscape:pageopacity="0"
     inkscape:pageshadow="2"
     inkscape:window-width="1440"
     inkscape:window-height="788"
     id="namedview21"
     showgrid="false"
     inkscape:zoom="0.38562092"
     inkscape:cx="-47.974572"
     inkscape:cy="285.25424"
     inkscape:window-x="0"
     inkscape:window-y="550"
     inkscape:window-maximized="1"
     inkscape:current-layer="Layer_1" /><circle
     style="fill:#0e7f86;fill-opacity:1"
     id="circle4"
     r="297.79999"
     cy="395.79999"
     cx="305.39999" /><g
     id="g6"><g
       id="g8"><path
         style="fill:#ffffff"
         inkscape:connector-curvature="0"
         id="path10"
         d="m 272.3,340.1 0,-32.4 c 0,-20 14.1,-33.7 34.1,-33.7 30,0 33,23.7 33,33.7 l 0,112.6 c 12.2,-14.9 30,-26.7 47.5,-33.3 l 0,-78.3 c 0,-46.3 -29.6,-78.9 -79.2,-78.9 -47.7,0 -80,33.7 -80.2,78.3 18.1,6.1 34.2,17.3 44.8,32" /></g><g
       id="g12"><path
         style="fill:#ffffff"
         inkscape:connector-curvature="0"
         id="path14"
         d="m 159.5,400.9 c 0,-20 14.9,-33.7 34.9,-33.7 30,0 33.9,23.7 33.9,33.7 l 0,124.2 44.1,0 0,-123.2 c 0,-46.3 -28.6,-78.9 -77.9,-78.9 -48.1,0 -78.9,34.1 -78.9,78.9 l 0,123.2 44.1,0 -0.2,-124.2 0,0 z" /></g><g
       id="g16"><path
         style="fill:#ffffff"
         inkscape:connector-curvature="0"
         id="path18"
         d="m 387,477.2 c 0,-20 14.9,-33.7 34.9,-33.7 30,0 33.9,23.7 33.9,33.7 l 0,47.7 44.1,0 0,-46.7 c 0,-46.3 -28.6,-78.9 -77.9,-78.9 -48.1,0 -78.9,34.1 -78.9,78.9 l 0,46.7 43.9,0 0,-47.7 0,0 z" /></g></g><g
     id="Layer_2" /></svg>